<?xml version="1.0" encoding="UTF-8"?>
<svg id="Layer_2" data-name="Layer 2" xmlns="http://www.w3.org/2000/svg" viewBox="0 0 39.47 81.52">
  <defs>
    <style>
      .cls-1 {
        stroke: #72bf44;
      }

      .cls-1, .cls-2 {
        fill: none;
        stroke-width: 3px;
      }

      .cls-1, .cls-2, .cls-3 {
        stroke-miterlimit: 10;
      }

      .cls-2 {
        stroke: #62ac46;
      }

      .cls-4, .cls-3 {
        fill: #f47521;
      }

      .cls-5 {
        fill: #68b546;
      }

      .cls-6 {
        fill: #f15822;
      }

      .cls-7 {
        fill: #89c13d;
      }

      .cls-3 {
        stroke: #006838;
        stroke-width: 4px;
      }
    </style>
  </defs>
  <g id="burgermenu_detaljer" data-name="burgermenu detaljer">
    <line class="cls-2" x1="15.34" y1="42.14" x2="7.26" y2="19.73"/>
    <line class="cls-2" x1="24.67" y1="41.52" x2="32.76" y2="19.11"/>
    <line class="cls-1" x1="19.75" y1="41.89" x2="19.7" y2="5.38"/>
    <path class="cls-5" d="m26.28,37.79c.07.11.25.33,2.03.28,1.88-.06,2.92-.1,4.04-.76.45-.26.74-.53,1.33-1.08.4-.37,1.39-1.35,2.3-2.94.55-.96.9-1.58.64-1.97-.21-.32-.8-.31-1.97-.28-.65.02-1.48.05-2.57.32-.77.19-1.35.34-2.03.78-.58.37-.93.77-1.28,1.15-.32.36-.59.72-1.33,1.97-1.27,2.13-1.24,2.37-1.15,2.52Z"/>
    <path class="cls-7" d="m20.43,26.98c-.1-.07-.31-.28-.1-2.04.22-1.87.36-2.89,1.11-3.96.3-.42.6-.69,1.19-1.23.4-.36,1.47-1.26,3.13-2.03,1-.46,1.66-.75,2.02-.47.3.23.24.82.1,1.99-.08.65-.18,1.47-.55,2.53-.26.75-.46,1.31-.95,1.95-.42.54-.85.86-1.26,1.17-.38.28-.77.52-2.08,1.15-2.24,1.07-2.47,1.03-2.61.93Z"/>
    <path class="cls-5" d="m29.03,30.21c.07.11.25.33,2.03.28,1.88-.06,2.92-.1,4.04-.76.45-.26.74-.53,1.33-1.08.4-.37,1.39-1.35,2.3-2.94.55-.96.9-1.58.64-1.97-.21-.32-.8-.31-1.97-.28-.65.02-1.48.05-2.57.32-.77.19-1.35.34-2.03.78-.58.37-.93.77-1.28,1.15-.32.36-.59.72-1.33,1.97-1.27,2.13-1.24,2.37-1.15,2.52Z"/>
    <path class="cls-5" d="m25.44,37.41c-.12.05-.4.11-1.77-1.02-1.45-1.2-2.24-1.86-2.74-3.07-.2-.48-.26-.88-.39-1.67-.09-.53-.27-1.92-.02-3.73.15-1.09.26-1.8.7-1.95.36-.12.82.25,1.73.99.5.41,1.14.94,1.84,1.83.49.62.86,1.1,1.13,1.85.23.65.27,1.18.31,1.69.03.48.03.93-.15,2.38-.3,2.46-.46,2.64-.63,2.7Z"/>
    <path class="cls-7" d="m19.14,26.9c-.1.08-.35.23-2-.43-1.75-.7-2.71-1.09-3.54-2.09-.33-.4-.52-.75-.88-1.47-.25-.48-.84-1.75-1.16-3.54-.19-1.09-.3-1.79.07-2.07.3-.23.86-.02,1.95.41.61.24,1.38.55,2.31,1.18.65.44,1.15.78,1.64,1.42.42.55.62,1.04.81,1.52.18.44.31.88.58,2.31.46,2.44.36,2.65.23,2.76Z"/>
    <path class="cls-5" d="m28.36,30.09c-.12.05-.4.11-1.77-1.02-1.45-1.2-2.24-1.86-2.74-3.07-.2-.48-.26-.88-.39-1.67-.09-.53-.27-1.92-.02-3.73.15-1.09.26-1.8.7-1.95.36-.12.82.25,1.73.99.5.41,1.14.94,1.84,1.83.49.62.86,1.1,1.13,1.85.23.65.27,1.18.31,1.69.03.48.03.93-.15,2.38-.3,2.46-.46,2.64-.63,2.7Z"/>
    <path class="cls-5" d="m12.88,37.98c-.07.11-.26.32-2.04.2-1.88-.13-2.91-.21-4.01-.91-.44-.28-.72-.56-1.29-1.13-.38-.38-1.34-1.4-2.18-3.02-.51-.98-.84-1.62-.57-2,.22-.31.81-.28,1.98-.2.65.04,1.48.1,2.56.42.76.22,1.34.39,2,.85.56.39.91.8,1.24,1.2.3.37.56.74,1.26,2.02,1.18,2.18,1.16,2.41,1.06,2.56Z"/>
    <path class="cls-5" d="m10.18,30.4c-.07.11-.26.32-2.04.2-1.88-.13-2.91-.21-4.01-.91-.44-.28-.72-.56-1.29-1.13-.38-.38-1.34-1.4-2.18-3.02-.51-.98-.84-1.62-.57-2,.22-.31.81-.28,1.98-.2.65.04,1.48.1,2.56.42.76.22,1.34.39,2,.85.56.39.91.8,1.24,1.2.3.37.56.74,1.26,2.02,1.18,2.18,1.16,2.41,1.06,2.56Z"/>
    <path class="cls-5" d="m14.25,37.78c.12.03.41.07,1.66-1.2,1.32-1.34,2.04-2.09,2.4-3.34.14-.5.17-.9.21-1.7.03-.54.07-1.94-.37-3.71-.27-1.07-.45-1.76-.9-1.87-.37-.09-.79.33-1.62,1.17-.46.46-1.04,1.06-1.63,2.01-.42.67-.74,1.18-.93,1.96-.16.67-.15,1.2-.13,1.72.02.48.07.93.4,2.35.56,2.42.74,2.57.91,2.62Z"/>
    <path class="cls-5" d="m11.44,30.28c.12.03.41.07,1.66-1.2,1.32-1.34,2.04-2.09,2.4-3.34.14-.5.17-.9.21-1.7.03-.54.07-1.94-.37-3.71-.27-1.07-.45-1.76-.9-1.87-.37-.09-.79.33-1.62,1.17-.46.46-1.04,1.06-1.63,2.01-.42.67-.74,1.18-.93,1.96-.16.67-.15,1.2-.13,1.72.02.48.07.93.4,2.35.56,2.42.74,2.57.91,2.62Z"/>
    <path class="cls-7" d="m19.14,19.02c-.1.08-.35.23-2-.43-1.75-.7-2.71-1.09-3.54-2.09-.33-.4-.52-.75-.88-1.47-.25-.48-.84-1.75-1.16-3.54-.19-1.09-.3-1.79.07-2.07.3-.23.86-.02,1.95.41.61.24,1.38.55,2.31,1.18.65.44,1.15.78,1.64,1.42.42.55.62,1.04.81,1.52.18.44.31.88.58,2.31.46,2.44.36,2.65.23,2.76Z"/>
    <path class="cls-7" d="m20.43,19.11c-.1-.07-.31-.28-.1-2.04.22-1.87.36-2.89,1.11-3.96.3-.42.6-.69,1.19-1.23.4-.36,1.47-1.26,3.13-2.03,1-.46,1.66-.75,2.02-.47.3.23.24.82.1,1.99-.08.65-.18,1.47-.55,2.53-.26.75-.46,1.31-.95,1.95-.42.54-.85.86-1.26,1.17-.38.28-.77.52-2.08,1.15-2.24,1.07-2.47,1.03-2.61.93Z"/>
    <path class="cls-5" d="m9.63,23.01c-.28.6-.53,1.14-1.05,1.33-.76.28-1.62-.37-2.25-.85-.33-.25-1.22-.97-1.94-2.32-.95-1.76-.98-3.41-.99-4.16,0-.62.05-1.07.12-1.58.22-1.7.34-2.66.89-2.88.49-.19,1.19.37,2.57,1.49.68.55,1.09.98,1.26,1.16.53.56.98,1.05,1.33,1.81.23.51.31.9.41,1.4.26,1.28.17,2.32.1,2.83-.07.56-.15,1.11-.46,1.77Z"/>
    <path class="cls-5" d="m30.02,23.01c.28.6.53,1.14,1.05,1.33.76.28,1.62-.37,2.25-.85.33-.25,1.22-.97,1.94-2.32.95-1.76.98-3.41.99-4.16,0-.62-.05-1.07-.12-1.58-.22-1.7-.34-2.66-.89-2.88-.49-.19-1.19.37-2.57,1.49-.68.55-1.09.98-1.26,1.16-.53.56-.98,1.05-1.33,1.81-.23.51-.31.9-.41,1.4-.26,1.28-.17,2.32-.1,2.83.07.56.15,1.11.46,1.77Z"/>
    <path class="cls-7" d="m21.16,11.6c-.63.6-.96.91-1.43.92-.69,0-1.19-.65-1.85-1.55-.77-1.05-1.3-1.76-1.55-2.92-.43-2.02.36-3.65.59-4.13.11-.23.04-.06.94-1.49C19.15.39,19.3.01,19.67,0c.53-.02,1,.74,1.94,2.25.27.44.55.93.81,1.51.28.62.46,1.01.57,1.57.14.68.09,1.21.02,2.03-.09.97-.13,1.46-.37,2.08-.43,1.13-1.12,1.81-1.48,2.15Z"/>
    <path class="cls-4" d="m4.9,57.34c9.79-.03,20.11-.04,30.3-.03.21-1.28.4-2.57.63-3.85.28-1.59,1.1-6.14-1.36-9.54-.38-.52-1.11-1.52-2.42-2.23-1.82-.99-2.79-.36-8.18-.7-1.51-.09-2.23-.19-3.71-.16-1.68.04-2.16.19-3.66.3-3.99.29-4.64-.54-6.69.02,0,0-2.24.61-4.01,2.62-3.23,3.67-1.69,10.07-1.06,12.82,0,0,.06.27.16.75Z"/>
    <g>
      <line class="cls-3" x1=".54" y1="57.94" x2="39.47" y2="57.94"/>
      <line class="cls-3" x1=".54" y1="68.7" x2="39.47" y2="68.7"/>
      <line class="cls-3" x1=".54" y1="79.52" x2="39.47" y2="79.52"/>
    </g>
    <path class="cls-6" d="m8.42,50.07s.04.8.49,1.43c.65.94,2.11.88,5.3.88,4.31,0,5.81.1,6.28-.82.24-.47.22-1.23.22-1.49,0-.1-.04-1.16-.39-1.73-.62-1-2.29-.56-6.11-.52-3.25.04-4.84-.24-5.45.74-.18.3-.38.87-.34,1.51Z"/>
  </g>
</svg>