<?xml version="1.0" encoding="UTF-8"?>
<svg id="Layer_1" data-name="Layer 1" xmlns="http://www.w3.org/2000/svg" viewBox="0 0 638.71 393.99">
  <defs>
    <style>
      .cls-1 {
        fill: #cecccc;
      }

      .cls-2 {
        fill: #ada6a1;
      }

      .cls-3 {
        fill: #231f20;
      }
    </style>
  </defs>
  <path class="cls-1" d="m312.48,258.03c14.03,0,25.39,11.37,25.39,25.39s-11.36,25.4-25.39,25.4-25.39-11.37-25.39-25.4,11.37-25.39,25.39-25.39Zm17.89,26.22c0-9.83-7.97-17.8-17.8-17.8s-17.79,7.97-17.79,17.8,7.96,17.79,17.79,17.79,17.8-7.97,17.8-17.79Z"/>
  <path d="m564.72,61.47c35,0,63.38,4.62,63.38,10.33s-28.38,10.33-63.38,10.33c-23.95,0-44.79-2.17-55.57-5.36v-9.95c10.78-3.19,31.62-5.35,55.57-5.35Z"/>
  <path class="cls-2" d="m536.54,134.81c0,2.24-.8,4.3-2.13,5.91s-3.19,2.77-5.31,3.21c-.6.12-1.23.19-1.87.19h-52.37c-.24,0-.47-.01-.71-.03-.2,0-.4-.03-.6-.06-2.86-.41-5.31-2.12-6.71-4.52-.82-1.38-1.29-2.99-1.29-4.7,0-2.56,1.05-4.89,2.73-6.58,1.4-1.39,3.23-2.35,5.28-2.63.42-.07.86-.1,1.3-.1h52.37c.48,0,.95.04,1.4.11,4.46.68,7.91,4.56,7.91,9.2Z"/>
  <path class="cls-1" d="m529.1,143.93l-.48,34.03v9.21s-6,13.02-29.49,13.02-25.29-12.54-25.29-12.54l-.06-8.91.36-.18c0-11.49,0-22.98.01-34.47.24.02.47.03.71.03h52.37c.64,0,1.27-.07,1.87-.19Z"/>
  <path class="cls-1" d="m528.63,109.94v15.67c-.45-.07-.92-.11-1.4-.11h-52.37c-.44,0-.88.03-1.3.1v-15.66c0-8.99,7.34-16.34,16.33-16.34h3.06v-34.7c0-4.45,3.65-8.1,8.1-8.1,2.22,0,4.25.91,5.72,2.38s2.38,3.5,2.38,5.72v34.7h3.15c8.98,0,16.33,7.35,16.33,16.34Z"/>
  <path d="m492.95,66.66v10.27c-10.93,3.11-31.47,5.2-55,5.2-35.01,0-63.39-4.63-63.39-10.33s28.38-10.33,63.39-10.33c23.53,0,44.07,2.09,55,5.19Z"/>
  <path class="cls-1" d="m474.15,144.09c-.01,11.49-.01,22.98-.01,34.47l-.36.18-.23-34.71c.2.03.4.05.6.06Z"/>
  <path class="cls-2" d="m473.55,144.03l.23,34.71c-10.8,5.47-23.07,10.97-36.78,15.99-18.81,6.89-36.27,11.41-51.56,14.42,0,0,64.48,51.13,68.01,155.35,0,0-2.65,17.87-14.13,18.65-11.48.78-18.99-13.8-18.99-13.8,0,0-2.88-128.83-82.46-147.96v15.62h-50.78v-15.9s-78.6,30.05-81.84,136.44c0,0,4.11,25.6-13.86,25.6s-19.47-19.85-19.47-19.85c0,0,8.23-122.59,68.52-154.15,0,0-65.9-10.23-86.12-31.19v-33.96c.16-.02.32-.05.48-.08,2.12-.43,3.98-1.59,5.31-3.21.33-.41.64-.84.89-1.3,16.06,13.39,60.44,44.46,126.09,44.16,0,0,3.07-20.33,26.58-20.62s24.2,21.85,24.2,21.85c0,0,101.18-13.53,127.57-43.97l1.4-1.32c1.4,2.4,3.85,4.11,6.71,4.52Z"/>
  <path class="cls-1" d="m378.66,270.55v25.74c0,3.42-2.8,6.21-6.21,6.21h-3.47c-3.42,0-6.21-2.79-6.21-6.21v-25.74c0-3.41,2.79-6.2,6.21-6.2h3.47c3.41,0,6.21,2.79,6.21,6.2Z"/>
  <path class="cls-2" d="m370.71,302.5v5.25c0,6.6-5.4,12-12,12h-92.46c-6.6,0-12-5.4-12-12v-5.71h2.92c3.42,0,6.21-2.79,6.21-6.2v-25.74c0-3.42-2.79-6.21-6.21-6.21h-2.92v-4.79c0-6.6,5.4-12,12-12h92.46c6.6,0,12,5.4,12,12v5.25h-1.73c-3.42,0-6.21,2.79-6.21,6.2v25.74c0,3.42,2.79,6.21,6.21,6.21h1.73Zm-32.84-19.08c0-14.02-11.36-25.39-25.39-25.39s-25.39,11.37-25.39,25.39,11.37,25.4,25.39,25.4,25.39-11.37,25.39-25.4Z"/>
  <path class="cls-1" d="m277.22,319.75h72.9c0,2.46-1.01,4.71-2.64,6.33-1.62,1.63-3.86,2.64-6.33,2.64h-54.96c-4.93,0-8.97-4.04-8.97-8.97Z"/>
  <path class="cls-1" d="m349.22,245.98c0,.38-.02.76-.07,1.12h-72.76c-.05-.36-.07-.74-.07-1.12,0-2.47,1.01-4.71,2.64-6.33,1.62-1.63,3.86-2.64,6.33-2.64h54.96c4.93,0,8.97,4.04,8.97,8.97Z"/>
  <path class="cls-3" d="m312.57,266.45c9.83,0,17.8,7.97,17.8,17.8s-7.97,17.79-17.8,17.79-17.79-7.97-17.79-17.79,7.96-17.8,17.79-17.8Z"/>
  <path class="cls-1" d="m263.38,270.1v25.74c0,3.41-2.79,6.2-6.21,6.2h-3.47c-3.42,0-6.21-2.79-6.21-6.2v-25.74c0-3.42,2.79-6.21,6.21-6.21h3.47c3.42,0,6.21,2.79,6.21,6.21Z"/>
  <path d="m190.41,61.46c35,0,63.38,4.62,63.38,10.33s-28.38,10.33-63.38,10.33c-23.95,0-44.79-2.17-55.57-5.36v-9.95c10.78-3.19,31.62-5.35,55.57-5.35Z"/>
  <path class="cls-2" d="m162.24,134.8c0,1.68-.45,3.25-1.24,4.61-.25.46-.56.89-.89,1.3-1.33,1.62-3.19,2.78-5.31,3.21-.16.03-.32.06-.48.08-.45.08-.92.11-1.39.11h-52.38c-.44,0-.88-.03-1.3-.09-4.51-.64-8.01-4.54-8.01-9.22,0-2.56,1.05-4.89,2.74-6.57,1.39-1.4,3.23-2.36,5.27-2.64.42-.07.86-.1,1.3-.1h52.38c.47,0,.94.04,1.39.11,4.47.67,7.92,4.55,7.92,9.2Z"/>
  <path class="cls-1" d="m154.32,177.96v9.21s-6.01,13.01-29.49,13.01-25.3-12.53-25.3-12.53l-.28-43.63c.42.06.86.09,1.3.09h52.38c.47,0,.94-.03,1.39-.11v33.96Z"/>
  <path class="cls-1" d="m154.32,109.93v15.67c-.45-.07-.92-.11-1.39-.11h-52.38c-.44,0-.88.03-1.3.1v-15.66c0-8.99,7.34-16.34,16.33-16.34h3.06v-34.7c0-4.45,3.65-8.1,8.1-8.1,2.22,0,4.25.91,5.72,2.38s2.38,3.5,2.38,5.72v34.7h3.15c8.98,0,16.33,7.35,16.33,16.34Z"/>
  <path d="m118.64,66.65v10.27c-10.93,3.11-31.47,5.2-55,5.2C28.63,82.12.25,77.49.25,71.79s28.38-10.33,63.39-10.33c23.53,0,44.07,2.09,55,5.19Z"/>
</svg>