<?xml version="1.0" encoding="UTF-8"?>
<svg id="Layer_1" data-name="Layer 1" xmlns="http://www.w3.org/2000/svg" viewBox="0 0 628.14 503.99">
  <defs>
    <style>
      .cls-1 {
        fill: #026b4e;
      }

      .cls-2 {
        fill: #6ab590;
      }

      .cls-3 {
        fill: #e2c8b7;
      }

      .cls-4 {
        fill: #1f4a23;
      }

      .cls-5 {
        fill: #262728;
      }

      .cls-6 {
        fill: #754d25;
      }

      .cls-7 {
        fill: none;
        stroke: #010101;
        stroke-miterlimit: 10;
      }
    </style>
  </defs>
  <path class="cls-7" d="m241.26,349.34c-14.44,13.13-47.73,18.71-66.95,14.44-11.81-2.63-36.46-13.17-43.83-25.62"/>
  <path class="cls-3" d="m38.07,53.03c-3.78,1.89-7.56,3.78-11.33,5.67-2.93-5.7-5.86-11.39-8.79-17.09,0,0-13.48-20.42-16.26-24.8C-.41,13.53-.34,10.44.74,10.09c.46-.15,1.29.58,1.37.65.72.66.88,1.42,1.2,2.3,0,0,.48,1.34,1.52,3.04,1,1.62,2.56,3.3,3.04,3.04.16-.09.26-.42,0-1.52-.61-2.3-1.3-4.11-1.83-5.36,0,0-2.52-5.89-2.13-7.98.12-.62.48-.89.48-.89.22-.16.48-.2.68-.2.2.09.52.24.89.48,1.71,1.15,2.08,2.86,3.39,6.43,1.46,3.98,2.16,5.01,2.99,5.06.08,0,.43.02.68-.2.77-.68-.17-2.82-2.23-7.51-.12-.27-2.01-4.59-2.3-5.26,0-.29,0-1.83.74-2.12.23-.09.52-.06.91.15,1.77.96,5.89,12.37,5.89,12.37.24.27.57.54.89.48.66-.12.87-1.55.95-2.12.08-.55.18-1.63-.2-3.32,0,0-2.02-4.41-1.96-4.89.03-.27.18-.47.21-.52,0,0,.27-.36.75-.47.65-.15,1.27.35,1.5.54,1.97,1.64,3.11,8,3.11,8,0,0,2.76,11.82,4.33,12.09s5.01-5.68,5.01-5.68c.04-.08.42-.82,1.2-.91.37-.05.76.07,1.02.27.71.57.48,1.96.2,3.32-.51,2.45-.77,3.68-1.37,5.08-1.1,2.6-.79,5.16-.15,10.29,1.03,8.34,4.86,15.41,6.56,18.3Z"/>
  <g>
    <path class="cls-1" d="m361.77,146.22c4.27,2.35,6.56,8.59,4.84,13.43-.54,1.55-1.39,2.65-1.97,3.28-1.82,1.63-4.79,4.2-8.53,7.22-45.05,36.36-74.44,32.95-103.05,62.35-6.75,6.94-16.88,17.37-22.32,34.13-10.92,33.75,3.71,65.83,10.5,82.7,12.98,32.25,24.98,81.47,18.69,154.4H101.95c-6.33-17.7-13.6-45.93-10.34-79.58,2.3-23.67,10.49-47.74,18.38-59.07,5.46-7.82,9.66-11.25,20.5-26.92,13.28-19.22,15.41-26.2,16.25-29.52,1.1-4.28,3.48-15.86-1.97-34.79-7.39-25.7-21.32-43.41-35.44-56.45-17.07-15.75-53.82-53.82-63.01-77.45-9.19-23.63-23.63-69.57-23.63-86.64l13.13-7.88s27.57,66.95,44.63,84.01c17.07,17.07,28.88,31.51,40.69,38.07,1.1.62,2.14.74,3.11.43h0s-7.05,8.76-10.99,11.38c-3.94,2.63-2.63,11.81,3.94,5.25,4.11-4.11,10.28-13.35,14.31-18.73,2.42-3.23,4.07-5.05,4.07-3.58,0,3.94-11.81,23.63-17.07,26.25s2.63,9.19,2.63,9.19c0,0,.66,1.1,1.97,3.28,1.96,3.35,6.68,10.99,12.47,15.86,1.47,1.23,3.29,2.49,5.66,2.56,1.67.05,3.61-.59,5.92-2.56,5.49-4.7,13.36-13.89,13.36-13.89-4.32,10.67-8.2,16.07-11.16,19.03-.51.53-1.56,1.54-1.56,2.9l14.03,9.57s3.18,1.75,6.18,1.75c1.5,0,2.95-.43,3.95-1.75,2.99-3.94,10.87-27.57,10.87-27.57-2.13,17.29-3.58,25.58-4.59,28.22-.05.14-.32.83-.13,1.61.74,3.15,7.9,5.26,9.98,2.98.37-.39.64-1,.66-1.97,1.1-5.91,2.19-11.81,3.28-17.72,0,0,.05,19.69,2.65,19.69s13.1-2.63,13.1-2.63c0,0,6.56-1.31,5.25-6.56s-6.56-27.57-6.56-27.57l10.5,24.94s.89,2.68,2.68,2.89c.49.05.92-.09,1.26-.26,1.77-.87,18.3-10.86,15.75-18.38-.38-1.14-2.74-6.77-3.94-9.19-.05-.11-.22-.45-.11-.56.56-.59,6.67,4.5,6.67,4.5,0,0,.7.7,1.58.58.54-.08.89-.42,1.05-.58,1.51-1.48,1.19-5.32,1.97-9.85.09-.51.26-1.46,0-2.63-.3-1.37-1.02-2.26-1.31-2.63-1.47-1.89-2.32-4.2-3.61-6.24-1.35-2.15-2.86-6.38-3.61-15.42,0,0,7.88,18.38,11.81,19.69s-1.31-13.13-1.31-13.13c0,0,2.63,0,23.63-5.25,21-5.25,56.45-17.07,56.45-17.07,4.5-1.86,9.56-3.86,15.1-5.91,4.91-1.8,9.32-3.31,15.1-3.28,3.6.03,4.95.63,5.66,1.01Z"/>
    <path class="cls-5" d="m245.85,176.72s5.25,14.44,1.31,13.13-11.81-19.69-11.81-19.69c.75,9.04,2.26,13.27,3.61,15.42,1.29,2.03,2.14,4.35,3.61,6.24.29.37,1.01,1.26,1.31,2.63.26,1.17.09,2.11,0,2.63-.77,4.53-.46,8.36-1.97,9.85-.16.16-.51.5-1.05.58-.88.12-1.58-.58-1.58-.58,0,0-6.1-5.09-6.67-4.5-.12.12.05.46.11.56,1.19,2.42,3.56,8.05,3.94,9.19,2.55,7.52-13.98,17.51-15.75,18.38-.34.17-.77.32-1.26.26-1.79-.21-2.68-2.89-2.68-2.89l-10.5-24.94s5.25,22.32,6.56,27.57-5.25,6.56-5.25,6.56c0,0-10.5,2.63-13.1,2.63s-2.65-19.69-2.65-19.69c-1.09,5.91-2.18,11.81-3.28,17.72-.01.97-.29,1.58-.66,1.97-2.07,2.28-9.24.17-9.98-2.98-.18-.79.08-1.47.13-1.61,1.01-2.64,2.47-10.93,4.59-28.22,0,0-7.88,23.63-10.87,27.57-1,1.31-2.45,1.75-3.95,1.75-3.01,0-6.18-1.75-6.18-1.75l-14.03-9.57c0-1.37,1.05-2.38,1.56-2.9,2.95-2.97,6.84-8.36,11.16-19.03,0,0-7.88,9.19-13.36,13.89-2.31,1.97-4.25,2.61-5.92,2.56-2.36-.07-4.19-1.33-5.66-2.56-5.79-4.87-10.51-12.51-12.47-15.86-1.31-2.18-1.97-3.28-1.97-3.28,0,0-7.88-6.56-2.63-9.19s17.07-22.32,17.07-26.25c0-1.47-1.65.35-4.07,3.58l-3.6-1.18c6.6-10.36,8.98-40.47,8.98-40.47,0,0,1.31-76.14,48.57-77.45s55.13,49.88,55.13,49.88c0,0-2.63,59.28,0,69.68s5.25,10.4,5.25,10.4Z"/>
    <path class="cls-5" d="m127.91,164.68l3.6,1.18c-4.03,5.38-10.2,14.62-14.31,18.73-6.56,6.56-7.88-2.63-3.94-5.25,3.94-2.63,10.99-11.37,10.99-11.37h0c1.35-.41,2.56-1.58,3.66-3.29Z"/>
  </g>
  <path class="cls-3" d="m568.78,112.4c3.94,3.5,7.88,7,11.81,10.5,5.37-5.91,10.75-11.82,16.12-17.74,0,0,22.85-20.23,27.62-24.6,4.77-4.37,4.82-9.55,1.45-7.45-3.37,2.1-10.76,9.03-10.76,9.03.65-.98,10.58-15.88,10.7-17.42.06-.79-.29-1.22-.29-1.22-.22-.27-.51-.4-.76-.47-.27.04-.71.12-1.22.29-2.43.83-3.44,2.78-6.17,6.64-3.05,4.32-4.23,5.34-5.24,5.13-.1-.02-.52-.11-.76-.47-.7-1.07,1.12-3.34,5.12-8.33.23-.28,3.91-4.88,4.48-5.59.1-.35.6-2.2-.2-2.79-.24-.18-.61-.25-1.14-.12-2.44.58-11.11,12.99-11.11,12.99-.37.23-.94.5-1.22.29-.39-.29-.05-1.34.17-1.98,1.57-4.5,4.65-7.57,4.82-9.55.17-1.98,0,0,0,0,.08.41-.11-.85-.29-1.22-.02-.04-.28-.55-.76-.81-.73-.39-1.64.01-1.98.17-2.91,1.34-6.34,8.62-6.34,8.62,0,0-7.15,13.34-9.13,13.17-1.98-.17-4.19-8.46-4.19-8.46,0,0-2.4-2.89-3.5.61-2.15,6.8-3.42,20.84-3.42,20.84-.42,4.94-3.11,11.9-13.82,19.92Z"/>
  <path class="cls-2" d="m147.7,287.8s-14.96,15.16-8.29,38.68c6.67,23.52,62.46,16.3,65.74,15.65s53.82-19.69,66.95-40.69l27.55,36.73,22.33,39.4s5.25,10.5,7.88,27.57c0,0,32.72,10.5,74.77,0,42.06-10.5,47.31-31.51,47.31-31.51l-32.82-72.2-24.94-51.2s130.61-42.66,135.21-45.94-2.63,2.63,11.81-13.13c14.44-15.75,42.01-66.95,42.01-66.95l-15.75-14.44c-15.65,18.39-29.66,34.44-42.01,48.57-3.52,4.02-8.59,9.7-17.07,13.13-8.29,3.35-14.7,2.47-28.88,1.31-27.2-2.22-19.38-.28-43.32-2.63-16.68-1.63-19.39-2.47-36.76-3.94-22.16-1.88-28.19-1.41-34.13,0-9.16,2.17-13.31,5.41-26.25,13.13-34.59,20.63-41.7,19.4-65.64,36.76-9.06,6.57-16,12.52-20.35,16.41-12.25,14-24.5,28-36.76,42.01,0,0-21,22.32-34.13,26.25-9.17,2.75-13.86,5.5-18.53,4.67-3.03-.54-5.13-2.4-6.41-3.36-6.31-4.73-8.67-11.24-9.54-14.29Z"/>
  <path class="cls-6" d="m289.3,166.93s-18.88-11.21-21.51-25.65c-2.63-14.44-3.94-40.76,0-55.17,0,0-9.19-6.53-9.19-10.47s3.94-11.81,10.5-10.5,4.85-5.85,4.85-5.85c0,0-2.22-12.53,1.72-15.15s3.94-2.63,17.07,3.94c0,0,0-10.5,5.25-10.5s16.52-2.63,24.01,7.88c0,0,2.24-6.56,7.49-5.25s18.38,6.56,18.38,22.32c0,0,7.88-3.94,6.56,2.63-1.31,6.56-2.63,7.88-2.63,7.88,0,0,10.5-1.31,10.5,5.25s-6.56,13.13-6.56,13.13c0,0,0,27.57-5.25,35.44s-7.88,19.69-14.44,23.63-46.75,16.46-46.75,16.46Z"/>
  <path class="cls-3" d="m264.9,113.19c-.16.52-7.98-4.46-8.66,0s1.47,21.44,4.33,24.11,6.8,3.98,6.8,3.98"/>
  <path class="cls-3" d="m354.8,111.32s7.74,1.08,5.12,10.27c-2.63,9.19-6.67,15.25-14.5,15.5"/>
  <path class="cls-4" d="m329.86,405.13c-14.51,73.13-18.09,98.17-16.24,98.6.04,0,.07,0,3.02,0h69.55c2.22-7.93,4.45-15.85,6.67-23.78.05,7.93.09,15.85.14,23.78h65.02c1.39-68.07-.1-96.16-2.14-107.79-.15-.88-3.94-22.32-3.94-22.32-.97,2.36-2.59,5.69-5.25,9.19-4.67,6.15-10.54,10.18-19.69,14.44-16.64,7.75-31.14,10.23-32.82,10.5-25.49,4.18-48.71.92-64.32-2.63Z"/>
</svg>