<?xml version="1.0" encoding="UTF-8"?>
<svg id="Layer_2" data-name="Layer 2" xmlns="http://www.w3.org/2000/svg" viewBox="0 0 76.39 45.41">
  <defs>
    <style>
      .cls-1 {
        stroke-width: .4px;
      }

      .cls-1, .cls-2, .cls-3, .cls-4, .cls-5 {
        stroke-miterlimit: 10;
      }

      .cls-1, .cls-2, .cls-4, .cls-5 {
        stroke: #f37986;
      }

      .cls-1, .cls-4, .cls-5 {
        fill: none;
      }

      .cls-6, .cls-3 {
        fill: #f7a6af;
      }

      .cls-2 {
        fill: #f37986;
      }

      .cls-2, .cls-3, .cls-5 {
        stroke-width: .25px;
      }

      .cls-3 {
        stroke: #f7a6af;
      }

      .cls-4 {
        stroke-width: .3px;
      }
    </style>
  </defs>
  <g id="gris_krop" data-name="gris krop">
    <path class="cls-6" d="m1.61,22.24c0,.07.74.2.94.23.62.1.59.05.77.11.43.14.58.44,1.12,1.06.42.49.63.73.89.94.75.6,1.65.68,2.24.73,1.12.1,1.56-.18,2.14.21.33.22.47.5.58.68.69,1.15,1.96,1.77,3.28,2.41,2.07,1.01,2.36.36,3.89,1.14,2.75,1.41,3.78,4.53,3.91,4.94.21.67.37,1.86.7,4.23.17,1.27.27,2.21.27,2.21,0,0,.02.23.14,1.36,0,0,0,0,0,0,0,0,.23.18.41.25.14.05.26.05,1.01-.11.21-.04.31-.06.4-.08.95-.22,1.49.08,1.96-.13.48-.21.51-.8.8-1.72.42-1.37,1.07-2.45,1.45-2.98.2-.27,1.39-1.92,3.37-2.25,1.07-.18,1.98.09,2.92.37.97.29,1.28.54,2.09.88,2.2.93,4.26.89,5.45.87,1.01-.02,2.1-.04,3.44-.47.91-.29,1.15-.73,1.8-.66.88.09.91.82,2.32,1.47.66.3.83.23,1.78.68.61.29.93.44,1.29.76.65.58.92,1.27,1.06,1.61.14.35.3.77.36,1.36.05.49-.02.69.15.83.21.19.44-.03,1.37-.03.17,0,.6.01.89,0,.14,0,.29-.01.47-.03.04,0,.06,0,.07,0,.56-.15,0-2.14.56-3.61.38-1,.98-1.07,2.84-2.49.29-.22,2.57-1.98,4.23-4.39.44-.64,1.4-2.14,1.98-4.07,1.14-3.79.19-7.14-.34-8.93-.41-1.37-2.27-7.08-7.97-10.83-4.19-2.76-8.44-3.12-10.44-3.29-2.45-.21-5.08-.02-5.44,0-.52.04-2.34.19-4.64.63-2.07.4-1.88.52-3.68.82-.92.15-1.8.53-2.72.66,0,0-1.53.21-1.51.47,0,.02.02.05.04.14.01.05.03.12.03.2,0,.1-.03.18-.03.21.03.41-.12,1.01-.25,1.37,0,0,0,0,0,0,0,0,.07-.31.07-.32.04-.18.54-3.64-1.68-5.43-.53-.43-1.02-.6-1.7-.85-1.08-.38-1.78-.37-3.69-.48-2.17-.13-3.26-.19-4.02-.37-2-.47-2.66-.81-3-1.11-.77-.66-.93-1.31-1.23-1.24-.45.11-.55,1.81-.22,3.27.23,1.01.63,1.73.78,2,1.82,3.07,4.79,5.65,4.76,5.68,0,0-.28-.24-.71-.56-.39-.28-.72-.46-.77-.5-.93-.5-2.71.4-4.81,1.49-.65.34-.97.5-1.37.73-.83.48-1.22.78-2.04,1.14-.07.03-.45.2-.77.31-1.37.42-2.5.13-3.15.07-2.39-.22-5.17.68-5.15.87.01.12,1.07-.19,1.72.4.34.31.46.77.32,2.95-.22,3.45-.63,3.98-1.03,4.12-.3.1-.68.02-.69.07Z"/>
    <path class="cls-6" d="m5.21,2.89c-.56.2-.43,1.88-.35,2.92.11,1.47.47,2.52.63,2.94.28.75.56,1.25.82,1.72,1.11,1.99,2.1,2.69,2.37,2.88.53.36.79.4.91.41.69.07,1.12-.4,2.01-1.02.15-.11.91-.48,2.4-1.25,1.89-.98,2.09-1.06,2.39-1.13,1.3-.31,2.07.03,2.18-.27.19-.49-1.8-1.81-2.32-2.46-.04-.05-.22-.28-.5-.56-.05-.06-.11-.1-.19-.18-.26-.24-.94-.84-1.99-1.32-.31-.14-.82-.37-1.53-.51-.93-.18-1.15,0-2.13-.07-.39-.03-1.6-.12-2.77-.76-1.26-.69-1.55-1.49-1.95-1.35Z"/>
    <path class="cls-3" d="m1.02,15.07c-.14.09-.5.34-.75,1.06-.19.54-.16.91-.07,2.31.13,1.93.27,2.3.5,2.69.18.3.48.81,1.06.96.42.11.79-.01.92-.06.87-.34,1.16-1.49,1.35-2.24.29-1.2.71-4.12-.56-4.78-.51-.26-1.35-.19-1.58-.17-.32.03-.59.05-.86.22Z"/>
  </g>
  <g id="gris_detaljer" data-name="gris detaljer">
    <path class="cls-1" d="m5.14,2.59c-.24,1-.45,2.45-.19,4.14.63,4.05,3.48,6.45,4.32,7.12"/>
    <path class="cls-1" d="m20.42,11.39c-1.24-.94-3.58-2.89-5.08-5.58-.42-.75-.95-1.77-1.05-3.12-.09-1.11.11-2.46.45-2.5.19-.02.32.38.6.8.4.59,1.14,1.26,2.67,1.67"/>
    <path class="cls-5" d="m18.61,9.97c-.45.03-1.11.11-1.86.34-.58.18-1.08.43-2.04.92-.89.46-1.79.91-2.68,1.37-1.7.88-1.99,1.01-2.44,1.15-.88.28-1.64.36-2.13.39"/>
    <path class="cls-5" d="m.43,20.6c.16.83.71,1.43,1.33,1.5.49.05.87-.24.95-.3.55-.42.66-1.11.75-1.69.04-.27.05-.49.06-.94.01-.5,0-.9-.03-1.32-.09-1.38-.13-2.07-.34-2.39-.09-.14-.51-.77-1.2-.78-.47,0-.82.28-.93.39"/>
    <path class="cls-4" d="m30,9.97c.13-.62.25-1.6,0-2.74-.15-.66-.44-2.01-1.62-2.99-.79-.65-1.61-.83-2.43-1-1.26-.27-2.33-.19-3-.09"/>
    <ellipse class="cls-1" cx="2" cy="18.71" rx=".03" ry=".39"/>
    <ellipse class="cls-1" cx=".69" cy="18.64" rx=".01" ry=".4"/>
    <path class="cls-1" d="m45.68,22.22c-.45,1.24-.97,3.1-1.02,5.42-.01.71-.03,1.5.14,2.52.6,3.46,2.66,5.55,3.83,6.74.7.7,1.38,1.23,2.3,1.53.46.15.85.21,1.11.23"/>
    <path class="cls-2" d="m22.62,42.58c-.34,1.97-.28,2.45-.14,2.5.17.05.6-.53,1.36-1.56.3-.4.38-.54.54-.55.64-.07,1.13,1.78,1.52,1.71.2-.03.36-.58.36-2.23"/>
    <path class="cls-2" d="m54.33,43.13c.01.29,0,.71-.14,1.17-.15.49-.35.71-.29.77.13.12,1.27-.55,1.56-1.33.02-.06.05-.16.14-.2.25-.1.69.4,1.04.82.51.6.69.97.79.94.09-.04,0-.4-.07-1.03-.04-.48-.04-.88-.03-1.15"/>
    <path class="cls-4" d="m54.38,43.3c.01-.66-.08-1.2-.16-1.59-.09-.42-.2-.89-.51-1.44-.14-.24-.37-.65-.83-1.04-.36-.31-.72-.49-.97-.59"/>
    <path class="cls-1" d="m74.39,25.59c-.36.19-.47.24-.47.23-.01-.03,1.53-.5,2.06-1.66.36-.79.24-1.85-.32-2.55-.4-.5-.9-.68-1.49-.89-.23-.08-1.06-.36-2.25-.29-.85.05-2.13.13-2.97,1.06-.49.54-.9,1.44-.6,1.8.24.29.87.16,1.17.05.64-.24.93-.82,1.07-1.09.09-.18.33-.68.28-1.35-.02-.19-.09-1.17-.88-1.69-.56-.37-1.17-.31-1.62-.26-.97.11-1.58.85-1.74.7-.04-.04-.05-.13.03-.31"/>
    <path class="cls-5" d="m4.98,2.4c.39.5,1.08,1.23,2.14,1.8.36.2,1.14.57,2.2.73,1.03.16,1.47-.02,2.2.01.83.04,1.99.35,3.38,1.57"/>
  </g>
</svg>