<?xml version="1.0" encoding="UTF-8"?>
<svg id="Layer_2" data-name="Layer 2" xmlns="http://www.w3.org/2000/svg" viewBox="0 0 46.96 27.97">
  <defs>
    <style>
      .cls-1 {
        stroke-width: .4px;
      }

      .cls-1, .cls-2, .cls-3, .cls-4, .cls-5 {
        stroke-miterlimit: 10;
      }

      .cls-1, .cls-2, .cls-4, .cls-5 {
        stroke: #f37986;
      }

      .cls-1, .cls-4, .cls-5 {
        fill: none;
      }

      .cls-6, .cls-3 {
        fill: #f7a6af;
      }

      .cls-2 {
        fill: #f37986;
      }

      .cls-2, .cls-3, .cls-5 {
        stroke-width: .25px;
      }

      .cls-3 {
        stroke: #f7a6af;
      }

      .cls-4 {
        stroke-width: .3px;
      }
    </style>
  </defs>
  <g id="gris_krop" data-name="gris krop">
    <path class="cls-6" d="m1.03,13.71s.45.12.58.14c.38.06.36.03.47.07.26.09.36.27.68.65.26.3.39.45.55.58.46.36,1.01.42,1.37.45.68.06.95-.11,1.31.13.2.14.29.31.36.42.42.7,1.2,1.08,2.01,1.48,1.27.62,1.45.22,2.38.7,1.68.86,2.32,2.78,2.4,3.03.13.41.23,1.14.43,2.59.11.78.17,1.35.17,1.35s.01.14.08.84c0,0,0,0,0,0,0,0,.14.11.25.15.08.03.16.03.62-.06.13-.03.19-.04.25-.05.58-.13.92.05,1.2-.08.29-.13.32-.49.49-1.05.26-.84.65-1.5.89-1.83.12-.17.85-1.18,2.07-1.38.66-.11,1.22.06,1.79.23.6.18.78.33,1.28.54,1.35.57,2.61.55,3.34.53.62-.01,1.29-.02,2.11-.29.75-.24.71-.39,1.1-.41.69-.02.87.44,2.52,1.32.35.18.54.25.79.47.23.2.75.64.83,1.25.04.29.12.58.13.88,0,.07,0,.14.05.2.11.13.29,0,.78-.01.25,0,.44.02.84-.02.03,0,.04,0,.04,0,.34-.09,0-1.31.35-2.22.23-.62.6-.66,1.74-1.53.18-.14,1.57-1.22,2.59-2.69.27-.39.86-1.31,1.22-2.5.7-2.32.12-4.37-.21-5.48-.25-.84-1.39-4.34-4.89-6.64-2.57-1.69-5.17-1.91-6.4-2.02-1.5-.13-3.11-.01-3.34,0-.32.02-1.43.11-2.85.38-1.27.24-1.15.32-2.26.5-.56.09-1.1.34-1.67.4-.2.02-.63.06-.78.33-.04.06-.02.07-.06.3-.08.45-.22.83-.22.83,0,0,.04-.19.04-.2.02-.11.33-2.23-1.03-3.33-.33-.26-.62-.37-1.04-.52-.66-.23-1.09-.23-2.26-.3-1.33-.08-2-.12-2.46-.23-.8-.19-1.29-.3-1.84-.68-.43-.29-.61-.55-.79-.47-.31.13-.22,1.09-.09,1.71.12.6.36,1.02.48,1.22,1.11,1.88,2.94,3.46,2.92,3.48,0,0-.17-.15-.44-.34,0,0-.25-.18-.47-.3-.46-.25-1.36.35-2.88,1.1-.14.07.03-.01-2.15.96-.17.08-.29.13-.47.19-.84.26-1.53.08-1.93.04-1.46-.14-3.17.42-3.16.53,0,.07.66-.11,1.05.25.21.19.28.47.19,1.81-.14,2.12-.39,2.44-.63,2.53-.18.06-.42.01-.42.04Z"/>
    <path class="cls-6" d="m3.37,1.97c-.31.13-.22,1-.16,1.61.05.46.11,1.02.31,1.67.14.45.3.79.41,1.01.51,1.02,1.07,1.54,1.61,2.02.13.12.24.21.4.24.39.08.69-.25,1.23-.62.09-.07.56-.29,1.47-.77.77-.4,1.16-.6,1.47-.69.68-.2,1.02-.13,1.07-.32.06-.22-.33-.4-1.15-1.35-.29-.33-.28-.33-.42-.45-.16-.15-.57-.51-1.22-.81-.19-.09-.5-.23-.94-.31-.57-.11-.71,0-1.3-.04-.27-.02-.99-.07-1.7-.46-.68-.38-.85-.8-1.07-.71Z"/>
    <path class="cls-3" d="m.67,9.32c-.09.05-.31.21-.46.65-.12.33-.1.56-.04,1.42.07,1.09.09,1.36.31,1.65.08.1.24.32.54.4.05.01.26.07.44,0,.2-.07.37-.31.52-1.4.14-.98.21-1.49.02-1.97-.08-.2-.32-.82-.79-.89-.25-.04-.47.1-.53.14Z"/>
  </g>
  <g id="gris_detaljer" data-name="gris detaljer">
    <path class="cls-1" d="m3.2,1.67c-.15.61-.28,1.5-.11,2.54.39,2.48,2.13,3.96,2.65,4.36"/>
    <path class="cls-1" d="m12.57,7.06c-.76-.57-2.2-1.77-3.12-3.42-.26-.46-.58-1.09-.64-1.91-.05-.68.07-1.51.27-1.53.12-.01.2.24.37.49.24.36.7.77,1.64,1.02"/>
    <path class="cls-5" d="m11.46,6.19c-.28.02-.68.07-1.14.21-.36.11-.66.26-1.25.57-.55.28-1.1.56-1.64.84-1.04.54-1.22.62-1.5.71-.54.17-1,.22-1.31.24"/>
    <path class="cls-5" d="m.31,12.71c.1.51.44.88.82.92.3.03.53-.15.59-.19.33-.26.4-.68.46-1.03.03-.17.03-.3.04-.57,0-.31,0-.55-.02-.81-.05-.84-.08-1.27-.21-1.46-.05-.08-.31-.47-.73-.48-.29,0-.5.17-.57.24"/>
    <path class="cls-4" d="m18.44,6.19c.08-.38.15-.98,0-1.68-.09-.41-.27-1.23-.99-1.83-.48-.4-.99-.51-1.49-.62-.77-.17-1.43-.12-1.84-.06"/>
    <ellipse class="cls-1" cx="1.27" cy="11.55" rx=".02" ry=".24"/>
    <ellipse class="cls-1" cx=".47" cy="11.5" rx="0" ry=".25"/>
    <path class="cls-1" d="m28.06,13.7c-.27.76-.6,1.9-.62,3.32,0,.44-.02.92.09,1.55.37,2.12,1.63,3.4,2.35,4.13.43.43.85.75,1.41.94.28.09.52.13.68.14"/>
    <path class="cls-2" d="m13.92,26.18c-.21,1.21-.17,1.5-.09,1.53.11.03.37-.33.83-.96.18-.25.23-.33.33-.34.39-.04.69,1.09.93,1.05.12-.02.22-.35.22-1.37"/>
    <path class="cls-2" d="m33.35,26.52c0,.18,0,.43-.09.72-.09.3-.22.44-.18.47.08.07.78-.34.95-.82.01-.03.03-.1.09-.12.15-.06.42.25.64.5.31.37.43.6.48.57.06-.02,0-.25-.04-.63-.03-.3-.02-.54-.02-.7"/>
    <path class="cls-4" d="m33.39,26.62c0-.4-.05-.74-.1-.97-.06-.26-.12-.55-.31-.88-.08-.15-.23-.4-.51-.64-.22-.19-.44-.3-.6-.36"/>
    <path class="cls-1" d="m45.66,15.76c-.22.12-.29.14-.29.14,0-.02.94-.3,1.26-1.02.22-.48.15-1.13-.2-1.56-.24-.31-.55-.42-.91-.55-.14-.05-.65-.22-1.38-.18-.52.03-1.3.08-1.82.65-.3.33-.55.88-.37,1.1.15.18.53.1.72.03.39-.15.57-.5.65-.67.05-.11.2-.41.17-.83,0-.12-.06-.72-.54-1.04-.35-.23-.72-.19-1-.16-.59.07-.97.52-1.07.43-.02-.02-.03-.08.02-.19"/>
    <path class="cls-5" d="m3.1,1.55c.24.3.66.76,1.31,1.1.22.12.7.35,1.35.45.63.1.9-.01,1.35,0,.51.02,1.22.21,2.07.96"/>
  </g>
</svg>