<?xml version="1.0" encoding="UTF-8"?>
<svg id="Layer_2" data-name="Layer 2" xmlns="http://www.w3.org/2000/svg" viewBox="0 0 61.85 45.65">
  <defs>
    <style>
      .cls-1 {
        fill: #faa53f;
      }

      .cls-2, .cls-3 {
        fill: #fcb249;
      }

      .cls-3, .cls-4, .cls-5 {
        stroke-miterlimit: 10;
      }

      .cls-3, .cls-5 {
        stroke: #faa53f;
        stroke-width: .5px;
      }

      .cls-4 {
        stroke: #8a4716;
        stroke-width: .75px;
      }

      .cls-4, .cls-5 {
        fill: none;
      }
    </style>
  </defs>
  <g id="halmballe_krop" data-name="halmballe krop">
    <path class="cls-3" d="m25.06,20.73c-.24.49-.09.98,0,1.44.16.8-.02.6.06,2.74.17,4.36,1.03,7.76,1.11,9.43,0,.09.02.39.13.76.07.2.25.78.72,1.17.39.32.63.23,1.66.54.53.16.56.21,1.21.45.91.33,1.23.36,2.33.67,1.72.49,1.53.58,2.69.85,1.1.26,1.12.15,2.29.45.96.24,1.19.38,1.75.4.9.04,1.59-.26,1.93-.4.39-.17,10.62-4.52,12.75-5.3.95-.35,1.8-.94,2.76-1.27.13-.05.41-.14.65-.39.38-.39.41-.88.49-1.39.11-.65.4-1.25.58-1.89.77-2.7,1.16-4.05,1.3-4.71.52-2.43.08-1.72.58-4.26.18-.93.37-1.67-.04-2.29-.36-.54-.99-.69-1.71-.85-4.34-1.01-3.37-.89-4.49-1.08-2.66-.44-2.73-.24-4.4-.49-.26-.04-.85-.13-1.62-.02-.35.05-.59.13-.81.2-.87.25-1.33.27-2.38.45-1.24.21-1.48.33-2.74.58-1.67.34-2.04.29-4.44.63-1.78.25-3.07.5-4.26.72-3.53.66-1.9.52-4.8,1.12,0,0-.94.19-2.38.94-.42.22-.76.43-.94.81Z"/>
  </g>
  <g id="halmballe_detaljer" data-name="halmballe detaljer">
    <path class="cls-5" d="m25.05,20.71c.52.09,1.27.24,2.18.46.85.21,1.45.39,2.46.69,4.18,1.27,4.1,1.28,4.94,1.48.55.13,1.28.29,2.54.61.59.15,1.07.28,1.39.36.25,1.55.46,3.18.62,4.91.33,3.7.34,7.12.16,10.16"/>
    <path class="cls-5" d="m59.93,17.88c-1.04.34-2.64.86-4.62,1.46-3.39,1.03-3.92,1.11-6.91,2.04-2.74.85-3.11,1.04-5.49,1.74-1.82.54-3.34.94-4.36,1.2"/>
    <path class="cls-1" d="m26.73,32.63c-.07.09-.35-.11-.98-.31-.74-.24-.91-.14-1.29-.39-.12-.08-.65-.42-.59-.85.03-.2.18-.36.33-.44.28-.14.58,0,.92.16.44.2.71.49.85.64.11.11.18.21.26.31.27.36.58.77.49.87Z"/>
    <path class="cls-2" d="m26.38,30.77c-.07.04-.2-.22-.99-1.17-.44-.53-.68-.79-.59-.97.06-.12.25-.17.4-.15.24.03.4.27.62.74.14.29.71,1.48.56,1.56Z"/>
    <path class="cls-1" d="m29.42,19.42c-.11.16-.89-.19-1.43-.6-.23-.17-.58-.44-.52-.65.05-.16.33-.24.56-.21.22.04.36.19.5.35.61.7.92,1.06.88,1.1Z"/>
    <path class="cls-2" d="m29.25,17.48c-.14.05-.22.34-.15.54.09.25.36.23.85.63.2.16.27.26.31.24.08-.05-.08-.5-.34-.87-.07-.09-.45-.63-.68-.54Z"/>
    <path class="cls-1" d="m48.14,15.48c-.07,0-.13-.37-.12-.68,0-.2.02-.61.22-.68.1-.03.25.03.29.13.05.11-.04.23-.13.41-.24.47-.19.81-.27.81Z"/>
    <path class="cls-2" d="m48.73,15.37c-.07-.08.18-.4.29-.54.28-.35.55-.51.8-.65.22-.12.32-.15.43-.12.12.03.24.14.25.27,0,.04,0,.14-.28.35-.23.18-.44.27-.53.31-.77.34-.91.44-.96.38Z"/>
    <path class="cls-1" d="m59.3,19.5c-.04-.08.26-.3.74-.65.71-.52.48-.26.96-.62.16-.12.32-.24.51-.22,0,0,.23.03.31.21.08.17-.02.36-.07.45-.04.08-.14.21-.4.36-.22.13-.48.2-1,.33-.1.03-.28.07-.51.11-.35.06-.52.09-.54.04Z"/>
    <path class="cls-2" d="m59.39,20.64s.07.04.74.02c.15,0-.02,0,.7-.04.25-.01.39-.02.52-.12.04-.03.16-.12.17-.26,0-.22-.3-.37-.34-.38-.21-.1-.42-.05-.54-.03-.16.03-.28.09-.41.16-.14.08-.89.49-.82.65Z"/>
    <path class="cls-2" d="m58.04,25.74c-.03.13.36.33.52.41.04.02.72.36.87.18.08-.1-.02-.3-.03-.31-.06-.12-.16-.19-.32-.25-.41-.16-.99-.18-1.03-.03Z"/>
    <path class="cls-1" d="m56.4,31.75c0,.08.35.13.69.18.5.07.72.03.85,0,.13-.03.43-.11.44-.25.01-.12-.19-.24-.35-.29-.22-.07-.37,0-.78.12-.62.18-.86.19-.85.25Z"/>
    <path class="cls-1" d="m37.98,37.24c-.01.12-.57.25-1.09.1-.26-.07-.43-.19-.62-.32-.22-.15-.62-.44-.56-.63.04-.14.32-.19.49-.19.24,0,.42.12.77.35.32.22.32.27.6.44.29.17.42.19.41.25Z"/>
    <path class="cls-1" d="m36.81,38.62c.05.08-.22.35-.47.59-.43.41-.63.46-.72.47-.19.03-.43,0-.46-.1-.01-.05.03-.1.34-.34.28-.21.42-.32.53-.38.27-.15.72-.33.78-.24Z"/>
  </g>
  <g id="halmballe_reb" data-name="halmballe reb">
    <path class="cls-4" d="m44.14,37.82c-.06.31-.07.38-.07.39.04.01,1.27-4.41,1.81-9.14,0,0,.15-1.33.12-3.98-.02-1.89-.14-2.3-.35-2.68-.4-.7-1.11-1.01-3.47-2.01-.54-.23-1.93-.79-4.53-1.38-3.07-.69-5.82-.96-5.83-.91,0,0,.09.04.54.12"/>
    <path class="cls-4" d="m54.18,33.53c-.02.26-.03.39-.02.4.03,0,.34-2.12.91-6.39.02-.44.04-1.14.09-2,.06-1.24.09-2.48.15-3.72.08-1.78.12-2.12-.18-2.49-.33-.42-.79-.5-2.22-.75-3.58-.63-3.23-.58-3.55-.63-2.24-.31-3.37-.46-3.77-.51-3.06-.36-5.91-.58-5.91-.55,0,0,.1.03.54.08"/>
  </g>
  <g id="Layer_24" data-name="Layer 24">
    <path class="cls-3" d="m1.19,26.5c-.24.49-.09.98,0,1.44.16.8-.02.6.06,2.74.17,4.36,1.03,7.76,1.11,9.43,0,.09.02.39.13.76.07.2.25.78.72,1.17.39.32.63.23,1.66.54.53.16.56.21,1.21.45.91.33,1.23.36,2.33.67,1.72.49,1.53.58,2.69.85,1.1.26,1.12.15,2.29.45.96.24,1.19.38,1.75.4.9.04,1.59-.26,1.93-.4.39-.17,10.62-4.52,12.75-5.3.95-.35,1.8-.94,2.76-1.27.13-.05.41-.14.65-.39.38-.39.41-.88.49-1.39.11-.65.4-1.25.58-1.89.77-2.7,1.16-4.05,1.3-4.71.52-2.43.08-1.72.58-4.26.18-.93.37-1.67-.04-2.29-.36-.54-.99-.69-1.71-.85-4.34-1.01-3.37-.89-4.49-1.08-2.66-.44-2.73-.24-4.4-.49-.26-.04-.85-.13-1.62-.02-.35.05-.59.13-.81.2-.87.25-1.33.27-2.38.45-1.24.21-1.48.33-2.74.58-1.67.34-2.04.29-4.44.63-1.78.25-3.07.5-4.26.72-3.53.66-1.9.52-4.8,1.12,0,0-.94.19-2.38.94-.42.22-.76.43-.94.81Z"/>
    <path class="cls-5" d="m1.19,26.48c.52.09,1.27.24,2.18.46.85.21,1.45.39,2.46.69,4.18,1.27,4.1,1.28,4.94,1.48.55.13,1.28.29,2.54.61.59.15,1.07.28,1.39.36.25,1.55.46,3.18.62,4.91.33,3.7.34,7.12.16,10.16"/>
    <path class="cls-5" d="m36.06,23.66c-1.04.34-2.64.86-4.62,1.46-3.39,1.03-3.92,1.11-6.91,2.04-2.74.85-3.11,1.04-5.49,1.74-1.82.54-3.34.94-4.36,1.2"/>
    <path class="cls-1" d="m2.86,38.4c-.07.09-.35-.11-.98-.31-.74-.24-.91-.14-1.29-.39-.12-.08-.65-.42-.59-.85.03-.2.18-.36.33-.44.28-.14.58,0,.92.16.44.2.71.49.85.64.11.11.18.21.26.31.27.36.58.77.49.87Z"/>
    <path class="cls-2" d="m2.52,36.54c-.07.04-.2-.22-.99-1.17-.44-.53-.68-.79-.59-.97.06-.12.25-.17.4-.15.24.03.4.27.62.74.14.29.71,1.48.56,1.56Z"/>
    <path class="cls-1" d="m5.55,25.2c-.11.16-.89-.19-1.43-.6-.23-.17-.58-.44-.52-.65.05-.16.33-.24.56-.21.22.04.36.19.5.35.61.7.92,1.06.88,1.1Z"/>
    <path class="cls-2" d="m5.39,23.26c-.14.05-.22.34-.15.54.09.25.36.23.85.63.2.16.27.26.31.24.08-.05-.08-.5-.34-.87-.07-.09-.45-.63-.68-.54Z"/>
    <path class="cls-1" d="m24.28,21.25c-.07,0-.13-.37-.12-.68,0-.2.02-.61.22-.68.1-.03.25.03.29.13.05.11-.04.23-.13.41-.24.47-.19.81-.27.81Z"/>
    <path class="cls-2" d="m24.87,21.15c-.07-.08.18-.4.29-.54.28-.35.55-.51.8-.65.22-.12.32-.15.43-.12.12.03.24.14.25.27,0,.04,0,.14-.28.35-.23.18-.44.27-.53.31-.77.34-.91.44-.96.38Z"/>
    <path class="cls-1" d="m35.43,25.28c-.04-.08.26-.3.74-.65.71-.52.48-.26.96-.62.16-.12.32-.24.51-.22,0,0,.23.03.31.21.08.17-.02.36-.07.45-.04.08-.14.21-.4.36-.22.13-.48.2-1,.33-.1.03-.28.07-.51.11-.35.06-.52.09-.54.04Z"/>
    <path class="cls-2" d="m35.53,26.42s.07.04.74.02c.15,0-.02,0,.7-.04.25-.01.39-.02.52-.12.04-.03.16-.12.17-.26,0-.22-.3-.37-.34-.38-.21-.1-.42-.05-.54-.03-.16.03-.28.09-.41.16-.14.08-.89.49-.82.65Z"/>
    <path class="cls-2" d="m34.17,31.52c-.03.13.36.33.52.41.04.02.72.36.87.18.08-.1-.02-.3-.03-.31-.06-.12-.16-.19-.32-.25-.41-.16-.99-.18-1.03-.03Z"/>
    <path class="cls-1" d="m32.54,37.52c0,.08.35.13.69.18.5.07.72.03.85,0,.13-.03.43-.11.44-.25.01-.12-.19-.24-.35-.29-.22-.07-.37,0-.78.12-.62.18-.86.19-.85.25Z"/>
    <path class="cls-1" d="m14.12,43.01c-.01.12-.57.25-1.09.1-.26-.07-.43-.19-.62-.32-.22-.15-.62-.44-.56-.63.04-.14.32-.19.49-.19.24,0,.42.12.77.35.32.22.32.27.6.44.29.17.42.19.41.25Z"/>
    <path class="cls-1" d="m12.94,44.4c.05.08-.22.35-.47.59-.43.41-.63.46-.72.47-.19.03-.43,0-.46-.1-.01-.05.03-.1.34-.34.28-.21.42-.32.53-.38.27-.15.72-.33.78-.24Z"/>
    <path class="cls-4" d="m20.27,43.6c-.06.31-.07.38-.07.39.04.01,1.27-4.41,1.81-9.14,0,0,.15-1.33.12-3.98-.02-1.89-.14-2.3-.35-2.68-.4-.7-1.11-1.01-3.47-2.01-.54-.23-1.93-.79-4.53-1.38-3.07-.69-5.82-.96-5.83-.91,0,0,.09.04.54.12"/>
    <path class="cls-4" d="m30.31,39.3c-.02.26-.03.39-.02.4.03,0,.34-2.12.91-6.39.02-.44.04-1.14.09-2,.06-1.24.09-2.48.15-3.72.08-1.78.12-2.12-.18-2.49-.33-.42-.79-.5-2.22-.75-3.58-.63-3.23-.58-3.55-.63-2.24-.31-3.37-.46-3.77-.51-3.06-.36-5.91-.58-5.91-.55,0,0,.1.03.54.08"/>
    <path class="cls-3" d="m11.88,6.67c-.24.49-.09.98,0,1.44.16.8-.02.6.06,2.74.17,4.36,1.03,7.76,1.11,9.43,0,.09.02.39.13.76.07.2.25.78.72,1.17.39.32.63.23,1.66.54.53.16.56.21,1.21.45.91.33,1.23.36,2.33.67,1.72.49,1.53.58,2.69.85,1.1.26,1.12.15,2.29.45.96.24,1.19.38,1.75.4.9.04,1.59-.26,1.93-.4.39-.17,10.62-4.52,12.75-5.3.95-.35,1.8-.94,2.76-1.27.13-.05.41-.14.65-.39.38-.39.41-.88.49-1.39.11-.65.4-1.25.58-1.89.77-2.7,1.16-4.05,1.3-4.71.52-2.43.08-1.72.58-4.26.18-.93.37-1.67-.04-2.29-.36-.54-.99-.69-1.71-.85-4.34-1.01-3.37-.89-4.49-1.08-2.66-.44-2.73-.24-4.4-.49-.26-.04-.85-.13-1.62-.02-.35.05-.59.13-.81.2-.87.25-1.33.27-2.38.45-1.24.21-1.48.33-2.74.58-1.67.34-2.04.29-4.44.63-1.78.25-3.07.5-4.26.72-3.53.66-1.9.52-4.8,1.12,0,0-.94.19-2.38.94-.42.22-.76.43-.94.81Z"/>
    <path class="cls-5" d="m11.88,6.65c.52.09,1.27.24,2.18.46.85.21,1.45.39,2.46.69,4.18,1.27,4.1,1.28,4.94,1.48.55.13,1.28.29,2.54.61.59.15,1.07.28,1.39.36.25,1.55.46,3.18.62,4.91.33,3.7.34,7.12.16,10.16"/>
    <path class="cls-5" d="m46.75,3.83c-1.04.34-2.64.86-4.62,1.46-3.39,1.03-3.92,1.11-6.91,2.04-2.74.85-3.11,1.04-5.49,1.74-1.82.54-3.34.94-4.36,1.2"/>
    <path class="cls-1" d="m13.55,18.57c-.07.09-.35-.11-.98-.31-.74-.24-.91-.14-1.29-.39-.12-.08-.65-.42-.59-.85.03-.2.18-.36.33-.44.28-.14.58,0,.92.16.44.2.71.49.85.64.11.11.18.21.26.31.27.36.58.77.49.87Z"/>
    <path class="cls-2" d="m13.21,16.71c-.07.04-.2-.22-.99-1.17-.44-.53-.68-.79-.59-.97.06-.12.25-.17.4-.15.24.03.4.27.62.74.14.29.71,1.48.56,1.56Z"/>
    <path class="cls-1" d="m16.24,5.37c-.11.16-.89-.19-1.43-.6-.23-.17-.58-.44-.52-.65.05-.16.33-.24.56-.21.22.04.36.19.5.35.61.7.92,1.06.88,1.1Z"/>
    <path class="cls-2" d="m16.08,3.43c-.14.05-.22.34-.15.54.09.25.36.23.85.63.2.16.27.26.31.24.08-.05-.08-.5-.34-.87-.07-.09-.45-.63-.68-.54Z"/>
    <path class="cls-1" d="m34.97,1.42c-.07,0-.13-.37-.12-.68,0-.2.02-.61.22-.68.1-.03.25.03.29.13.05.11-.04.23-.13.41-.24.47-.19.81-.27.81Z"/>
    <path class="cls-2" d="m35.56,1.32c-.07-.08.18-.4.29-.54.28-.35.55-.51.8-.65.22-.12.32-.15.43-.12.12.03.24.14.25.27,0,.04,0,.14-.28.35-.23.18-.44.27-.53.31-.77.34-.91.44-.96.38Z"/>
    <path class="cls-1" d="m46.12,5.45c-.04-.08.26-.3.74-.65.71-.52.48-.26.96-.62.16-.12.32-.24.51-.22,0,0,.23.03.31.21.08.17-.02.36-.07.45-.04.08-.14.21-.4.36-.22.13-.48.2-1,.33-.1.03-.28.07-.51.11-.35.06-.52.09-.54.04Z"/>
    <path class="cls-2" d="m46.22,6.59s.07.04.74.02c.15,0-.02,0,.7-.04.25-.01.39-.02.52-.12.04-.03.16-.12.17-.26,0-.22-.3-.37-.34-.38-.21-.1-.42-.05-.54-.03-.16.03-.28.09-.41.16-.14.08-.89.49-.82.65Z"/>
    <path class="cls-2" d="m44.86,11.69c-.03.13.36.33.52.41.04.02.72.36.87.18.08-.1-.02-.3-.03-.31-.06-.12-.16-.19-.32-.25-.41-.16-.99-.18-1.03-.03Z"/>
    <path class="cls-1" d="m43.23,17.69c0,.08.35.13.69.18.5.07.72.03.85,0,.13-.03.43-.11.44-.25.01-.12-.19-.24-.35-.29-.22-.07-.37,0-.78.12-.62.18-.86.19-.85.25Z"/>
    <path class="cls-1" d="m24.81,23.19c-.01.12-.57.25-1.09.1-.26-.07-.43-.19-.62-.32-.22-.15-.62-.44-.56-.63.04-.14.32-.19.49-.19.24,0,.42.12.77.35.32.22.32.27.6.44.29.17.42.19.41.25Z"/>
    <path class="cls-1" d="m23.63,24.57c.05.08-.22.35-.47.59-.43.41-.63.46-.72.47-.19.03-.43,0-.46-.1-.01-.05.03-.1.34-.34.28-.21.42-.32.53-.38.27-.15.72-.33.78-.24Z"/>
    <path class="cls-4" d="m30.96,23.77c-.06.31-.07.38-.07.39.04.01,1.27-4.41,1.81-9.14,0,0,.15-1.33.12-3.98-.02-1.89-.14-2.3-.35-2.68-.4-.7-1.11-1.01-3.47-2.01-.54-.23-1.93-.79-4.53-1.38-3.07-.69-5.82-.96-5.83-.91,0,0,.09.04.54.12"/>
    <path class="cls-4" d="m41,19.48c-.02.26-.03.39-.02.4.03,0,.34-2.12.91-6.39.02-.44.04-1.14.09-2,.06-1.24.09-2.48.15-3.72.08-1.78.12-2.12-.18-2.49-.33-.42-.79-.5-2.22-.75-3.58-.63-3.23-.58-3.55-.63-2.24-.31-3.37-.46-3.77-.51-3.06-.36-5.91-.58-5.91-.55,0,0,.1.03.54.08"/>
  </g>
</svg>