<?xml version="1.0" encoding="UTF-8"?>
<svg id="Layer_2" data-name="Layer 2" xmlns="http://www.w3.org/2000/svg" viewBox="0 0 22.89 19.32">
  <defs>
    <style>
      .cls-1 {
        fill: #f47521;
      }

      .cls-2 {
        fill: #ed1c24;
      }

      .cls-3 {
        fill: #f1f2f2;
      }
    </style>
  </defs>
  <g id="høne_krop" data-name="høne krop">
    <path class="cls-3" d="m15.74,2.92c.31-.11.43.12.91.11.48,0,.59-.24,1.07-.19.15.01.29.05.5.14,1.62.68,2.55,2.12,2.55,2.12.18.28.29.5.4.72.21.44.56,1.24.75,2.31.08.47.24,1.4.06,2.61-.16,1.13-.55,2.02-.87,2.62-.18.32-.71,1.25-1.72,2.15-1.19,1.06-2.36,1.49-2.75,1.63-.57.19-1.58.53-2.9.4-.86-.08-1.48-.32-2.04-.55-.37-.15-1.83-.76-3.28-2.18-1.02-1-1.55-1.92-1.74-2.29-.43-.81-.54-1.32-.57-1.47-.07-.35-.23-1.27.21-2.2.1-.22.26-.55.62-.83.28-.22.55-.31.86-.42.43-.14.78-.19,1.09-.23,1.82-.25,2.27-.29,2.97-.52.17-.06.31-.1.5-.19.31-.14,1.41-.62,2.08-1.68.14-.22.14-.28.82-1.53.13-.23.25-.45.5-.54Z"/>
  </g>
  <g id="høne_detaljer" data-name="høne detaljer">
    <path class="cls-2" d="m15.55,1.12s-.06-.02-.15-.06c-.06-.03-.13-.04-.26-.07-.11-.03-.22-.05-.38-.07-.06,0-.15-.02-.27-.02-.13,0-.25,0-.36.02-.18.04-.41.17-.53.41-.12.24-.07.48-.04.57.02.07.1.32.55.6.53.33,1.07.39,1.68.46.33.04.6.04.75.05.38,0,.58.01.77-.03.56-.11.93-.47,1.04-.59.06-.07.55-.6.56-1.34,0-.33-.09-.5-.12-.54-.22-.36-.65-.4-.7-.41-.09,0-.25-.02-.43.06-.19.1-.29.27-.31.32-.12.23-.08.43-.15.44-.04,0-.07-.07-.21-.22-.04-.04-.08-.08-.16-.14-.13-.11-.24-.22-.38-.3-.19-.13-.35-.23-.56-.24-.08,0-.29,0-.43.13-.2.19-.17.59-.03.81.05.08.13.17.11.18Z"/>
    <path class="cls-2" d="m21.19,5.86s-.22.23-.36.4c-.17.21-.28.39-.35.5-.13.22-.32.56-.43,1.04-.03.12-.09.43-.05.8,0,.08.03.26.14.46.05.1.1.17.19.22.18.09.37,0,.4-.02.06-.03.12-.08.24-.28.09-.15.19-.31.27-.58.11-.35.1-.58.14-.58.04,0-.01.36.2.72.14.24.35.38.42.42.08.05.14.09.22.1.19.04.4-.05.52-.19.1-.12.12-.25.13-.35.01-.11.05-.59-.31-1.25,0,0-.23-.43-.81-.98-.23-.22-.43-.35-.47-.38,0,0-.1-.06-.1-.06Z"/>
    <path class="cls-2" d="m14.19,9.05c-.14.03-.53.11-1.34,0-.2-.03-.37-.06-.7-.13-.52-.1-1.04-.15-1.56-.27-.08-.02-.28-.07-.5.01-.08.03-.21.08-.26.18-.16.3.35.84.38.87.22.23.52.4.69.5.22.13.38.2.37.24-.02.06-.34,0-.87.07-.14.02-.23.04-.31.11-.15.16-.08.42-.08.43.06.23.26.36.38.43.68.43,1.37.68,1.35.74-.01.04-.34-.08-.7.07-.11.05-.25.1-.29.22-.08.24.29.54.43.66.16.14.31.22.56.34.54.27.82.4,1.24.53.37.11.61.18.95.17.13,0,.52-.02.95-.21.59-.25.92-.66,1.09-.88.85-1.09.75-2.36.71-2.8-.02-.21-.06-.55-.24-.91-.12-.26-.24-.51-.53-.66-.03-.01-.42-.22-.81-.09-.15.05-.17.11-.43.22,0,0-.22.09-.47.15Z"/>
    <path class="cls-2" d="m6.21,8.87s.06-.03.11-.07c.06-.06.09-.12.1-.14.1-.22.39-.5.44-.55.05-.05.15-.15.27-.22.07-.04.18-.1.22-.12.01,0,.02,0,.02-.01.09-.04.12-.04.13-.06,0-.02-.01-.03-.04-.07-.03-.03-.04-.06-.06-.09-.3-.45-.39-.58-.39-.58s-.35-.51-.84-1.01c-.69-.7-1.41-1.09-1.59-1.19-.34-.18-1.45-.72-2.73-.66-.21.01-.75.06-1.14.35-.26.19-.44.45-.44.45-.03.04-.09.14-.14.26C-.02,5.47,0,5.76,0,6.03c.04.86.05,1.29.23,1.73.05.12.13.28.24.29.08,0,.15-.07.22-.16.11-.13.17-.24.2-.3.09-.18.2-.35.3-.52.18-.32.27-.48.31-.52.18-.24.36-.37.46-.45.07-.05.31-.23.36-.18.03.03-.03.13-.13.34-.07.15-.13.31-.2.47-.23.54-.35,1.04-.4,1.28-.03.14-.07.32-.07.54,0,.14,0,.27.04.45.03.12.07.27.2.4.04.05.18.18.39.2.18.02.32-.05.36-.07.1-.05.2-.13.47-.62.18-.33.2-.41.33-.59.11-.15.33-.41.39-.38.06.03-.06.3-.2.81-.08.3-.12.52-.16.76-.12.64-.19,1.09-.07,1.61.06.25.11.43.28.54.28.18.69,0,.92-.14.3-.2.43-.48.69-1.04.08-.18.27-.63.49-1.03.05-.1.12-.21.23-.32.08-.07.2-.19.34-.26Z"/>
    <path class="cls-1" d="m13.7,16.78s-.13-.04-.21,0c-.02.01-.03.02-.09.1-.07.08-.1.12-.12.15-.11.15-.11.18-.21.32,0,0-.04.05-.11.14-.07.09-.12.15-.18.23-.08.1-.12.14-.15.16-.04.02-.08.03-.27.02-.23,0-.29-.02-.35.03-.06.05-.07.12-.07.13,0,.01-.01.09.03.15.03.04.08.05.09.06.16.05.37.24.46.34.08.09.03.09.22.41.16.27.2.3.25.31.11.01.24-.11.27-.23.03-.13-.06-.27-.07-.3-.04-.07-.1-.12-.12-.22,0,0,0-.04,0-.08,0-.16.18-.27.4-.52.1-.12.17-.21.21-.28.13-.2.16-.29.17-.33.02-.08.02-.15.01-.29,0-.14-.02-.19-.05-.23-.04-.04-.08-.05-.11-.07Z"/>
    <path class="cls-1" d="m19.14,15.7s.01.1.51.36c.22.11.3.14.33.24.03.08-.01.1,0,.33,0,.09.02.18.04.34.02.14.03.17.05.21.03.06.08.17.18.19,0,0,.09.02.14-.03.05-.05.05-.12.05-.2,0,0,0-.26.09-.53.04-.11.06-.19.14-.25.07-.06.15-.09.26-.12.17-.05.21-.02.33-.07.09-.04.17-.07.19-.15.03-.09-.04-.19-.1-.24-.05-.05-.11-.06-.18-.07-.12-.02-.23,0-.37.02-.11.02-.25.05-.25.05h0s-.16-.09-.3-.18c-.13-.08-.2-.12-.22-.13-.26-.16-.27-.22-.35-.21-.09,0-.09.07-.3.25-.18.15-.23.16-.23.21Z"/>
    <path class="cls-1" d="m20.19,3.2c-.06-.02-.13,0-.52.34-.38.33-.44.42-.46.54-.03.16.02.3.03.32.04.12.11.18.19.26.07.07.16.16.31.22.08.03.22.08.38.03.17-.06.25-.21.29-.29.06-.12.07-.22.09-.38.02-.21.04-.42-.05-.67-.06-.15-.12-.32-.26-.36Z"/>
  </g>
</svg>