<?xml version="1.0" encoding="UTF-8"?>
<svg id="Layer_2" data-name="Layer 2" xmlns="http://www.w3.org/2000/svg" viewBox="0 0 78.39 51.58">
  <defs>
    <style>
      .cls-1 {
        fill: #f1f2f2;
      }

      .cls-2 {
        fill: #cc7f57;
      }

      .cls-3, .cls-4, .cls-5 {
        fill: #231f20;
      }

      .cls-6 {
        fill: #f497b6;
        stroke: #f497b6;
      }

      .cls-6, .cls-4 {
        stroke-width: .25px;
      }

      .cls-6, .cls-4, .cls-5 {
        stroke-miterlimit: 10;
      }

      .cls-4, .cls-5 {
        stroke: #231f20;
      }

      .cls-5 {
        stroke-width: .5px;
      }
    </style>
  </defs>
  <g id="horn">
    <path class="cls-2" d="m7.07,6.51c-1.21-1.54-1.87-2.87-2.23-3.74-.29-.71-.63-1.68-.24-2.45C4.74.05,4.86.01,4.9,0c.4-.09.67.8,1.68,1.79.56.55,1.09.9,1.39,1.09.51.32.96.55,1.3.69"/>
    <path class="cls-2" d="m20.21,6.51c1.21-1.54,1.87-2.87,2.23-3.74.29-.71.63-1.68.24-2.45-.14-.27-.26-.31-.3-.32-.4-.09-.67.8-1.68,1.79-.46.45-.81.8-1.39,1.09-.64.32-1.23.4-1.25.67-.01.16.19.31.35.41"/>
  </g>
  <g id="ko_hale" data-name="ko hale">
    <path class="cls-1" d="m61.24,20.08c-.87-2.33-.85-2.89-.68-2.99.28-.16.87.99,2.37,2.08,2.12,1.53,4.38,1.74,5.04,1.79,1.11.08,1.98-.03,2.42-.1.87-.12,1.56-.34,2.94-.78.54-.17.7-.24.87-.36.44-.3.61-.65.87-.6.13.03.25.16.27.28.01.15-.13.26-.5.54-.41.31-.61.46-.66.49-1.65,1.03-2.69,1.4-2.69,1.4-2.26.75-4.35.57-4.82.52-2.41-.29-4.11-1.33-4.93-1.9"/>
    <path class="cls-3" d="m78.04,13.37s-.02.11-.03.19c0,0-.16.81-.62,1.55-.77,1.25-2.07,1.37-2.55,2.71-.09.24-.31.87,0,1.35.29.46.94.61,1.43.5.53-.12.82-.53,1.2-1.08.57-.82.76-1.59.81-1.82.21-.94.1-1.73,0-2.2"/>
  </g>
  <g id="ko_krop" data-name="ko krop">
    <path class="cls-1" d="m6.48,14.24c0-.1-.01-.25-.04-.44-.08-.54-.13-1-.13-1.01-.09-.62-.14-.77-.05-.84.13-.1.36.07.54.12.77.25,2.36-.93,2.97-2.54.65-1.73-.08-3.26.79-3.78.19-.12.36-.12.89-.4.52-.28.8-.43,1.03-.75.28-.4.44-1.02.19-1.34-.2-.25-.6-.2-.6-.23,0-.07,1.36,0,2.68-.02,1.37-.02,1.89-.1,2.68.21.37.14.97.38,1.09.86.1.42-.26.58-.4,1.26-.15.7.03,1.51.48,2.06.06.07.35.42.86.63.6.25.82.03,1.15.19.69.34.37,1.71.63,4.07.02.18.08.71.13,1.43.02.38.04.7.04.92"/>
    <path class="cls-1" d="m27.14,10.75c.38.58,1.03,1.43,2.05,2.2.42.32,1.13.84,2.13,1.18,1.87.63,2.59-.09,4.57.47,1.03.29,1.7.48,2.22,1.09.47.55.58,1.14.92,5.47.08,1.04.15,1.97.85,2.5.48.37,1.06.38,1.22.37.32,0,.98-.1,1.96-1.12,1.23-1.27.93-1.89,2.06-3.21.5-.59,1.21-1.4,2.4-1.71.27-.07,1.18-.3,2.2.09.72.27,1.16.73,1.49,1.08,1.23,1.32.93,2.28,2.13,3.31.32.28.73.65,1.35.78.24.05,1.03.17,2.18-.5,2.67-1.58,3.32-5.19,4.01-5.07.81.14.57,5.24.54,5.96-.1,2.14-.32,3.74-.4,4.18-.73,4.38-1.11,9.01-1.26,10.79-.16,1.95-.3,4.3-.58,9,0,0-.08,1.28-.08,1.28-.69.33-1.19.35-1.53.3-.38-.06-.77-.07-1.14-.16-.08-.02-.27-.07-.48-.02-.19.04-.23.12-.3.11-.27-.02-.37-1.04-.48-1.74-.13-.86-.28-1.71-.67-2.54-.14-.31-.19-.31-1.33-1.81-1.24-1.62-1.3-1.76-1.29-1.95.06-.72.75-.97,2.46-2.59,1.01-.95,1.52-1.45,1.76-2.06.59-1.54-.16-3.03-.2-3.11-.56-1.07-1.68-1.88-2.81-2.15-.79-.19-1.46-.07-1.76-.55-.25-.39.01-.78-.27-1.23-.06-.09-.29-.42-1.08-.61-.94-.22-3.24-.38-4.5,1.08-.83.97-.59,1.95-1.45,2.3-.59.24-1.25,0-1.52-.1-1.04-.38-1.05-1.08-2-1.35-.12-.04-.97-.26-1.59.17-.31.21-.48.53-.74,1.62-.48,1.97-.29,2.4-.78,3.25-.22.39-.6,1.05-1.32,1.25-.64.18-1.3-.1-2.03-.41-.85-.36-.87-.57-1.39-.64-.59-.09-1.4.06-1.86.57-.41.45-.3.93-.3,2.87,0,2.45-.17,2.68-.32,2.8-.81.67-2.52-.49-3.11.24-.14.17-.32.57-.53,1.04-.06.15-.13.3-.21.5-.18.5-.26.89-.3,1.07-.17.81-.26.87-.46,1.74-.39,1.69-.33,2.67-.68,2.73-.1.02-.12-.07-.37-.16-.44-.16-.58,0-1.16-.05-.36-.04-1.03-.18-1.27-.27-.03-.01-.11-.04-.21-.03-.13.02-.17.09-.21.09-.22-.01-.25-2.13-.25-2.19-.03-1.74-.08-2.47-.1-2.78-.05-.71-.07-.49-.14-1.34-.11-1.26-.1-1.94-.36-2.01-.12-.03-.28.08-.42.19-.08.06-.16.09-.19.17-.02.05-.02.08-.02.16,0,.07-.02.15-.06.3-.15.66-.36,1.2-.36,1.2-.22.59-.43.99-.53,1.2-.29.61-.32.93-.64,2.39-.61,2.75-.89,3.37-.99,3.35-.05,0-.03-.16-.17-.3-.16-.16-.4-.16-.53-.17-.38,0-.76-.08-1.15-.1-.87-.04-1.38-.07-1.57-.39-.06-.1-.05-.17-.06-.45-.01-.44-.09-.87-.11-1.31-.05-.94-.12-1.88-.17-2.81-.19-3.37-.29-5.05-.47-5.53-.09-.24-.31-.77-.14-.92.24-.19.82.66,1.87.78.76.09,1.42-.25,2.15-.63.63-.33.95-.49,1.22-.81.76-.91.17-1.75.81-3.35.27-.67.51-1.29,1.12-1.61.97-.51,2.31.04,3.31.46.9.37,1.46.79,2.47.78.48,0,.72,0,.91-.17.73-.63-.55-2.26.24-3.89.33-.69.88-1.06,1.01-1.15,1.12-.73,1.98-.09,2.94-.64,1.03-.59,1.24-2.01,1.35-2.77.06-.38.35-2.65-1.01-4.16-1.44-1.6-2.95-.36-5.17-1.89-2.17-1.49-2.96-4.18-3.31-5.38-.32-1.07-.43-2-.47-2.65"/>
    <path class="cls-1" d="m47.62,44.37s-.27-.53-.06-.81c.23-.29.88-.21,1.21.1.32.3.17.64.58,1.04.06.06.38.37.6.28.17-.07.19-.36.21-.62.06-.67.15-1.38.2-1.63.15-.71.78-1.6,1.53-1.62.86-.03,1.62,1.11,1.6,1.99,0,.29-.1.34-.24.88-.15.59-.17,1.04-.19,1.87-.02.91.05,3.29-.17,3.32-.02,0-.08,0-.18.02-.07.02-.11.05-.13.06-.14.07-.32,0-.39-.03-.29-.1-.74.07-.94.13-.32.09-.89.11-1.97-.2"/>
  </g>
  <g id="yver">
    <path class="cls-6" d="m41.84,42.51c0,.16.47.39.91.61.29.14.44.18.56.36.04.06.1.16.16.68.07.63.02.81.18.96.17.15.41.12.44.12.33-.05.53-.38.65-.59.18-.31.11-.44.28-.55.1-.06.27-.06.59-.05.27,0,.41.01.45.05.26.18.01.65.31,1.01.02.02.22.25.47.23.3-.03.48-.41.54-.53.23-.5.06-.86.28-.99.14-.08.2.07.52,0,.2-.04.37-.14.57-.05,0,0,.02,0,.03.01.15.09.09.23.27.55.07.11.2.34.47.49.11.06.39.22.59.11.28-.15.24-.77.21-1.21-.05-.65-.19-.79-.07-1.06.13-.29.37-.25.72-.62.33-.34.69-.62.67-1.01,0-.1-.03-.17-.08-.3-.1-.26-.25-.43-.54-.76-.4-.44-.62-.65-.77-.67-.27-.02-.48.19-.65.34-.13.11-.7.37-1.83.88-1.79.8-2.68,1.21-3.2,1.35-1.52.41-2.73.37-2.74.63Z"/>
  </g>
  <g id="ko_pletter" data-name="ko pletter">
    <path class="cls-5" d="m10.91,26.3c-.17.18.33.84.69,1.49.77,1.37.77,2.59,1.08,4.37.42,2.35.03,4.24.87,5.51.08.13.19.24.32.35.98.84,2.28.71,2.47.69,1.23-.14,2.42-1,2.81-2.11.38-1.08-.28-1.68.23-3.04.19-.51.44-1.15,1.01-1.4.77-.33,1.36.36,3.66,1.17,1.75.61,2.32.54,2.73.31.55-.31.78-.88.86-1.09.54-1.38-.52-2.22,0-3.27.41-.83,1.47-1.13,1.87-1.25,1-.28,1.31.09,1.95-.16,1.5-.59,1.63-3.43,1.64-3.66.01-.43.1-2.92-1.56-4.21-1.27-.99-2.25.04-4.05-1.01-1.17-.69-1.87-1.75-2.23-2.29-.55-.84-.43-.98-1.12-2.39-1.16-2.36-2.06-3.11-1.72-3.74.22-.41.63-.15,1.72-.78.78-.46.7-.66,1.8-1.46.87-.62,1.2-.7,1.24-1.04.05-.51-.68-1.02-1.17-1.25-.56-.26-1.12-.3-2.34-.16-2.45.29-2.78.76-3.52.43-1.12-.5-1.28-2.03-1.66-1.93-.35.09-.3,1.42-.28,1.89.02.61.11.82.15.9.22.47.69.9,1.25.99.59.1.84-.26,1.12-.08.31.2.17.74.26,1.75.07.81.19.72.29,1.57.22,1.72-.22,2.41.32,3.06.25.3.44.28.85.52,1.66.97,1.98,3.35,2.01,3.58.25,2.04-.83,3.57-1.35,4.31-1.44,2.05-3.53,2.84-4.6,3.25-1.01.38-2.06.61-2.94.79-1.44.3-1.83.29-2,.28-1.55-.13-2.45-1.11-2.66-.88Z"/>
    <path class="cls-3" d="m10.55,7.34c.03-.34.07-.62.1-.86.05-.37.08-.5.19-.63.13-.16.31-.23.43-.29.25-.1.45-.11.53-.12.62-.1,1.36-1.59.9-2.17-.23-.3-.73-.27-1.74-.22-.57.03-.86.04-1.21.18-.82.32-1.31,1-1.48,1.28-.11.17-.22.39-.52.85-.32.5-.49.76-.62.85-.46.3-1.01-.07-1.87-.32-.07-.02-1.77-.51-3.43,0C1.39,6.04.02,6.49,0,7.15c0,.29.26.37,1.93,1.59.72.52,1.47,1.01,2.17,1.55.29.22.44.34.71.45.68.27,1.19.07,1.37.37.08.13,0,.18.01.63.02.45.02.68.13.78.34.29,1.8-.6,2.8-1.84.65-.8.99-1.61,1.16-2.13"/>
    <path class="cls-3" d="m27.14,10.75c.21.54.66,1.48,1.58,2.35,1.17,1.09,2.43,1.41,2.67,1.47,1.67.4,2.13-.31,4.15,0,1.14.18,2.08.32,2.67,1.04.71.86.21,1.65.44,4.58.22,2.78.76,3.32,1.09,3.55.77.53,1.75.31,1.91.27.43-.1,1.05-.37,2.4-2.24,1.49-2.04,1.48-2.73,2.51-3.33.2-.12,1.17-.67,2.29-.44,1.24.26,1.99,1.34,2.46,2.02.63.9.48,1.17,1.04,1.86.19.24,1.06,1.3,2.4,1.58,1.43.3,2.6-.45,4.2-1.47,1.3-.83,2.08-1.33,2.35-2.29.31-1.1-.28-2.1-.71-2.95-1.4-2.74-4.12-3.85-5.13-4.26-1.42-.58-2.67-.73-5.19-1.04-1.85-.23-3.39-.3-4.48-.33"/>
    <path class="cls-3" d="m29.71,42.45c.45-1.17.55-2.13.55-2.81,0-.95-.18-1.48.13-2.3.13-.35.4-1.09,1.15-1.45.64-.31,1.5-.26,2.09.13.45.29.4.55.81.77.56.3,1.37.21,1.92-.13,1.04-.64,1.31-2.31,1.58-3.92.12-.71.14-1.21.55-1.66.4-.44,1.08-.76,1.71-.64.46.09.56.35,1.24.85.36.27,1.79,1.35,2.39.98.38-.23.05-.81.34-1.62.58-1.59,2.83-2.09,3.58-2.26.79-.18,2.28-.51,2.81.17.21.27.18.58.72,1.71.12.25.18.38.21.43.61.9,1.93.47,3.16,1.07,1.31.64,1.77,2.09,1.79,2.17.41,1.4-.3,2.65-.98,3.84-.77,1.35-2.43,3.5-3.54,3.16-.67-.21-.71-1.2-1.53-1.36-.55-.11-1.03.23-1.32.43-1.35.89-3.04,1.14-4.52,1.79-1.38.61-3.65,1.22-7.52,1.13"/>
    <polyline class="cls-4" points="14.14 51.45 17.83 51.45 17.83 49.55 14.14 48.97"/>
    <polyline class="cls-4" points="52.85 49.14 52.85 51.19 49.69 51.19 49.29 49.14"/>
    <polyline class="cls-4" points="59.2 48.94 59.2 51.19 55.93 51.19 55.57 48.94"/>
  </g>
  <g id="mule">
    <path class="cls-6" d="m3.09,17.9c.42-1.53,1.53-2.42,2.01-2.79.68-.53,1.66-1.07,4.5-1.49,1.38-.2,5.01-.64,9.53.26,1.32.26,2.34.56,3.31,1.34.33.26,1.49,1.19,1.9,2.61.8,2.78-1.78,5.74-3.65,7.11-2.01,1.47-4.08,1.74-5.36,1.9-3.18.4-5.6-.43-6.14-.63-1.4-.51-3.83-1.4-5.25-3.83-.38-.66-1.42-2.43-.86-4.47Z"/>
    <polyline class="cls-4" points="25.03 49.32 25.03 51.45 21.64 51.45 21.64 48.97"/>
  </g>
</svg>