<?xml version="1.0" encoding="UTF-8"?>
<svg id="Layer_2" data-name="Layer 2" xmlns="http://www.w3.org/2000/svg" viewBox="0 0 1122.77 604.89">
  <defs>
    <style>
      .cls-1 {
        fill: #fcffa7;
      }

      .cls-2 {
        fill: #7fa740;
      }

      .cls-3 {
        fill: #9ac864;
      }
    </style>
  </defs>
  <ellipse class="cls-1" cx="967.68" cy="177" rx="57.03" ry="137"/>
  <path class="cls-1" d="m1074.42,120c-15.76-6.03-31.53-12.05-47.29-18.08"/>
  <path class="cls-3" d="m1122.76,173.09c.26-1.56-9.73-4.96-10.63-5.27-15.9-5.36-50.51-10.51-82.02,1.76-67.26,26.18-96.49,122.58-77.04,145.12,7.46,8.65,18.08,11.13,18.08,11.13,12.82,2.99,25.65-2.81,26.72-3.31,0,0,.19-.09.34-.16,11.96-5.74,13.82-22.85,22.78-61.46,11.17-48.14,18.17-64.16,28.86-73.76,7.81-7.01,16.71-10.54,16.71-10.54,4.01-1.59,9.42-3.14,24.3-3.51,19.76-.5,31.62,1.68,31.9,0Z"/>
  <path class="cls-2" d="m819,173.39c-.26-1.56,9.73-4.96,10.63-5.27,15.9-5.36,50.51-10.51,82.02,1.76,67.26,26.18,96.49,122.58,77.04,145.12-7.46,8.65-18.08,11.13-18.08,11.13-12.82,2.99-25.65-2.81-26.72-3.31,0,0-.19-.09-.34-.16-11.96-5.74-13.82-22.85-22.78-61.46-11.17-48.14-18.17-64.16-28.86-73.76-7.81-7.01-16.71-10.54-16.71-10.54-4.01-1.59-9.42-3.14-24.3-3.51-19.76-.5-31.62,1.68-31.9,0Z"/>
  <path class="cls-2" d="m979.5,292.45c-1.19,132.57-2.46,236.08-3.81,311.42-.33-.06-.68-.1-1.05-.1-.43,0-.83.05-1.2.13-2.71-.35-5.61,0-8.38.29-.25-.03-.51-.06-.78-.06-.49,0-.94.06-1.36.17-1.8-75.38-3.69-179.03-5.68-311.86h22.25Z"/>
  <ellipse class="cls-1" cx="693.68" cy="314" rx="57.03" ry="137"/>
  <path class="cls-1" d="m819.42,251c-15.76-6.03-31.53-12.05-47.29-18.08"/>
  <path class="cls-3" d="m848.76,310.09c.26-1.56-9.73-4.96-10.63-5.27-15.9-5.36-50.51-10.51-82.02,1.76-67.26,26.18-96.49,122.58-77.04,145.12,7.46,8.65,18.08,11.13,18.08,11.13,12.82,2.99,25.65-2.81,26.72-3.31,0,0,.19-.09.34-.16,11.96-5.74,13.82-22.85,22.78-61.46,11.17-48.14,18.17-64.16,28.86-73.76,7.81-7.01,16.71-10.54,16.71-10.54,4.01-1.59,9.42-3.14,24.3-3.51,19.76-.5,31.62,1.68,31.9,0Z"/>
  <path class="cls-2" d="m545,310.39c-.26-1.56,9.73-4.96,10.63-5.27,15.9-5.36,50.51-10.51,82.02,1.76,67.26,26.18,96.49,122.58,77.04,145.12-7.46,8.65-18.08,11.13-18.08,11.13-12.82,2.99-25.65-2.81-26.72-3.31,0,0-.19-.09-.34-.16-11.96-5.74-13.82-22.85-22.78-61.46-11.17-48.14-18.17-64.16-28.86-73.76-7.81-7.01-16.71-10.54-16.71-10.54-4.01-1.59-9.42-3.14-24.3-3.51-19.76-.5-31.62,1.68-31.9,0Z"/>
  <path class="cls-2" d="m705.5,429.45c-.59,65.17-1.19,123.32-1.81,174.55h-17.58c-.93-51.24-1.88-109.38-2.86-174.55h22.25Z"/>
  <ellipse class="cls-1" cx="398.68" cy="137" rx="57.03" ry="137"/>
  <path class="cls-1" d="m577.42,147c-15.76-6.03-31.53-12.05-47.29-18.08"/>
  <path class="cls-3" d="m553.76,133.09c.26-1.56-9.73-4.96-10.63-5.27-15.9-5.36-50.51-10.51-82.02,1.76-67.26,26.18-96.49,122.58-77.04,145.12,7.46,8.65,18.08,11.13,18.08,11.13,12.82,2.99,25.65-2.81,26.72-3.31,0,0,.19-.09.34-.16,11.96-5.74,13.82-22.85,22.78-61.46,11.17-48.14,18.17-64.16,28.86-73.76,7.81-7.01,16.71-10.54,16.71-10.54,4.01-1.59,9.42-3.14,24.3-3.51,19.76-.5,31.62,1.68,31.9,0Z"/>
  <path class="cls-2" d="m250,133.39c-.26-1.56,9.73-4.96,10.63-5.27,15.9-5.36,50.51-10.51,82.02,1.76,67.26,26.18,96.49,122.58,77.04,145.12-7.46,8.65-18.08,11.13-18.08,11.13-12.82,2.99-25.65-2.81-26.72-3.31,0,0-.19-.09-.34-.16-11.96-5.74-13.82-22.85-22.78-61.46-11.17-48.14-18.17-64.16-28.86-73.76-7.81-7.01-16.71-10.54-16.71-10.54-4.01-1.59-9.42-3.14-24.3-3.51-19.76-.5-31.62,1.68-31.9,0Z"/>
  <path class="cls-2" d="m410.5,252.45c-1.42,157.91-2.95,274.61-4.59,351.55h-10.98c-2.1-76.95-4.33-193.65-6.69-351.55h22.25Z"/>
  <path class="cls-1" d="m148.68,349c31.49,0,57.03,61.34,57.03,137,0,50.78-11.5,95.1-28.58,118.76-19.05.41-38.35-.35-57.35-.65-16.83-23.82-28.12-67.79-28.12-118.11,0-75.66,25.53-137,57.03-137Z"/>
  <path class="cls-3" d="m128.21,604.27c-1.33-36.68,28.21-104.4,82.91-125.69,31.51-12.26,66.12-7.12,82.02-1.76.9.3,10.89,3.71,10.63,5.27-.28,1.68-12.14-.5-31.9,0-14.88.38-20.29,1.92-24.3,3.51,0,0-8.9,3.53-16.71,10.54-10.69,9.6-17.68,25.61-28.86,73.76-3.27,14.08-5.59,25.29-7.8,34.14-21.72,1.46-44,.7-65.99.24Z"/>
  <path class="cls-2" d="m10.64,477.12c15.9-5.36,50.51-10.51,82.02,1.76,54.81,21.34,84.36,89.29,82.9,125.92-21.99.4-44.28-.69-66.06-.78-2.19-8.8-4.5-19.91-7.72-33.82-11.17-48.14-18.17-64.16-28.86-73.76-7.81-7.01-16.71-10.54-16.71-10.54-4.01-1.59-9.42-3.14-24.3-3.51-19.76-.5-31.62,1.68-31.9,0-.26-1.56,9.73-4.96,10.63-5.27Z"/>
  <path class="cls-2" d="m138.25,601.45h22.25c-.01,1.15-.02,2.28-.03,3.42-7.39-.05-14.79-.21-22.18-.37-.02-1.02-.03-2.03-.05-3.05Z"/>
</svg>