<?xml version="1.0" encoding="UTF-8"?>
<svg id="Layer_1" data-name="Layer 1" xmlns="http://www.w3.org/2000/svg" viewBox="0 0 500.94 456.31">
  <defs>
    <style>
      .cls-1 {
        fill: #664347;
      }
    </style>
  </defs>
  <path class="cls-1" d="m485.96,207.01c-.97-1.31-2.06-2.44-2.85-2.93-1.29-.81-4.89-2.82-6.68-3.81,4.29-2.28,9.14-7.05,12.17-8.26,4.11-1.65,12.34-4.12,12.34-4.12,0,0-7.56-.23-13.24,1.73l.4-4.48,2.24-6.59,3.74-4.11,2.74-6.59-4.49,6.31s-4.73,4.11-5.23,6.58c-.37,1.81-1.53,7.3-2.13,10.1-.76.45-1.44.97-1.98,1.56-4.49,4.94-11.96,6.17-19.06,4.52-7.1-1.64-21.31-6.17-21.31-6.17,0,0,4.56-4.3,8.72-6.9,2.07.21,6.48.72,8.35,1.54,2.49,1.1,5.73,1.65,9.72.83,3.99-.83,7.73,1.65,7.73,1.65,0,0-2.49-3.29-4.98-3.29s-6.98,1.1-8.72-.28c-1.74-1.37-8.47-2.19-8.47-2.19,4.49-1.24,16.82-9.47,16.82-9.47,0,0-16.82,7-20.19,8.64-3.37,1.65-9.35,6.99-12.71,6.99-2.26,0-9.24,2.41-13.58,4-.05-.91-.22-2.14-.76-3.31-.99-2.2-2.24-6.04-2.49-9.88-.25-3.84,3.49-10.15,4.73-13.72,1.25-3.57,1-6.31,1-6.31,0,0-3.99,10.7-5.98,14.26-1.21,2.16-1.49,4.82-1.43,7.07-.11,0-.23,0-.38.06-1.5.62-2.43-.2-4.11-1.03-1.68-.82-2.62-1.44-2.62-1.44,0,0-.38-3.29-1.31-5.55s-.19-2.47,0-3.29c.11-.5.57-1.52.91-2.25-.5.98-1.41,2.52-2.41,3.07-1.49.82,1.12,7,1.12,7,0,0-3.18.83-3.93.41-.75-.41-3.55-.41-4.67-2.26-1.12-1.85-5.23-2.27-7.48-2.68-2.24-.41-4.67-3.91-4.67-3.91,0,0,.37,3.7,1.68,4.32,1.31.62,5.8,1.24,6.91,2.06,1.12.82,3.18,2.26,1.68,2.26s-4.67,2.06-5.8,2.06-5.23-.2-5.23-.2l5.23,1.85s5.61-2.47,6.54-2.67c.93-.21,5.98.82,6.54,1.65.56.82,3.55,1.65,5.42,1.65,1.74,0,6.22,1.6,6.84,1.82.04.25.09.51.14.71.5,2.2,1.25,9.33.88,9.6-4.86,3.29-15.7,10.28-18.32,11.93-2.62,1.65-8.22,4.94-11.59,0-3.36-4.94-11.59-20.16-14.58-22.63s-4.86-7,1.87-11.11c6.73-4.11,13.08-13.58,18.69-14.4,5.61-.82,22.43-5.76,29.16-5.35,6.73.41,12.71.41,17.19,4.52,4.49,4.12,20.93,7,28.03,5.76,7.1-1.23,14.58-2.88,14.58-2.88,0,0-13.46.82-19.07,1.24,0,0,9.22-11.53,12.21-13.17,2.99-1.65,11.46-4.11,11.46-4.11,0,0-8.97,1.37-12.46,3.57-3.49,2.19-7.48,5.76-10.22,9.6-1.41,1.99-2.82,3.23-3.86,3.97-6.35-.83-16.37-4.68-19.56-6.44-3.74-2.06-2.62-4.11,1.5-7.41.85-.68,1.82-1.64,2.84-2.75.83-.03,6.83-.27,9.61-.27,2.99,0,8.47.55,8.47.55,0,0-4.49-2.19-7.97-1.65-2.45.38-5.76-.85-7.51-1.62,3.26-3.93,6.66-8.57,8.76-11.13,3.36-4.12,4.86-7.82,4.86-7.82,0,0-8.22,8.23-12.33,13.99s-11.96,12.76-16.82,13.58c-4.86.82-16.82-1.65-22.43-.82-5.6.82-10.84,3.7-13.83,4.11s2.99-9.46,4.86-14.81c.27-.78.54-1.65.79-2.56,3.15-3.18,8.43-8.59,9.8-10.48,2-2.74,10.22-8.78,13.21-8.78s7.98-6.31,7.98-6.31c0,0-7.48,5.21-10.22,5.76-1.11.22-2.99,1.3-4.84,2.51.14-.94.36-2.62.36-4.42,0-2.74,0-5.49,1-8.5,1-3.02,2.74-7.68,2.74-7.68,0,0-4.49,6.86-5.48,10.15-.8,2.65-.8,9.39-.76,11.91-1.81,1.27-3.22,2.35-3.22,2.35,0,0-5.98,5.76-6.73,6.59-.38.42-1.64,1.67-2.81,2.81,1.01-4.65,1.82-10.07,2.31-15.16.75-7.82,1.5-15.23,4.11-21.4,2.62-6.17,4.11-16.46,4.11-16.46,0,0-6.73,17.28-7.48,19.34-.07.2-.17.54-.28.93-.71-.34-1.58-.67-2.46-.79-1.99-.28-6.73-3.02-6.73-3.02,0,0-3.49-7.41-3.74-6.59-.25.82,2.24,7.96,3.99,9.33,1.37,1.07,6.23,2.98,8.29,3.76-1.16,5.1-2.8,13.91-2.8,18.19,0,5.47-3.37,16.49-6.91,23.58-1.44-.96-6.19-4.17-8.29-6.03-2.49-2.19-1.75-6.86-2.49-8.5-.75-1.65-5.73-2.47-5.73-2.47,0,0,3.99,2.47,3.74,4.39s1.25,5.76,2.99,7.96c1.74,2.19,9.22,5.76,9.22,5.76-3.74,7-8.22,10.7-14.95,16.46-6.73,5.76-10.84,9.46-14.95,10.28,0,0-34.77-2.06-51.96-23.46-5.98-7.45-13.5-17.19-20.72-28.76-1.83-4.99-1-5.62,1.91-4.7,3.49,1.1,9.47-1.1,12.96-2.74,3.49-1.65,19.94-3.84,24.42-4.94,4.48-1.1,7.48,4.39,7.98,9.33.07.71.33,1.37.71,1.99-.31.69-3.7,8.26-5.46,9.4-1.31.29-4.29.94-5.16,1.1-1.12.21-5.61,2.27-6.17,3.91-.56,1.65-4.86,0-5.42.21-.56.2-3.55-3.91-3.55-3.91,0,0,1.31,3.91,1.87,4.73.56.83,3.36,1.24,3.92,1.24s3.55-.41,3.55-.41l.75,3.29-1.87,3.7,1.49,4.94s-.37-3.7-.19-4.73c.19-1.03,1.68-3.08,1.87-3.91.19-.82,0-1.85-.38-3.09-.37-1.24,2.25-3.09,3.74-3.5.93-.26,3.19-.35,4.74-.39.33,2.8,1.59,6.58,2.55,7.11,1.5.82,4.49,9.88,4.49,9.88l.5,9.33s.75-9.05.5-10.15c-.25-1.1-1.49-4.66-1.49-4.66l3.99.27s4.49,1.1,4.73,4.11c.25,3.02,4.49,6.59,4.49,6.59l6.98,3.57s-4.49-3.84-5.98-4.94c-1.5-1.1-3.49-5.49-4.49-7.41s-4.24-3.84-5.73-3.84-4.24-1.92-5.24-3.29c-1-1.38-2.24-4.94-1-6.59,1.25-1.65,3.99-6.04,3.74-6.86-.14-.47.78-1.67,1.6-2.6,3.04,1.86,7.04,3.06,9.36,3.7,1.5.41,4.18,1.21,6.96,2.05l1.26,7.56s4.23,6.31,7.22,6.59c2.99.27,8.73,4.66,8.73,4.66l1.74,5.21s-.75-7.41-2.24-8.23c-1.5-.82-7.73-3.02-9.47-4.11-1.75-1.1-2.74-3.84-3.49-5.49-.75-1.65,2.49-3.02,3.24-3.02s3.99.83,5.98,1.65c2,.82,4.49,1.65,4.49,1.65,0,0-5.73-4.12-7.23-4.66-1.35-.49-4.72-3.22-5.37-3.75l-.11-.1c0-.09.5-4.94.25-6.03-.25-1.1,3.98-1.38,5.73-1.92,1.74-.55,6.98-1.37,6.98-1.37,0,0-6.73-.82-7.73-.82s-6.48,3.02-6.48,3.02c0,0-2.74-2.2-3.74-2.75s-1.5-4.94-1.5-4.94l-.99,4.39,2.24,2.74,2.99,3.29-1.42,1.7c-1.22-.69-2.44-1.15-3.56-1.15-4.98,0-13.46-4.39-13.46-4.39,0,0-2.49-11.52,0-12.07s13.46-1.65,16.45-4.94c2.99-3.29,10.96-8.78,13.95-8.78s12.46,2.2,12.46,2.2l-11.89-7.09c.07-1.67.18-4.2.18-5.25,0-1.65,6.23-3.02,7.23-3.29,1-.28,3.74-1.93,3.74-1.93,0,0-5.23,1.1-6.73,1.38-1.5.27-6.98.83-6.98.83l-.95,10.15c-3.92,2.28-10.03,6.14-12.01,9.05-2.99,4.39-19.94,3.84-25.92,2.74s-16.45,4.39-20.43,4.39,3.99-7.68,7.47-10.42c2.51-1.98,7.86-3.11,12.34-5.63l-.13.14s6.23,2.19,6.98,2.74c.75.55,6.73,3.84,6.98,4.94.25,1.1,5.73-3.01,7.23-4.39,1.5-1.37,7.23-4.94,7.23-4.94l-3.24-6.04-.25,4.66-4.98,5.21s-4.74,2.19-6.48,1.64c-1.74-.55-6.98-4.66-7.73-4.39-.5.18-.67-2.12-.72-3.64,4.45-5.61,10.19-16.65,10.19-16.65,0,0-3.37,4.37-7.45,8.95l-.52-3.46.75-4.66s-3.24,3.84-2.99,5.76c.17,1.31.79,3.09,1.18,4.12-3.83,4.14-7.95,8.01-10.4,8.5-2.65.53-6.81,2.99-11.09,6.12-.96-1.2-3.51-4.37-4.12-5.03-.75-.82,0-7.68,0-9.05s-2.24-6.31-2.24-6.31c0,0,.75,4.94.5,6.58-.14.89-.12,3.8-.08,6.28-1.16-1.82-3.44-5.26-4.53-5.87-1.49-.82-1.87-7.82-1.87-9.46s-6.73-11.52-6.73-11.52c0,0,3.74,7,4.11,9.47.37,2.47.75,7.81,1.12,10.28.38,2.47,3.36,4.94,4.49,7,1.12,2.05,3.49,3.98,3.49,3.98l4.07,5.01c-3.97,3.07-7.86,6.57-10.55,9.53-5.62,6.19-18.73.26-25.66-8.22-7.61-17.08-12.95-36.58-12.47-57.62.29-12.42.67-24.98,1.13-37.28h-39.37c.13,10.58.06,22-.38,34.53-1.11,8.69-9.28,35.87-31.56,41.56-6.25,1.59-16.43,4.82-23.32,3.01-2.57-.68-7.58-2.1-12.84-3.63.37-3,.98-10.31-1.68-12.27-3.36-2.47-6.73-13.99-6.73-13.99l5.61-3.29-7.85,2.88s2.24,7.41,2.62,8.64c.38,1.23-1.12,2.46-2.62,1.23-1.49-1.23-5.98-6.58-5.98-6.58l3.74,7.82,3.74,2.06h2.62l4.49,4.94-2.12,7.35c-7.44-2.17-14.26-4.19-14.26-4.19h-5.29c-.72-1.1-1.63-8.41-2.75-8.65-1.24-.27-3.74-7.68-3.74-7.68l2.49-6.31-4.24,6.31s1.5,4.12,2.24,5.76c.75,1.64-2.74,2.47-2.74,2.47,0,0-4.15-1.04-5.72-2.21.7.97,1.73,2.48,1.73,2.48,0,0,2.99,1.38,3.74,1.38s4.73-.83,4.73-.83c0,0,1.49,4.39,1.25,6.04-.06.38.02.81.16,1.24h-9.9s5.14,2.08,9.31,2.78c-2,.83-10.63,4.35-12.28,4.35-1.87,0-8.6-2.47-10.46-3.7-1.87-1.24-5.98-4.12-5.98-5.35s-.38-7.41-.38-7.41l-8.6-2.88s5.61,3.29,5.98,4.94c.38,1.65,0,6.59,0,6.59l-7.48-3.29-11.59.41-5.6-5.35,4.11,8.64s10.47-3.29,12.71-2.06c2.24,1.24,12.34,6.99,14.58,8.23,2.25,1.24,12.71,5.76,14.2,4.53.18-.14.55-.35,1.07-.58l-1.07.58s-.75,4.12-5.6,4.94c-4.86.82-7.85,5.76-7.85,5.76,0,0,11.21-2.88,12.71-3.7,1.23-.68,4.49-6.93,5.59-9.11,4.88-1.84,11.6-4.06,11.6-4.06,0,0,.23.23.84-.41,5.17,1.56,12.52,4.89,16.53,5.8,5.3,1.2,13.78,4.22,13.78,4.22,0,0,12.19,3.61-.53,10.84-4.9,2.79-14.46,7.25-23.36,10.15-2.5-2.82-7.63-8.78-7.63-10.02,0-1.65-10.09.82-10.09.82h-8.6s7.1,2.88,8.6,2.06,8.22-.82,8.22-.82l4.49,7s.62,1.12,1.8,1.96c-5.58,1.59-10.61,2.39-13.7,1.51-4.05-1.15-9.18.45-13.45,2.44-1.44-1.42-4.8-4.7-6.54-6.18-2.24-1.92-8.22.28-9.47-.27-1.24-.55-4.98,1.37-4.98,1.37,0,0,4.49.55,6.98,0,2.49-.55,6.23-1.65,7.73.82,1.05,1.73,3.19,3.99,4.38,5.2-3.7,1.92-6.38,3.86-6.38,3.86,0,0,9.01-1.81,14.31-3.01,1.15-.26,2.76-.41,4.61-.5-.11,1.45-.23,3.38-.23,4.34,0,1.65-3.74,3.7-3.74,4.94s1.87,8.23,1.87,8.23c0,0,0-7.41,2.24-9.46,1.87-1.72,2.18-6.57,2.23-8.14,6.57-.21,15.1-.14,19.52-1.81,1.82-.69,4.09-1.63,6.55-2.68l.48,3.98s0,5.35-1.5,7.82c-1.49,2.47-4.11,3.7-4.11,3.7l-9.34-.41s10.47,2.06,8.22,4.53c-2.24,2.47-5.98,6.58-7.11,8.23-1.12,1.65-7.1,3.71-8.97,4.53-1.87.82-2.99,4.94-4.49,7.82s-4.49,9.46-4.49,9.46c0,0,5.98-5.76,6.35-8.23s2.62-6.59,6.73-6.59,5.98-2.47,5.98-2.47c0,0,.37,5.76.37,7.82s-2.99,10.7-2.99,10.7c0,0,5.6-11.52,4.86-14.81-.75-3.29-.37-6.17,1.87-8.23,2.24-2.06,4.11-4.94,4.11-4.94,0,0,.75,2.47,1.12,4.94s3.36,6.58,5.98,8.23,6.73,2.06,6.73,2.06c0,0-7.48-4.52-8.6-6.17-1.12-1.65-4.11-7-3.74-10.29.38-3.29,7.1-11.93,7.1-11.93l-.25-4.11.62,2.06s8.22,2.88,9.72,6.17c1.49,3.29,4.49,8.64,7.85,7.82,3.36-.82,10.84-5.35,10.84-5.35,0,0-8.97,1.23-10.84,1.64-1.87.41-4.49-3.7-5.98-5.35-1.49-1.65,2.24-4.11,5.23-4.94,2.99-.82,8.22-.41,8.22-.41,0,0-5.98-2.06-8.22-2.06s-6.73,5.35-8.22,4.11-4.86-4.94-7.1-4.94c-.97,0-1.72-.54-2.26-1.15l-.3-4.91c5.13-2.2,10.56-4.53,14.46-5.9,6.89-2.41,12.19-1.81,17.49-5.42,5.3-3.62,12.19-3.01,18.02-6.63,3.52-2.18,7.21-4.12,9.14-3.88-9.82,27.76-15.24,43.73-26.65,57.93-17.19,21.4-63.55,30.04-63.55,30.04-4.11-.82-8.22-4.53-14.95-10.28-6.73-5.76-11.22-9.47-14.95-16.46,0,0,7.48-3.57,9.22-5.76,1.74-2.2,3.24-6.04,2.99-7.96-.25-1.92,3.74-4.39,3.74-4.39,0,0-4.99.82-5.73,2.47-.74,1.65,0,6.31-2.49,8.5-2.1,1.85-6.86,5.07-8.29,6.03-3.54-7.09-6.91-18.12-6.91-23.58,0-4.28-1.65-13.09-2.8-18.19,2.05-.78,6.92-2.69,8.28-3.76,1.74-1.37,4.24-8.5,3.99-9.33-.25-.82-3.74,6.59-3.74,6.59,0,0-4.73,2.74-6.73,3.02-.88.12-1.75.46-2.46.79-.11-.4-.21-.73-.28-.93-.75-2.06-7.48-19.34-7.48-19.34,0,0,1.5,10.29,4.11,16.46,2.62,6.17,3.36,13.58,4.11,21.4.49,5.09,1.29,10.51,2.31,15.16-1.16-1.14-2.43-2.39-2.8-2.81-.75-.82-6.73-6.59-6.73-6.59,0,0-1.41-1.08-3.22-2.35.03-2.53.04-9.26-.77-11.91-1-3.29-5.48-10.15-5.48-10.15,0,0,1.75,4.66,2.74,7.68,1,3.02,1,5.76,1,8.5,0,1.81.21,3.49.36,4.42-1.85-1.2-3.74-2.28-4.85-2.51-2.74-.55-10.22-5.76-10.22-5.76,0,0,4.98,6.31,7.97,6.31s11.21,6.04,13.21,8.78c1.38,1.89,6.65,7.3,9.8,10.48.26.91.52,1.77.79,2.56,1.87,5.35,7.85,15.22,4.86,14.81s-8.22-3.29-13.83-4.11c-5.6-.82-17.57,1.65-22.43.82-4.86-.82-12.71-7.82-16.82-13.58s-12.34-13.99-12.34-13.99c0,0,1.5,3.7,4.86,7.82,2.1,2.56,5.5,7.2,8.76,11.13-1.76.77-5.06,2.01-7.51,1.62-3.49-.55-7.97,1.65-7.97,1.65,0,0,5.48-.55,8.47-.55,2.78,0,8.79.24,9.62.27,1.02,1.11,1.99,2.07,2.84,2.75,4.11,3.29,5.23,5.35,1.49,7.41-3.2,1.76-13.22,5.62-19.57,6.44-1.04-.75-2.44-1.99-3.86-3.97-2.74-3.84-6.73-7.41-10.22-9.6-3.49-2.2-12.46-3.57-12.46-3.57,0,0,8.47,2.47,11.46,4.11,2.99,1.65,12.22,13.17,12.22,13.17-5.61-.42-19.06-1.24-19.06-1.24,0,0,7.48,1.65,14.58,2.88,7.1,1.23,23.55-1.64,28.03-5.76,4.48-4.11,10.47-4.11,17.19-4.52,6.73-.41,23.55,4.52,29.16,5.35s11.96,10.29,18.69,14.4c6.73,4.11,4.86,8.64,1.87,11.11s-11.22,17.69-14.58,22.63c-3.37,4.94-8.97,1.65-11.59,0s-13.46-8.64-18.31-11.93c-.37-.28.37-7.41.87-9.6.05-.2.1-.46.14-.71.61-.22,5.1-1.82,6.84-1.82,1.87,0,4.86-.82,5.42-1.65.56-.82,5.61-1.86,6.54-1.65.94.21,6.54,2.67,6.54,2.67l5.23-1.85s-4.11.2-5.23.2-4.3-2.06-5.8-2.06.56-1.44,1.68-2.26c1.12-.83,5.61-1.44,6.92-2.06s1.69-4.32,1.69-4.32c0,0-2.43,3.5-4.68,3.91-2.24.41-6.35.82-7.48,2.68-1.12,1.85-3.92,1.85-4.67,2.26-.75.42-3.93-.41-3.93-.41,0,0,2.62-6.17,1.12-7-1-.55-1.9-2.1-2.4-3.07.34.73.79,1.75.91,2.25.19.82.93,1.03,0,3.29s-1.31,5.55-1.31,5.55c0,0-.94.62-2.62,1.44-1.69.82-2.62,1.65-4.11,1.03-.15-.06-.27-.07-.38-.06.07-2.25-.22-4.91-1.43-7.07-2-3.56-5.98-14.26-5.98-14.26,0,0-.25,2.74,1,6.31,1.24,3.57,4.98,9.87,4.74,13.72-.25,3.84-1.5,7.68-2.49,9.88-.53,1.17-.7,2.4-.76,3.31-4.34-1.58-11.32-4-13.57-4-3.36,0-9.35-5.35-12.71-6.99-3.37-1.65-20.19-8.64-20.19-8.64,0,0,12.34,8.23,16.82,9.47,0,0-6.73.82-8.47,2.19-1.75,1.37-6.23.28-8.72.28s-4.98,3.29-4.98,3.29c0,0,3.74-2.47,7.73-1.65,3.99.82,7.23.27,9.72-.83,1.87-.82,6.28-1.34,8.35-1.54,4.16,2.59,8.72,6.9,8.72,6.9,0,0-14.21,4.53-21.31,6.17-7.1,1.65-14.58.41-19.06-4.52-.54-.6-1.22-1.11-1.98-1.56-.6-2.8-1.76-8.29-2.13-10.1-.5-2.47-5.23-6.58-5.23-6.58l-4.49-6.31,2.74,6.59,3.74,4.11,2.24,6.59.41,4.48c-5.67-1.97-13.24-1.73-13.24-1.73,0,0,8.22,2.47,12.34,4.12,3.03,1.21,7.88,5.98,12.16,8.26-1.79.99-5.39,3-6.68,3.81-.79.5-1.88,1.63-2.85,2.93l-9.36-1.29-2.99,4.66,4.49-2.47,6.48,1.34c-.44.9-.75,1.77-.75,2.5,0,2.47-3.49,8.23-3.49,8.23l.5,4.94s1-3.84,2.74-6.86c1.74-3.01,2.24-6.04,2.49-7.41.25-1.37,3.49-4.38,5.73-5.49,1.55-.76,4.75-2.69,6.59-3.81.48.1.95.15,1.38.11,4.86-.41,23.55-4.94,32.89-8.23,9.35-3.29,20.19,6.17,23.93,9.46,3.74,3.29,14.95,9.47,14.95,9.47,0,0-5.24,4.11-9.35,5.76-4.11,1.64-14.2,3.7-21.68,7.82-7.48,4.11-11.59.82-11.59.82-2.05-1.13-4.03-2.01-5.92-2.75h.19l-3.99-11.52,2.12,10.91c-9.71-3.31-16.7-1.99-16.7-1.99,2.37-.28,5.07.08,7.83.79l-3.97,5.65-9.47,3.84,11.22-1.92,4.74-6.58-.84-.51c6.94,2.13,13.88,6.18,16.6,7.85-1.49.75-4.35,2.14-5.79,2.54-1.99.55-4.49,7.95-4.49,7.95l-4.49,1.65,5.48-.27,3.74-6.31,4.73-2.74,3.52-2.58c4.96-1.7,20.63-6.95,25.02-7.3.81-.06,1.85-.33,3.02-.73l-1.15,7.59-5.98,4.94-.25,4.66,2-4.11,7.23-4.94,1.39-9.42c6.21-2.74,14.22-7.58,17.68-9.93,4.86-3.29,16.82-26.75,24.3-30.45s23.55-6.17,28.04-5.76c4.49.41-2.24,6.58-4.11,9.46s-6.73,6.58-8.6,7.41c-.66.29-2.45,1.2-4.47,2.25-.34-1.48-1.14-4.47-2.26-4.93-1.5-.62-6.91-2.27-6.91-2.27l-2.62-2.26,2.43,3.5s3.92.83,4.86,1.24c.93.41,1.87,1.65,2.06,2.88.1.7.57,1.8.96,2.62-3.33,1.74-6.75,3.56-6.75,3.56l-7.1,6.99s9.72-6.99,13.08-7.41c3.36-.41,11.21-6.58,11.21-6.58,0,0-2.62,2.88-5.61,7.82-2.08,3.43-7.59,9.85-11.51,14.14-3.1.99-10.87,3.42-12.66,3.42-2.24,0-7.47.83-8.72,2.47-1.25,1.65-7.98,5.49-7.98,5.49,0,0,6.48-1.65,7.98-3.57,1.49-1.92,5.73-2.2,8.22-2.2s9.35-1.65,9.35-1.65c-2.24,2.06-4.49,12.76-4.49,12.76,0,0,4.86-10.7,10.09-14.81,4.47-3.52,9.74-11.51,13.75-16.85,0,.18-.05.34-.05.53,0,0,1.74,8.78,2.24,11.8s-2.49,8.5-5.24,12.89c-2.74,4.39-1,12.07-1,12.07,0,0,.25-7.41,2.74-12.07,1.5-2.81,3.45-5.52,4.61-8.01.28.73,1.58,4.08,2.75,4.99,1.31,1.03,1.87,3.91,1.68,6.58-.19,2.68,2.99,7.2,2.99,7.2,0,0-1.87-5.35-1.87-7.41s-1.12-4.73-.18-4.53c.93.21,3.36-1.44,5.05.42,1.68,1.85,5.23,1.23,5.23,1.23,0,0-3.18-1.65-4.49-2.26-1.31-.62-3.55-.62-5.04-.82-1.5-.21-1.87-2.47-2.81-4.32-.93-1.85-2.43-5.69-2.43-5.69-.75-3.56-1.74-9.88-2.24-12.07-.21-.95-.2-2-.1-2.89l.1-.13c4.11-4.94,10.09-15.64,20.19-19.75,10.09-4.11,10.47,4.11,10.84,8.64s-1.5,19.34-4.49,31.28c-2.99,11.93-12.34,26.75-23.18,30.45-8.98,3.07-18.46,3.3-24.43,1.43l-10.59-10.62-8.22-5.48-3.74-2.75,2.74,4.12,7.48,5.49,4.86,5.79c-4.99-1.83-11.03-2.42-14.45-.85-.49.22-1.29.43-2.32.64l-4.28-3.93-8.72-3.57,6.23,4.11,2.68,4.01c-10.47,1.29-29.09,2.03-29.09,2.03,0,0,13.71.37,24.61-.14l-4.43,5.9-6.97,4.94.75,4.67,1-4.12,7.23-4.39,1.47-1.46c.45.82,1.12,2,1.58,2.63.75,1.03.93,3.5.75,5.14-.19,1.65,2.81,4.32,2.81,4.32,0,0-1.87-2.68-1.69-3.91.19-1.23,0-3.91-.75-5.14-.75-1.24-1.49-3.7-1.49-3.7l-.49-.06,5.16-5.12c3.14-.27,5.7-.65,7.1-1.19,6.35-2.47,18.32,4.94,22.06,7.82s20.19.82,20.19.82c0,0-10.47,7-21.31,13.58s-22.05,4.94-28.41,3.7c-6.36-1.23-19.44-5.76-25.79-7.82-1.54-.49-3.73-.8-6.25-1-.29-1.34-1.04-4.21-2.35-5.86-1.74-2.19-5.48-9.6-5.48-9.6,0,0,.75,5.76,2.24,7.68,1.28,1.64,2.38,6.28,2.66,7.6-6.47-.32-14.08-.23-18.48-.9l-1.38-2.85-2.49-4.94-9.97-2.47-6.23-4.66-8.97-3.57,6.98,5.49,6.48,4.66,8.97,1.92,2.93,5.53c-5.32-1.45-11.7-2.7-15.39-1.96-1.29.26-3.39,1.05-5.66,2.04l-3.06-3.96-6.97-.27-8.72-2.2,6.73,3.56,7.48,1.1,2.61,2.66c-4.38,2.07-8.69,4.56-8.47,5.3.2.67,3.49-.6,7.29-2.29l-2.18,1.2-2.24,8.23-6.23,8.23,7.73-7.41,3.23-10.39c3.12-1.4,6.54-3.06,8.86-4.15,4.37-2.06,10.04,2.18,16.14,3.87l-3.8,5.73-6.98,2.74-5.48,12.07,7.48-10.7s5.48-1.65,7.23-3.84c1.21-1.53,3.88-3.99,5.39-5.35,5.04.27,11.22.19,17.12.48l-3.57,1.85-4.74,3.84s-1.99,7.13-1.24,6.31,2.99-6.31,6.23-7.95c2.48-1.26,6.11-2.99,7.69-3.74,1.3.12,2.57.26,3.78.45,7.85,1.24,10.84,4.11,7.85,5.35-2.99,1.24-11.21,4.53-14.58,8.23-3.36,3.7-13.08,10.7-16.45,11.11-3.37.41-15.7,1.65-15.7,1.65,0,0,4.76.5,9.45.87l-5.21,10.93-9.47,2.47s-1.5,4.66-2.24,6.58c-.75,1.92,2.99-5.21,4.73-5.76,1.74-.55,9.22-.55,9.72-2.2.5-1.65,4.49-9.32,4.49-9.32l3.57-2.36c.51.02.99.03,1.41.03,4.86,0,11.59-8.64,15.7-10.7.15-.07.31-.15.47-.24.37.57.92,1.41,1.52,2.3-.04.07-3.74,6.32-4.23,9.6-.5,3.29-4.49,6.86-4.49,6.86,3.74-2.47,7.73-7.13,7.73-9.05,0-1.52,2.01-3.88,2.85-4.8.56.73,1.06,1.3,1.38,1.51,1.24.82,4.24,6.03,3.49,7.41-.75,1.37-.25,9.6-.25,9.6l3.49,1.37s-1.99-2.47-1.75-6.31c.25-3.84,1.25-8.23,1.25-8.23,0,0-2.74-1.92-4.49-4.66-1.41-2.21-2.17-6.21-2.41-7.67,4.31-2.21,9.78-4.98,13.75-6.73,5.61-2.47,19.06,2.47,26.17,2.47s8.22,1.23,6.35,4.11c-1.87,2.88-4.49,7-9.35,16.05s-11.21,10.29-16.08,13.17c-2.88,1.71-6.15,5.15-8.64,8.7-2.56-.5-15.97-3-17.77-1.01-2,2.2-11.71,3.84-11.71,3.84l-7.73-.55s7.73,4.66,11.46,1.92c3.74-2.74,8.72-4.11,10.46-4.11s5.24,1.65,8.48,2.2c1.83.31,3.83.27,5.21.17-.95,1.6-1.69,3.15-2.09,4.49-1.5,4.94-7.85,10.29-7.85,10.29,0,0,6.73-4.11,12.34-13.58,5.61-9.46,7.48-6.58,13.83-10.7,6.35-4.12,5.98-2.47,5.98-.83s-1.49,11.53-2.99,16.87c-.94,3.36-4.83,10.79-7.59,15.84l-12.59,1.31s-10.47,3.29-13.21,1.37-8.73-5.49-10.22-4.12c-1.5,1.37-10.72.82-10.72.82,0,0,8.97,2.75,11.21,1.65s6.98,1.37,8.47,3.01c1.5,1.65,5.73.83,6.98.55,1.24-.27,5.98-.82,5.98-.82,0,0-10.47,8.5-12.22,9.6-.36.23-.76.79-1.17,1.53-1.98-.54-10.28-2.7-12.04-1.25-1.99,1.65-9.72,0-9.72,0l-5.24-3.02s4.49,5.21,8.48,4.94,7.97.55,8.97-.27c1-.82,2.99,1.65,5.24,1.65h3.31c-1.24,2.85-2.32,6.31-2.32,6.31l-4.98,6.86s6.48-3.84,6.73-5.76,2.99-8.23,3.74-9.05c.75-.82,6.98-6.31,8.72-7.13,1.75-.82,4.74-4.12,4.74-4.12l9.47-1.65s-5.98,8.51-8.22,11.8c-2.24,3.29,1.24,11.52,1.24,11.52,0,0-4.73,6.31-4.98,7.13s1.5,11.8,1.5,11.8c0,0-.5-9.06.25-10.98s4.73-6.31,4.73-6.31c0,0,3.99,6.04,3.99,6.86s1.5,5.21,1.25,6.86,1.49-5.21.75-7.41c-.75-2.19-3.24-6.85-4.49-8.78-1.24-1.92-2.49-8.78-2.49-9.88s5.49-6.03,5.49-6.03l4.24,6.03-2.99-7.13,6.73-11.25,4.98-9.6s2.74,4.39,2.49,8.5c-.25,4.12-1.49,10.97-3.24,12.62-1.74,1.65-1.49,9.33-.25,13.17,1.24,3.84-3.74,9.05-3.74,9.05l-.25,14.82,2.24-13.99,2.99-6.31s-.25-8.51-.75-10.15c-.5-1.65.75-4.39.75-4.39l5.73,5.21s-3.99-5.76-4.24-6.86c-.25-1.1.5-4.67,1-7.41s-.25-7.96,1.74-5.76c.62.68,1.4,1.68,2.19,2.73,1.17,1.79,3,6.28,4.5,10.24.2,1.66.49,3.89.79,4.87.5,1.65,0,4.66-1.25,5.76-1.24,1.1-1.99,4.11-1.74,5.76.25,1.65-1.5,6.86-1.5,6.86l-4.73,5.49,6.23,8.5-.5,10.15.5,9.05s1.24-7.96,1.24-10.15.25-8.23.25-8.23c0,0,1.24,2.2,3.49,3.57,2.24,1.37,4.98,5.76,4.98,5.76l-1,5.21s3.49-3.84,2.49-5.21-3.49-5.49-5.48-7.13c-2-1.65-4.24-5.49-6.23-6.86-1.99-1.37-3.74-4.39-2.24-5.49,1.5-1.1,3.74-4.39,3.74-4.39,0,0,2.24,2.2,3.99,2.47,1.74.28,4.49,1.92,5.23,4.11.75,2.19,5.48,5.76,5.48,5.76,0,0-2.74-4.94-3.74-6.31s-4.23-4.39-5.98-4.94c-1.74-.55-3.49-1.1-3.74-4.39s2-8.5,2-8.5l2.49-2.47,2.74,6.86-1-6.03s2.49-1.37,4.49-.82,5.73,4.11,5.73,5.21,5.98,1.92,5.98,1.92l-4.74-3.02-4.48-6.58h-6.48c-1,0-3.49-3.84-4.24-5.21-.3-.55-.83-1.22-1.37-1.84-.3-1.19-.66-2.4-1.12-3.51-1.15-2.78-2.44-5.42-3.87-8.66l-4.2-11.43c-.95-4.21-.52-7.02-.52-10.78,0-4.94,1.12-12.76,3.36-14.82,1.94-1.78,6.97-9.11,11.92-17.19.55.96,2.08,3.72,2.29,4.85.25,1.37.25,7.41.25,7.41l4.56,3.42.93.7,5.73.55s-3.74-.82-4.99-1.92-4.49-4.66-4.49-4.66l.25-4.39s3.99-.55,4.98,0c1,.55,4.98,2.19,4.98,2.19l2.74-1.65s-3.74-.27-4.98-.82c-1.25-.55-4.74-1.65-5.48-1.37-.75.28-2.74-2.47-2.74-2.47,0,0-.76-4.58-.13-7.94,6.7-8.59,21.33-16.47,27.16-19.5,6.35-3.29,5.61,1.23,5.23,10.29-.37,9.05-7.1,18.52-13.08,25.1-4.32,4.76-11.16,11.43-14.64,14.78-3.24,1.3-8.44,3.41-9.78,4.15-2,1.1-7.23,1.92-7.23,1.92,0,0-3.24,3.29-3.49,4.12s3.49-1.1,4.48-1.92c1-.82,6.23-1.65,7.23-1.92,1-.28,6.73-3.02,6.73-3.02,0,0,.5,5.21,1,6.31s-1.49,4.12-3.99,6.31c-2.39,2.11-3.17,6.47-2.78,8.51-.61,1.67-1.46,4.22-1.46,5.41v6.79s1.87-2.68,1.5-4.94c-.24-1.42.41-3.97.93-5.67,2.07,2.11,6.8,4.98,6.8,4.98l-1.24,9.05,2.74-8.23s4.48.28,5.73.82c1.25.55,2.74,3.02,2.99,4.12s2.99,6.03,2.99,6.03c0,0-.5-6.86-1.74-8.23-1.24-1.37-3.49-4.39-5.98-4.66-2.49-.27-4.49-1.65-7.23-3.84-2.74-2.2-3.99-6.31-2.74-7.13,1.24-.82,3.74-3.29,3.74-3.29l4.98,5.49-3.74-6.86,1.5-4.94-1.75-4.66,1.27-2.94.85-.08s10.09-11.52,19.81-20.99c6.05-5.89,8.62-13.05,9.79-19.6.84-.57,1.85,1.55,2.73,2.52,1.12,1.24,1.31,3.91,1.31,3.91,0,0,.75,3.09,1.31,3.09s2.43,2.26,2.43,2.26l-2.06,2.68-2.24,1.24,3.55.41,1.68-3.29s2.43,1.24,2.43,1.85.56,7,.56,7l.38-8.02s-2.81-5.15-5.05-5.76c-2.24-.62-1.87-4.32-1.87-4.32,0,0,1.5-.62,2.62-.41s3.74,1.03,5.05.62,4.11-.62,4.11-.62l1.49,2.88s4.3-.82,5.42-1.44,3.74-.41,3.74-.41l-2.62-1.23s-2.99,1.44-4.49,1.44-3.55-3.09-3.55-3.09l2.8-1.65,3.37-5.14-4.3,4.53s-5.42,1.65-6.54,2.47-5.8-.83-7.11-2.26c-1.15-1.28-3.91-3.35-4.54-3.81.23-2.26.34-4.39.43-6.27.38-8.23,10.09-13.17,15.7-20.16,5.61-7,10.84-2.47,13.83,4.11,2.99,6.59,5.98,19.34,2.99,26.75-2.99,7.41-10.84,13.58-14.95,18.11s-7.1,11.52-13.08,18.11c-5.98,6.58-10.09,4.12-14.58,3.29s-6.73,2.88-9.72,7c-2.99,4.11-6.73,7.82-6.73,7.82,0,0,5.6-3.29,10.09-8.64,4.49-5.35,6.73-2.06,11.21-2.06s4.11,1.24,2.24,3.29c-1.87,2.06-5.98,9.87-6.35,17.7-.37,7.82-4.11,19.34-6.35,25.92-2.24,6.58-8.6,12.35-8.6,12.35,0,0,1.22-.41,2.95-1.75-.07,1.36-.2,3.78-.33,4.22-.19.62-2.06,3.7-2.06,5.35s2.24,5.14,2.24,5.14c0,0-1.5-5.35-1.31-5.97s2.24-3.91,2.99-4.73,0-5.14,0-5.14l-.26.04c1.48-1.38,3.17-3.37,4.74-6.21,0,0,2.62,5.35,2.99,6.38.38,1.03-.75,4.12-.56,5.97s2.43,7.41,2.43,6.79-1.31-6.38-.38-9.46c.16-.53.25-1.04.31-1.53.13.08.26.12.44.09,0,0,2.62,0,3.36-.21.75-.2,2.99,1.03,2.99,1.03,0,0-1.87-2.26-2.43-2.47-.42-.15-3-.08-4.3-.03-.1-1.64-.64-2.97-1.12-3.88-.6-1.16-1.93-4.06-2.43-5.14,3.2-6.26,4.67-11.12,4.67-11.12,0,0,1.5.41,4.49,3.29s4.49,7,5.61,11.52c.55,2.2.47,5.46.25,8.24-.74,2.2-1.77,4.85-2.87,6.16-2.06,2.47-4.49,4.53-5.61,7.82s-3.93,6.79-5.05,7.82c-1.12,1.03-4.86.62-6.35,0s-4.86-.21-6.54.21c-1.68.41-4.86-1.65-4.49-1.03.38.62,1.68,3.5,3.74,3.09,2.06-.41,2.43-1.03,2.06,0s-1.31,4.94-2.43,6.99c-1.12,2.06-6.73,5.35-6.73,5.35,0,0,5.42-2.26,5.98-2.47s3.36-3.91,3.55-6.79,4.3-3.49,6.73-2.88c2.43.62,5.23,1.24,5.23,1.24,0,0-2.99,5.35-4.67,8.23s-1.87,12.14-1.87,12.14c0,1.03-2.62.21-2.99,1.64-.37,1.44-2.24,3.7-2.24,3.7,0,0,2.62-.82,3.37-2.88s2.43-.41,2.43-.41v3.7c0,1.03,1.68,5.14,1.31,3.91-.37-1.24-.37-5.56-.37-5.56,0,0,.75-5.55.37-7.2-.37-1.65.38-3.91.93-4.94.56-1.03,1.87.2,2.43,0,.56-.21,3.18.82,5.05,1.65,1.87.83,2.43,1.03,2.43,1.03,0,0-2.43-1.03-2.81-1.85-.37-.82-3.55-2.26-4.86-2.26s-.93-2.67.19-4.73,4.11-4.73,4.67-5.14,2.81.62,3.37,2.06.56,4.53.56,6.38.93,2.67.93,2.67c0,0-.19-7.41-.19-8.23s-1.5-3.29-2.99-4.32c-1.5-1.03-1.87-2.67-1.31-3.5.56-.82,2.62-5.14,4.3-8.02,1.68-2.88,2.99-1.85,3.18.41.19,2.26.19,4.52,1.12,5.97.93,1.44.38,4.12.38,4.94s-.38,4.32-.38,5.35-.37,3.5-.37,4.94-.38,3.91-.93,5.76c-.56,1.85-.56,5.35-.56,5.35l-.37,5.55,1.68-3.29s-.56-5.35.75-6.99c1.31-1.65.75-3.91.75-6.38s.93-4.73,3.18-4.94,3.74,2.06,4.86,3.29,1.31,3.29,1.12,4.52c-.18,1.24-1.87,4.11-1.87,4.11l1.12,2.68-.37,3.29s2.99-2.67,2.06-2.88c-.94-.2-1.31-4.11-1.12-4.73.18-.62,1.12-3.29,1.12-3.29,0,0,2.06,3.5,3.55,4.32s6.73,4.11,6.73,4.11c0,0-3.74-4.53-5.05-4.32s-4.11-4.94-4.11-5.76-3.55-8.85-5.98-8.85-4.67,1.24-4.3-1.03c.37-2.26,0-7.2-.56-10.7s-.56-8.64.19-12.14.94-11.11.94-11.11c0-3.29,4.11-1.65,7.85.82s5.61,5.76,4.86,2.88-6.73-7-11.59-9.88c0,0-5.23-6.17-9.34-11.52-4.11-5.35-1.12-7,1.5-19.34,2.62-12.35,9.34-16.46,15.32-22.22s3.74,0,4.86,6.58c1.12,6.59-.37,12.76-1.87,16.87-.78,2.15-2.27,5.63-3.52,8.47l-.04-.24c-.56-.21-3.74-1.03-5.24-.21-1.49.82-3.74,2.47-4.86,1.85s-2.62-.21-2.62-.21c0,0,3.55,1.44,4.11,1.24.56-.21,3.36-2.26,4.11-2.26.58,0,3.03.48,4.13.71-.96,2.18-1.7,3.81-1.7,3.81,1.55-.97,3.12-3.03,4.57-5.42l-.08.69s1.49,2.88,1.68,4.11c.19,1.23-2.06,6.17-2.62,7.41-.56,1.23.19,7.4.19,7.4,0,0,.93-5.35,1.12-6.38s1.68-4.32,2.43-5.55c.75-1.24.56-4.53-.56-5.76-.65-.72-1.17-2.05-1.5-3.05,3.16-5.58,5.61-12.38,5.61-12.38,0,0,2.24,10.29,4.11,16.87,1.87,6.59.37,8.23-1.12,14.4-.41,1.69-.39,3.28-.16,4.7l-.03.03c0,1.85,1.12,6.79,1.87,8.23s1.12,9.47,1.12,9.47c0,0-3.36,6.17-4.86,7.4-1.49,1.24-.56,5.15-1.49,6.59-.93,1.44-5.23,2.47-5.98,2.67-.75.21,2.99.62,2.99.62l4.49-1.85s1.12,1.24.37,3.09-1.49,5.96-.75,6.99c.6.82,3.34,3.35,4.52,4.97-.74-1.81-2.08-5.17-2.83-5.58-1.12-.62.19-4.73.37-6.38.19-1.65,0-3.71-.56-4.94s.56-4.73,1.31-6.17,2.99-4.11,4.49-1.23c1.49,2.88,3.73,5.35,4.11,7.2s-.38,5.56-1.12,5.76c-.75.21.37,7.2.37,7.2,0,0,.19-5.14.56-6.38.37-1.23,1.87-5.55,1.87-5.55,0,0,2.62,1.85,3.55,2.67.93.83,2.99,4.73,2.99,4.73,0,0,.26,2.92.12,4.7.31-1.68.87-4.85.63-5.52-.37-1.03-1.68-3.91-2.99-4.94-1.31-1.03-2.8-2.26-4.3-4.32s-3.92-6.79-3.92-6.79c0,0,2.62,1.24,4.48,1.44,1.87.2,4.49,1.24,5.23,2.06.75.82,2.8-1.65,2.8-1.65,0,0-2.43-.2-3.73-.82-1.31-.62-5.42-1.65-6.73-1.65s-3.55-2.47-3.55-2.47c0,0-.56-4.32-.94-7-.37-2.67-2.24-9.26-.37-8.23,1.87,1.03,6.35,2.26,6.35,2.26,0,0-1.49-1.64-2.99-2.06-1.5-.41-3.55-1.65-4.11-2.68-.18-.33-.34-.93-.48-1.59.05-2.34.14-5.1.29-7.88.37-7,2.99-4.11,8.6-2.47,1.23.36,2.49.97,3.72,1.68,1.21,1.51,5.21,6.47,5.99,7.16.94.82,3.18,6.79,2.8,8.64-.37,1.85-.93,6.59-.93,6.59l3.37,5.14s.93,9.88.56,12.76-.93,8.44-.93,8.44c0,0-4.86,10.08-5.98,11.11s-5.23,6.18-6.73,7.2c-1.5,1.03-5.05-3.29-5.8-3.29s.37,1.24.93,2.06,2.62,2.06,3.93,2.47,3.74-.62,3.74-.62c0,0-.93,2.67-1.12,4.73-.18,2.06-4.3,3.7-4.86,3.91s0,8.44,0,8.44l.93-7s2.24-2.06,3.36-2.26c1.12-.21,2.99-2.88,2.99-2.88l.18-3.7s.19-2.68,1.31-4.32c1.12-1.65,3.93-2.47,3.93-3.09s1.31,4.94,1.31,4.94c0,0,2.43,4.11.56,6.79-1.87,2.67,2.06,4.32,2.62,4.73s4.11,1.44,4.11,1.44c0,0-2.8-2.47-3.55-2.88s-1.68-3.29-1.12-4.53-.75-4.53-1.31-5.35-1.12-5.35-1.12-6.79,1.87-6.58,1.87-6.58c0,0,2.62,2.27,3.93,2.27s2.62,4.94,2.43,5.55c-.12.39,2.65,2.28,4.76,3.66l1.65,2.72,5.48,7.68-1,5.21,2.74,7.41-1.24-7.13,1.24-6.04-6.54-8.37,3.93-1.64s-2.8,0-3.74-.41c-.93-.41-5.98-3.7-5.98-3.7l-1.12-3.91,5.98.62-6.92-2.06s-2.24-1.23-2.8-1.65c-.56-.41-.94-3.29-.94-3.29l1.31-8.43s0-5.35-.37-6.79c-.38-1.45-.38-5.15-.38-5.15l7.66,1.65,1.68,5.14,5.23,1.65s4.11.82,5.61,1.64c1.49.82-.75-2.06-2.99-2.47s-6.54-1.85-7.1-3.09c-.56-1.24-2.06-3.5-.38-3.7s6.36,1.03,6.92,1.23c.56.21,1.12-2.88,1.12-2.88,0,0-1.49,1.44-4.86.62-3.36-.82-5.61.41-5.61.41,0,0-1.87,0-3.55-.2-1.68-.21-2.99-.82-3.55-2.47s-2.24-3.91-1.87-5.56c.37-1.65-.56-5.35-.75-7.41s2.62-4.32,2.62-4.32c0,0,1.5.41,3.18,0s-.19-1.44-1.87-1.23-4.86,1.65-4.86,1.65c0,0-1.03-2.06-1.91-3.95l.04.04s-.15-.36-.46-.94c-.48-1.06-.85-1.94-.85-2.15,0-.36-1.61-2.35-3.47-3.52-1.79-1.74-4.13-3.52-7.18-4.91-8.97-4.12-7.1-6.59-9.35-12.35-2.24-5.76-3.74-14.4-5.98-28.4-2.24-13.99,3.37-16.87,10.47-22.22s12.71-7.41,14.57-1.24c1.22,4.02,2.44,15.01,3.14,22.2-.35,2.74-1,7.75-1.27,9.08-.37,1.85-2.43,7.82-2.43,8.44s-1.68-2.47-2.8-3.09c-1.12-.62-4.67.41-6.17-.21s-5.23-3.5-5.23-3.5c0,0,2.24,2.88,2.99,3.08.75.21,3.93,3.09,5.04,2.26,1.12-.82,2.43.62,3.74,2.06,1.31,1.44,2.99,3.91.56,5.56-2.43,1.65-5.23,4.73-5.61,6.17-.37,1.44.56,3.7,1.49,4.32.94.62.56,4.94.56,4.94,0,0,2.8-1.65,1.87-3.7-.93-2.06-2.8-4.73-1.68-6.18,0,0,6.73-4.94,6.54-8.43-.19-3.5,2.24-6.79,2.62-8.23.24-.92.78-2.43,1.19-3.56.46,1.25,1.06,2.65,1.61,3.36,1.96,4.31,4.19,8.59,6.5,12.34.87,1.96,1.54,4.12.42,5.35-1.5,1.65-4.67,7.2-4.86,7.82s1.49-2.26,2.99-3.29,3.36-2.88,3.55-3.5,1.49,3.29,2.62,5.14c1.12,1.85.19,7.82-.56,10.08-.75,2.26.19,7.41.56,8.02.37.62-3.55,8.44-3.55,8.44,0,0,4.86-7.61,4.86-8.64s-1.5-4.94-.75-6.79.93-7.61,1.12-8.85c.19-1.23,3.55.41,3.55.41,0,0-2.8-2.26-3.55-2.67s-1.87-4.73-3.36-7c3.36,4.53,3.36,1.65,5.98,4.53s5.98,6.99,5.23,9.05-1.87,6.58-2.24,11.52c-.37,4.94,1.87,10.29,1.87,10.29,0,0-.75-7.82.75-13.99,1.5-6.17,2.99-8.64,5.24-3.7,2.24,4.94,1.87,11.94.75,16.05-1.12,4.12-3.74,4.53-3.74,6.17s-.75,5.76-1.12,10.29-.37,13.17.75,15.64,4.49,8.23,7.48,10.7c.86.71,2.02,2.67,3.25,5.11l-4.74,5.59s1.87,8.64,1.87,11.93-3.74,14.4-3.74,14.4c0,0,3.74-4.52,4.11-6.59.38-2.06,1.5-6.99,1.5-8.64s.37-3.29-.37-6.17c-.58-2.23,1.75-5.93,2.83-7.49,1.13,2.46,2.23,5.05,3.11,7.2l-.33,10.58s2.24,4.94,3.36,5.35,5.61,7.82,5.61,7.82l1.49,6.58s-.37-10.29-1.49-11.11c-1.12-.83-4.86-5.76-5.61-8.23s-.75-8.23-.75-8.23l6.35.83,2.24,5.76,2.99,1.64-2.62-5.35s-2.24-4.94-4.11-4.94-7.48-8.23-7.48-8.23c0,0-5.61-9.88-8.97-12.35s-6.35-9.88-4.49-14.81c1.87-4.94,1.12-12.35,1.49-13.58.38-1.23,1.87,4.94,6.36,9.06,4.49,4.11,7.48,18.1,7.48,18.1,0,0,.75-9.46-1.87-13.58s-8.22-11.11-7.85-15.23c.37-4.11,2.24-11.52,3.74-16.46,1.49-4.94-6.35-12.76-8.6-15.64-.92-1.19-2.88-3.23-5.06-5.42-2.47-4.39-6.52-11.32-8.77-13.51-2.42-2.37-3.87-4.96-5.4-7.98l.17.16c-.54-1.11-.95-2.37-1.3-3.68,2.2.69,5.11,1.94,7.28,2.86,2.43,1.03,5.05,3.91,5.61,7.41s4.11,3.7,5.79,3.7,6.35-3.7,6.35-3.7c0,0-6.54,1.65-8.04,1.65s-2.99-2.88-3.93-4.53c-.93-1.65-1.12-5.35-1.12-5.35,0,0,5.42-.83,6.17-.83s-2.99-1.03-4.49-1.03-3.18,1.03-4.11,1.44c-.93.41-3.36-3.08-5.79-3.08-1.48,0-3.1-.77-4.4-1.55-.74-4.3-.92-8.97-1.4-12.65-.75-5.76-1.5-11.11-2.99-15.23-1.49-4.11-1.12-7.82,4.11-4.11,3.68,2.61,8.46,5.21,10.98,6.52,1.91,1.93,3.49,3.97,3.95,5.77l-1.85,9.52s4.49,1.65,6.35,3.7c1.87,2.06,4.86,8.64,4.86,8.64,0,0,0-9.05-1.87-10.29-1.87-1.24-5.61-4.94-5.61-4.94l1.47-3.56c4.53,2.08,11.99,2.74,11.99,2.74l7.85-2.88s-8.97-.83-12.71-1.24-8.6-4.53-11.96-9.05c-3.37-4.53-8.97-8.23-10.84-9.46-1.87-1.24,7.47-4.12,7.47-4.12,0,0-5.61.41-8.22,1.24-2.62.83-5.23-.82-7.1-4.53-1.87-3.7-6.73-15.23-6.73-15.23,0,0-.18-.06-.45-.07-2.11-6.9-4.48-14.09-6.66-22.15-5.23-19.34.37-52.26,7.85-74.07.15-.45.32-.89.49-1.33l.26-.31c5.61-7.41,7.48-9.46,9.35-7,1.87,2.47,2.24,5.76,6.73,10.7,4.49,4.94,2.62,4.94,1.12,8.23-1.49,3.29-2.62,6.58-4.49,12.75-.51,1.68-.84,3.42-1.04,5.15-1.94,1.82-7.71,7.14-10.18,8.84-2.99,2.06-3.74,11.11-3.37,12.75.38,1.65-3.36,9.88-3.36,9.88l-.38,11.93s2.99-9.87,3.36-11.93,2.62-6.17,2.62-6.17c0,0,4.49,2.47,5.98,4.11,1.5,1.65-.75,9.46-.75,9.46,0,0,3.74-4.94,3.74-6.58s-1.5-6.17-3.74-7c-2.24-.82-4.49-2.88-4.86-5.76-.38-2.88.37-6.17,2.62-8.64,1.65-1.82,5.95-5.2,8.09-6.86.02,3.12.49,5.99,1.25,8.09,1.5,4.11,5.61,12.76,6.73,11.93,1.12-.82-2.99-6.99-4.49-10.29-.1-.21-.19-.47-.27-.78l1.77,3.25s2.99.41,5.23.41,8.22,3.7,8.22,3.7l2.24-3.29h-4.11l-5.98-2.06-7.56-2.77c-1.07-5.11-.73-18.26,6.81-29.33,2.24-3.29,5.98-.41,13.46,5.76,7.48,6.17,4.11,10.7,4.86,15.22.75,4.53-1.49,14.41-2.99,18.52-1.5,4.12-7.48,9.06-10.47,10.29-2.99,1.24-8.22,2.47-10.84,5.35-1.87,2.05-4.11,7.87-5.24,12.99l-10.08,3.06,9.7-1.15c-.22,1.33-.35,2.57-.35,3.62,0,5.35-2.24,16.46-2.24,16.46l4.11-7.82s0-15.64,4.86-22.63c4.86-7,12.34-5.35,12.71-4.12.37,1.24-4.86,12.76-5.61,16.05-.66,2.9-1.9,6.12-.65,8.53-.8,2.09-3.09,8.21-3.09,9.57,0,1.65,3.74,5.35,5.23,6.17,1.5.83,2.99,9.46,2.99,9.46l1.5,13.17s.75-9.47.37-11.94c-.37-2.47-.37-5.35-1.12-7.41s-1.5-5.76-3.37-6.99c-1.87-1.24-1.87-4.94-1.49-6.59.16-.7.58-1.76,1.03-2.76,2.03,2.77,4.78,6.86,10.19,10.17.81.5,1.67,1.18,2.56,1.98-.19.24-.32.64-.32,1.31l-2.24,12.76s6.35,4.11,7.48,4.94c1.12.82,6.73,7.82,6.73,7.82,0,0-3.37-7.82-4.49-9.05-1.12-1.24-7.48-2.88-7.1-5.76.28-2.14,1.59-7.24,2.24-9.71,5.87,6.36,11.96,16.29,11.96,16.29l-4.78-9.83c1.14.12,4.18.45,6.27.78,2.62.41,5.98,3.7,5.61,6.99-.37,3.29.75,5.35,1.87,7.41s1.12,10.7,1.12,10.7l1.87-7.82s-3.36-7.41-2.62-9.88c.75-2.47-1.49-8.64-4.11-9.05-2.6-.41-10.73-.82-10.83-.82l-3-6.18s-16.45-14.4-16.45-18.93c0-1.93,1.77-6.41,4.29-11.51,1.28.11,9.82.87,13.28,1.63,3.74.83,4.86,9.05,5.98,11.52,1.12,2.47,7.48,3.29,8.97,3.29s7.48,9.46,7.48,9.46c0,0-2.62-6.99-3.74-9.05s-5.23-2.06-7.1-2.88c-1.87-.83-3.36-4.94-.75-4.53,2.62.41,7.85-4.53,7.85-4.53,0,0,5.98-1.65,7.85-1.23,1.87.41,6.35-4.11,6.35-4.11,0,0-7.1,1.65-9.35,2.06-2.24.41-8.97-.41-10.09,2.06s-6.35,2.47-6.35,2.47c0,0-1.5-3.7-2.99-4.53-1.5-.82-2.25-5.35-5.98-4.12-3.37,1.11-6.43-3.45-7.27-5.26,2.57-4.49,5.33-8.76,7.64-11.61,6.36-7.82,8.22-32.92,8.22-32.92,0,0,6.73,5.35,8.97,9.47.8,1.46,1.83,3.91,2.9,6.67-3.29,2.96-9.53,8.9-9.25,11.03.37,2.88,4.11,11.11,4.11,11.11l-4.86,7.82s7.11-4.53,7.11-6.58-1.5-4.94-2.62-7.82-1.12-5.76,1.12-7.41c1.45-1.06,4.14-2.98,5.87-4.21,1.43,3.91,2.76,7.8,3.47,9.97,1.49,4.52,7.85,10.28,7.85,10.28,0,0-4.04-7.06-5.67-13.05,2.19.24,7.13.8,8.28,1.12.76.21,2.29-.22,3.52-.53-1.61-.74-3.9-2.35-5.38-2.35h-6.73l-.07.17c-.19-.94-.3-1.83-.3-2.63,0-6.17-6.73-22.22-11.21-25.92-.75-1.23,4.86-4.94,4.86-4.94l4.11,3.7,6.35-1.24,5.24.41-4.11-2.88-5.24.82-4.49-3.7,5.98-1.64,1.87-8.64-4.48,7s-7.48-1.23-7.85.82c-.27,1.46-3.18,5.63-4.83,7.91-2.93-2.82-7.27-7.25-11.84-11.88-3.8-4.4-10.29-11.98-12.36-14.83-2.99-4.11-4.24-15.09-5.48-19.48-1.25-4.39,4.49-14.77,6.73-16.15,1.57-.96,4.23-2.45,6.8-2.51,11.13,4.23,30.58,26.88,37.07,45.82,7.47,21.81,13.08,54.73,7.85,74.07-5.23,19.34-11.59,33.75-12.71,51.03-.57,8.73-1.51,17.45-2.31,23.95-.65,1.88-1.65,4.54-2.36,5.06-1.12.82-3.93,2.88-6.35,2.88s-4.86,3.5-5.8,3.08c-.93-.41-2.62-1.44-4.11-1.44s-5.23,1.03-4.49,1.03,6.17.83,6.17.83c0,0-.19,3.7-1.12,5.35s-2.43,4.53-3.92,4.53-8.04-1.65-8.04-1.65c0,0,4.67,3.7,6.35,3.7s5.23-.21,5.8-3.7c.56-3.5,3.18-6.38,5.6-7.41,2.43-1.03,5.8-2.47,8.04-3.08,2.24-.62,2.43.62,1.12,2.88s-.56,5.76-1.87,8.02c-1.31,2.26-3.18,7.61-4.67,9.87-1.49,2.27-2.62,6.59-3.36,7-.75.41-3.55,2.67-3.55,2.67,0,0,3.37-1.64,3.55-.41.19,1.24.37,7,1.12,8.85s-.75,5.76-.75,6.79,4.86,8.64,4.86,8.64c0,0-3.93-7.82-3.55-8.44.37-.62,1.31-5.76.56-8.02-.75-2.26-1.68-8.23-.56-10.08,1.12-1.85,2.43-5.76,2.62-5.14s2.06,2.47,3.55,3.5,3.18,3.91,2.99,3.29-3.36-6.17-4.86-7.82.19-4.94,1.31-7.2,4.49-9.05,5.61-10.49c.55-.71,1.15-2.11,1.61-3.36.41,1.13.96,2.64,1.2,3.56.38,1.44,2.8,4.73,2.62,8.23-.19,3.5,6.54,8.43,6.54,8.43,1.12,1.44-.75,4.12-1.68,6.18s1.87,3.7,1.87,3.7c0,0-.37-4.32.56-4.94s1.87-2.88,1.5-4.32c-.38-1.44-3.18-4.53-5.61-6.17-2.43-1.65-.75-4.12.56-5.56s2.62-2.88,3.74-2.06c1.12.83,4.3-2.06,5.04-2.26.75-.2,2.99-3.08,2.99-3.08,0,0-3.74,2.88-5.23,3.5-1.49.62-5.05-.41-6.17.21-1.12.62-2.81,3.7-2.81,3.09,0,0-.93-8.98-1.68-12.83-.75-3.84,0-9.88.75-14.27.75-4.39,1.99-7.68,2.74-10.42.75-2.74,2.74-4.94,5.98-4.11.83.21,1.7.42,2.55.62,1.17.72,2.4,1.57,3.68,2.54,7.1,5.35,12.71,8.23,10.47,22.22s-3.74,22.63-5.98,28.4c-2.24,5.76-.37,8.23-9.35,12.35-3.05,1.4-5.39,3.17-7.18,4.91-1.86,1.17-3.47,3.16-3.47,3.52,0,.21-.37,1.09-.85,2.15-.31.58-.46.94-.46.94l.04-.04c-.89,1.89-1.91,3.95-1.91,3.95,0,0-3.18-1.44-4.86-1.65-1.69-.21-3.55.83-1.87,1.23,1.68.41,3.18,0,3.18,0,0,0,2.8,2.27,2.62,4.32-.19,2.06-1.12,5.76-.75,7.41s-1.31,3.91-1.87,5.56-1.87,2.26-3.55,2.47c-1.68.2-3.55.2-3.55.2,0,0-2.24-1.23-5.61-.41-3.36.82-4.86-.62-4.86-.62,0,0,.56,3.09,1.12,2.88.56-.2,5.23-1.44,6.92-1.23,1.68.21.19,2.47-.38,3.7-.56,1.23-4.86,2.68-7.1,3.09-2.24.41-4.49,3.29-2.99,2.47s5.61-1.64,5.61-1.64l5.23-1.65,1.68-5.14,7.66-1.65s0,3.7-.37,5.15c-.38,1.44-.38,6.79-.38,6.79l1.31,8.43s-.38,2.88-.93,3.29c-.56.41-2.81,1.65-2.81,1.65l-6.91,2.06,5.98-.62-1.12,3.91s-5.05,3.29-5.98,3.7c-.93.41-3.74.41-3.74.41l3.93,1.64s7.29-4.52,7.1-5.14c-.18-.62,1.12-5.55,2.43-5.55s3.93-2.27,3.93-2.27c0,0,1.87,5.14,1.87,6.58s-.56,5.97-1.12,6.79-1.87,4.11-1.31,5.35c.56,1.24-.38,4.12-1.12,4.53-.75.41-3.55,2.88-3.55,2.88,0,0,3.55-1.03,4.11-1.44s4.49-2.06,2.62-4.73.56-6.79.56-6.79c0,0,1.31-5.56,1.31-4.94s2.81,1.44,3.93,3.09c1.12,1.64,1.31,4.32,1.31,4.32l.19,3.7s1.87,2.67,2.99,2.88,3.37,2.26,3.37,2.26l.93,7s.56-8.23,0-8.44c-.56-.2-4.67-1.85-4.86-3.91-.19-2.06-1.12-4.73-1.12-4.73,0,0,2.43,1.03,3.74.62s3.37-1.65,3.93-2.47,1.68-2.06.93-2.06-4.3,4.32-5.79,3.29c-1.5-1.03-5.61-6.17-6.73-7.2-1.12-1.03-5.98-11.11-5.98-11.11,0,0-.56-5.56-.93-8.44-.38-2.88.56-12.76.56-12.76l3.36-5.14s-.56-4.73-.93-6.59c-.37-1.85,1.87-7.82,2.8-8.64.79-.7,4.78-5.65,6-7.16,1.23-.72,2.49-1.32,3.72-1.68,5.61-1.65,8.22-4.53,8.6,2.47.15,2.78.24,5.54.29,7.88-.14.65-.3,1.25-.48,1.59-.56,1.03-2.62,2.26-4.11,2.68-1.49.41-2.99,2.06-2.99,2.06,0,0,4.49-1.24,6.35-2.26,1.87-1.03,0,5.56-.37,8.23s-.93,7-.93,7c0,0-2.24,2.47-3.55,2.47s-5.42,1.03-6.73,1.65-3.74.82-3.74.82c0,0,2.06,2.47,2.8,1.65.75-.82,3.37-1.85,5.24-2.06s4.49-1.44,4.49-1.44c0,0-2.43,4.73-3.93,6.79s-2.99,3.29-4.3,4.32-2.62,3.91-2.99,4.94c-.25.68.32,3.85.62,5.52-.14-1.78.12-4.7.12-4.7,0,0,2.06-3.91,2.99-4.73s3.55-2.67,3.55-2.67c0,0,1.5,4.32,1.87,5.55.37,1.24.56,6.38.56,6.38,0,0,1.12-7,.38-7.2-.75-.21-1.49-3.91-1.12-5.76s2.62-4.32,4.11-7.2,3.74-.21,4.49,1.23c.75,1.45,1.87,4.94,1.31,6.17-.56,1.24-.75,3.3-.56,4.94.19,1.65,1.49,5.76.37,6.38-.75.41-2.09,3.77-2.83,5.58,1.17-1.62,3.91-4.14,4.51-4.97.75-1.03,0-5.14-.75-6.99-.75-1.85.37-3.09.37-3.09l4.49,1.85s3.74-.41,2.99-.62-5.05-1.24-5.98-2.67c-.93-1.44,0-5.35-1.5-6.59-1.49-1.23-4.86-7.4-4.86-7.4,0,0,.38-8.03,1.12-9.47.75-1.44,1.87-6.38,1.87-8.23l-.03-.03c.23-1.43.25-3.01-.16-4.7-1.49-6.17-2.99-7.82-1.12-14.4s4.11-16.87,4.11-16.87c0,0,2.44,6.8,5.61,12.38-.33,1-.84,2.34-1.5,3.05-1.12,1.24-1.31,4.53-.56,5.76s2.24,4.53,2.43,5.55c.19,1.03,1.12,6.38,1.12,6.38,0,0,.75-6.17.19-7.4-.56-1.24-2.8-6.18-2.62-7.41.19-1.24,1.68-4.11,1.68-4.11l-.09-.69c1.45,2.4,3.03,4.45,4.57,5.42,0,0-.74-1.63-1.71-3.81,1.1-.23,3.56-.71,4.14-.71.75,0,3.55,2.06,4.11,2.26s4.11-1.24,4.11-1.24c0,0-1.49-.41-2.62.21-1.12.62-3.36-1.03-4.86-1.85s-4.67,0-5.23.21l-.04.24c-1.25-2.85-2.74-6.33-3.52-8.47-1.49-4.11-2.99-10.29-1.87-16.87s-1.12-12.35,4.86-6.58c5.98,5.76,12.71,9.87,15.32,22.22,2.62,12.35,5.61,13.99,1.5,19.34s-9.35,11.52-9.35,11.52c-4.86,2.88-10.84,6.99-11.59,9.88-.75,2.88,1.12-.41,4.86-2.88s7.85-4.11,7.85-.82c0,0,.18,7.61.93,11.11s.75,8.64.19,12.14-.93,8.44-.56,10.7c.38,2.26-1.87,1.03-4.3,1.03s-5.98,8.02-5.98,8.85-2.8,5.97-4.11,5.76-5.04,4.32-5.04,4.32c0,0,5.23-3.29,6.73-4.11,1.49-.82,3.55-4.32,3.55-4.32,0,0,.93,2.68,1.12,3.29.19.62-.19,4.53-1.12,4.73-.93.21,2.06,2.88,2.06,2.88l-.38-3.29,1.12-2.68s-1.68-2.88-1.87-4.11c-.19-1.23,0-3.29,1.12-4.52,1.12-1.24,2.62-3.5,4.86-3.29s3.17,2.47,3.17,4.94-.56,4.73.75,6.38.75,6.99.75,6.99l1.68,3.29-.37-5.55s0-3.5-.56-5.35-.93-4.32-.93-5.76-.38-3.91-.38-4.94-.37-4.52-.37-5.35-.56-3.5.37-4.94.93-3.7,1.12-5.97c.19-2.26,1.5-3.29,3.18-.41,1.69,2.88,3.74,7.2,4.3,8.02.56.83.19,2.47-1.31,3.5-1.49,1.03-2.99,3.5-2.99,4.32s-.19,8.23-.19,8.23c0,0,.94-.82.94-2.67s0-4.94.56-6.38,2.81-2.47,3.37-2.06,3.55,3.08,4.67,5.14c1.12,2.06,1.5,4.73.19,4.73s-4.49,1.44-4.86,2.26-2.8,1.85-2.8,1.85c0,0,.56-.2,2.43-1.03,1.87-.82,4.49-1.85,5.04-1.65.56.2,1.87-1.03,2.43,0s1.31,3.29.93,4.94c-.37,1.65.37,7.2.37,7.2,0,0,0,4.32-.37,5.56s1.31-2.88,1.31-3.91v-3.7s1.68-1.65,2.43.41,3.36,2.88,3.36,2.88c0,0-1.87-2.26-2.24-3.7s-2.99-.62-2.99-1.64c0,0-.19-9.26-1.87-12.14s-4.67-8.23-4.67-8.23c0,0,2.8-.62,5.23-1.24,2.43-.62,6.54,0,6.73,2.88s2.99,6.59,3.55,6.79c.56.21,5.98,2.47,5.98,2.47,0,0-5.61-3.29-6.73-5.35-1.12-2.06-2.06-5.97-2.43-6.99-.38-1.03,0-.41,2.05,0,2.06.41,3.37-2.47,3.74-3.09s-2.8,1.44-4.48,1.03c-1.68-.41-5.04-.82-6.54-.21-1.5.62-5.23,1.03-6.35,0s-3.93-4.53-5.04-7.82c-1.12-3.29-3.55-5.35-5.61-7.82-1.1-1.31-2.14-3.97-2.87-6.16-.22-2.78-.29-6.04.25-8.24,1.12-4.53,2.62-8.64,5.61-11.52,2.99-2.88,4.49-3.29,4.49-3.29,0,0,1.47,4.86,4.67,11.12-.49,1.08-1.82,3.98-2.42,5.14-.48.91-1.02,2.24-1.12,3.88-1.3-.05-3.88-.12-4.3.03-.56.21-2.43,2.47-2.43,2.47,0,0,2.24-1.24,2.99-1.03s3.36.21,3.36.21c.17.04.31,0,.44-.09.06.49.15.99.31,1.53.93,3.08-.37,8.85-.37,9.46s2.24-4.94,2.43-6.79-.93-4.94-.56-5.97,2.99-6.38,2.99-6.38c1.58,2.84,3.26,4.83,4.74,6.21l-.26-.04s-.75,4.32,0,5.14,2.8,4.11,2.99,4.73c.19.62-1.31,5.97-1.31,5.97,0,0,2.24-3.5,2.24-5.14s-1.87-4.73-2.05-5.35c-.14-.44-.27-2.86-.33-4.22,1.73,1.34,2.95,1.75,2.95,1.75,0,0-6.36-5.76-8.6-12.35-2.24-6.59-5.98-18.11-6.35-25.92-.38-7.82-4.49-15.64-6.36-17.7s-2.24-3.29,2.25-3.29,6.73-3.29,11.21,2.06c4.49,5.35,10.09,8.64,10.09,8.64,0,0-3.74-3.7-6.73-7.82-2.99-4.12-5.23-7.82-9.72-7s-8.6,3.29-14.58-3.29c-5.98-6.58-8.97-13.58-13.08-18.11s-11.96-10.7-14.95-18.11c-2.99-7.41,0-20.16,2.99-26.75,2.99-6.58,8.22-11.11,13.83-4.11,5.6,7,15.32,11.93,15.7,20.16.08,1.89.2,4.01.42,6.27-.62.47-3.38,2.54-4.54,3.81-1.31,1.44-5.98,3.08-7.1,2.26-1.12-.83-6.54-2.47-6.54-2.47l-4.3-4.53,3.36,5.14,2.8,1.65s-2.05,3.09-3.55,3.09-4.49-1.44-4.49-1.44l-2.62,1.23s2.62-.2,3.74.41c1.12.62,5.42,1.44,5.42,1.44l1.5-2.88s2.8.21,4.11.62,3.92-.41,5.05-.62c1.12-.2,2.62.41,2.62.41,0,0,.37,3.7-1.87,4.32s-5.04,5.76-5.04,5.76l.37,8.02s.56-6.38.56-7,2.43-1.85,2.43-1.85l1.68,3.29,3.55-.41-2.24-1.24-2.06-2.68s1.87-2.26,2.43-2.26,1.31-3.09,1.31-3.09c0,0,.18-2.68,1.31-3.91.89-.97,1.89-3.1,2.73-2.52,1.17,6.55,3.74,13.71,9.79,19.6,9.72,9.47,19.81,20.99,19.81,20.99l.85.08,1.27,2.94-1.74,4.66,1.5,4.94-3.74,6.86,4.98-5.49s2.49,2.47,3.74,3.29,0,4.94-2.74,7.13-4.74,3.57-7.23,3.84c-2.49.27-4.73,3.29-5.98,4.66-1.24,1.37-1.74,8.23-1.74,8.23,0,0,2.74-4.94,2.99-6.03.25-1.1,1.74-3.57,2.99-4.12s5.73-.82,5.73-.82l2.74,8.23-1.25-9.05s4.73-2.87,6.8-4.98c.52,1.7,1.16,4.25.93,5.67-.38,2.26,1.49,4.94,1.49,4.94v-6.79c0-1.19-.85-3.74-1.45-5.41.38-2.04-.39-6.41-2.78-8.51-2.49-2.2-4.49-5.21-3.98-6.31.5-1.1,1-6.31,1-6.31,0,0,5.73,2.74,6.73,3.02,1,.27,6.23,1.1,7.23,1.92,1,.83,4.73,2.75,4.49,1.92-.25-.82-3.49-4.12-3.49-4.12,0,0-5.24-.82-7.23-1.92-1.35-.74-6.54-2.85-9.79-4.15-3.47-3.34-10.31-10.02-14.63-14.78-5.98-6.59-12.71-16.05-13.08-25.1-.38-9.05-1.12-13.58,5.23-10.29,5.83,3.02,20.46,10.9,27.16,19.5.63,3.35-.13,7.94-.13,7.94,0,0-1.99,2.75-2.74,2.47s-4.24.82-5.48,1.37c-1.25.55-4.98.82-4.98.82l2.74,1.65s3.99-1.65,4.98-2.19c1-.55,4.99,0,4.99,0l.25,4.39s-3.24,3.57-4.49,4.66c-1.24,1.1-4.98,1.92-4.98,1.92l5.73-.55.93-.7,4.56-3.42s0-6.04.25-7.41c.2-1.13,1.74-3.89,2.28-4.85,4.95,8.08,9.98,15.41,11.92,17.19,2.24,2.06,3.36,9.88,3.36,14.82,0,3.76.42,6.57-.52,10.78l-4.2,11.43c-1.43,3.24-2.73,5.87-3.87,8.66-.46,1.11-.83,2.31-1.12,3.51-.54.62-1.08,1.29-1.37,1.84-.75,1.37-3.24,5.21-4.24,5.21h-6.48l-4.49,6.58-4.73,3.02s5.98-.82,5.98-1.92,3.74-4.66,5.73-5.21c1.99-.55,4.49.82,4.49.82l-1,6.03,2.74-6.86,2.49,2.47s2.24,5.21,2,8.5c-.25,3.29-2,3.84-3.74,4.39-1.74.55-4.98,3.57-5.98,4.94s-3.74,6.31-3.74,6.31c0,0,4.73-3.57,5.48-5.76s3.49-3.84,5.23-4.11c1.75-.27,3.99-2.47,3.99-2.47,0,0,2.24,3.29,3.74,4.39s-.25,4.12-2.24,5.49-4.24,5.21-6.23,6.86c-1.99,1.65-4.48,5.76-5.48,7.13s2.49,5.21,2.49,5.21l-1-5.21s2.74-4.39,4.99-5.76c2.24-1.37,3.48-3.57,3.48-3.57,0,0,.25,6.04.25,8.23s1.24,10.15,1.24,10.15l.5-9.05-.5-10.15,6.23-8.5-4.74-5.49s-1.74-5.21-1.5-6.86c.25-1.65-.49-4.66-1.74-5.76s-1.74-4.12-1.25-5.76c.3-.98.59-3.21.78-4.87,1.5-3.95,3.33-8.45,4.5-10.24.79-1.05,1.57-2.05,2.19-2.73,1.99-2.19,1.25,3.02,1.75,5.76.5,2.74,1.24,6.31,1,7.41-.25,1.1-4.24,6.86-4.24,6.86l5.73-5.21s1.25,2.74.75,4.39c-.5,1.65-.75,10.15-.75,10.15l2.99,6.31,2.24,13.99-.25-14.82s-4.99-5.21-3.74-9.05c1.24-3.84,1.49-11.52-.25-13.17-1.74-1.65-2.99-8.5-3.24-12.62-.25-4.11,2.49-8.5,2.49-8.5l4.99,9.6,6.73,11.25-2.99,7.13,4.24-6.03s5.48,4.94,5.48,6.03-1.24,7.96-2.49,9.88-3.74,6.59-4.49,8.78c-.75,2.2,1,9.05.75,7.41-.25-1.65,1.24-6.04,1.24-6.86s3.99-6.86,3.99-6.86c0,0,3.98,4.39,4.73,6.31.75,1.92.25,10.98.25,10.98,0,0,1.75-10.98,1.5-11.8-.25-.83-4.98-7.13-4.98-7.13,0,0,3.48-8.23,1.24-11.52-2.24-3.29-8.22-11.8-8.22-11.8l9.47,1.65s2.99,3.29,4.73,4.12c1.74.83,7.98,6.31,8.72,7.13.75.82,3.49,7.13,3.74,9.05.25,1.92,6.73,5.76,6.73,5.76l-4.98-6.86s-1.08-3.46-2.32-6.31h3.31c2.24,0,4.23-2.47,5.24-1.65.99.82,4.98,0,8.97.27,3.99.28,8.47-4.94,8.47-4.94l-5.24,3.02s-7.72,1.65-9.72,0c-1.76-1.45-10.06.71-12.03,1.25-.41-.73-.82-1.3-1.18-1.53-1.74-1.1-12.21-9.6-12.21-9.6,0,0,4.73.55,5.98.82,1.25.27,5.48,1.1,6.98-.55,1.49-1.65,6.23-4.11,8.48-3.01,2.24,1.1,11.21-1.65,11.21-1.65,0,0-9.22.55-10.72-.82s-7.48,2.19-10.22,4.12c-2.74,1.92-13.21-1.37-13.21-1.37l-12.59-1.31c-2.76-5.05-6.65-12.48-7.59-15.84-1.5-5.35-2.99-15.22-2.99-16.87s-.37-3.29,5.98.83,8.22,1.24,13.83,10.7c5.61,9.46,12.34,13.58,12.34,13.58,0,0-6.36-5.35-7.85-10.29-.41-1.34-1.14-2.89-2.1-4.49,1.38.09,3.38.14,5.21-.17,3.24-.55,6.73-2.2,8.47-2.2s6.73,1.37,10.47,4.11,11.46-1.92,11.46-1.92l-7.73.55s-9.72-1.65-11.72-3.84c-1.8-1.98-15.21.52-17.77,1.01-2.5-3.55-5.77-6.99-8.64-8.7-4.86-2.88-11.22-4.12-16.08-13.17-4.86-9.05-7.48-13.17-9.35-16.05-1.87-2.88-.75-4.11,6.36-4.11s20.56-4.94,26.16-2.47c3.97,1.75,9.43,4.52,13.75,6.73-.24,1.46-1,5.46-2.41,7.67-1.74,2.75-4.49,4.66-4.49,4.66,0,0,1,4.39,1.24,8.23.25,3.84-1.74,6.31-1.74,6.31l3.49-1.37s.5-8.23-.25-9.6,2.24-6.59,3.49-7.41c.32-.21.82-.78,1.38-1.51.84.93,2.86,3.28,2.86,4.8,0,1.92,3.99,6.58,7.73,9.05,0,0-3.99-3.57-4.49-6.86-.5-3.27-4.2-9.53-4.23-9.6.61-.9,1.16-1.73,1.52-2.3.16.08.32.16.47.24,4.11,2.06,10.84,10.7,15.7,10.7.42,0,.9-.01,1.41-.03l3.58,2.36s3.99,7.68,4.49,9.32c.5,1.65,7.97,1.65,9.72,2.2,1.74.55,5.48,7.68,4.73,5.76-.75-1.92-2.24-6.58-2.24-6.58l-9.47-2.47-5.21-10.93c4.69-.36,9.45-.87,9.45-.87,0,0-12.34-1.24-15.7-1.65-3.36-.42-13.08-7.41-16.45-11.11-3.37-3.7-11.59-7-14.58-8.23s0-4.11,7.85-5.35c1.21-.19,2.48-.33,3.77-.45,1.58.75,5.21,2.48,7.69,3.74,3.24,1.65,5.49,7.13,6.23,7.95.75.83-1.25-6.31-1.25-6.31l-4.73-3.84-3.58-1.85c5.9-.29,12.08-.2,17.12-.48,1.51,1.35,4.17,3.81,5.39,5.35,1.75,2.2,7.23,3.84,7.23,3.84l7.48,10.7-5.48-12.07-6.98-2.74-3.8-5.73c6.1-1.7,11.77-5.93,16.14-3.87,2.32,1.1,5.73,2.75,8.86,4.15l3.23,10.39,7.72,7.41-6.23-8.23-2.24-8.23-2.18-1.2c3.8,1.69,7.09,2.97,7.29,2.29.22-.73-4.09-3.23-8.47-5.3l2.61-2.66,7.48-1.1,6.73-3.56-8.72,2.2-6.98.27-3.06,3.96c-2.27-1-4.37-1.78-5.66-2.04-3.69-.74-10.07.51-15.39,1.96l2.93-5.53,8.97-1.92,6.48-4.66,6.98-5.49-8.97,3.57-6.23,4.66-9.97,2.47-2.49,4.94-1.38,2.85c-4.39.67-12,.58-18.48.9.29-1.31,1.38-5.95,2.66-7.6,1.49-1.92,2.24-7.68,2.24-7.68,0,0-3.74,7.41-5.48,9.6-1.31,1.65-2.05,4.52-2.34,5.86-2.52.2-4.72.5-6.25,1-6.35,2.06-19.44,6.59-25.79,7.82-6.36,1.24-17.57,2.88-28.41-3.7-10.84-6.59-21.31-13.58-21.31-13.58,0,0,16.45,2.06,20.19-.82,3.74-2.88,15.7-10.29,22.05-7.82,1.4.54,3.96.93,7.11,1.19l5.15,5.12-.48.06s-.75,2.47-1.5,3.7c-.75,1.24-.93,3.91-.75,5.14.19,1.24-1.68,3.91-1.68,3.91,0,0,2.99-2.68,2.8-4.32-.19-1.65,0-4.12.75-5.14.46-.63,1.13-1.81,1.58-2.63l1.47,1.46,7.23,4.39.99,4.12.75-4.67-6.97-4.94-4.43-5.9c10.91.51,24.61.14,24.61.14,0,0-18.62-.74-29.1-2.03l2.68-4.01,6.23-4.11-8.72,3.57-4.28,3.93c-1.03-.2-1.84-.41-2.32-.64-3.42-1.57-9.45-.98-14.45.85l4.85-5.79,7.48-5.49,2.74-4.12-3.74,2.75-8.22,5.48-10.58,10.62c-5.97,1.87-15.45,1.64-24.43-1.43-10.84-3.7-20.19-18.52-23.18-30.45-2.99-11.94-4.86-26.75-4.48-31.28.37-4.53.75-12.76,10.84-8.64,10.09,4.11,16.08,14.81,20.19,19.75l.1.13c.09.89.11,1.93-.1,2.89-.5,2.2-1.49,8.51-2.24,12.07,0,0-1.49,3.84-2.43,5.69-.93,1.85-1.31,4.11-2.8,4.32-1.5.21-3.74.21-5.05.82-1.31.62-4.49,2.26-4.49,2.26,0,0,3.55.62,5.23-1.23,1.68-1.85,4.11-.21,5.05-.42.93-.21-.19,2.47-.19,4.53s-1.87,7.41-1.87,7.41c0,0,3.18-4.53,2.99-7.2s.38-5.55,1.68-6.58c1.16-.91,2.47-4.26,2.75-4.99,1.15,2.49,3.1,5.2,4.6,8.01,2.49,4.66,2.74,12.07,2.74,12.07,0,0,1.74-7.68-1-12.07-2.74-4.39-5.73-9.87-5.23-12.89.49-3.02,2.24-11.8,2.24-11.8,0-.18-.03-.35-.05-.53,4.01,5.34,9.29,13.34,13.76,16.85,5.24,4.11,10.1,14.81,10.1,14.81,0,0-2.24-10.7-4.49-12.76,0,0,6.85,1.65,9.34,1.65s6.73.28,8.22,2.2,7.97,3.57,7.97,3.57c0,0-6.73-3.84-7.97-5.49-1.25-1.65-6.48-2.47-8.73-2.47-1.78,0-9.56-2.43-12.66-3.42-3.92-4.28-9.44-10.7-11.52-14.14-2.99-4.94-5.61-7.82-5.61-7.82,0,0,7.85,6.17,11.22,6.58,3.36.41,13.08,7.41,13.08,7.41l-7.1-6.99s-3.42-1.82-6.75-3.56c.39-.82.85-1.91.96-2.62.19-1.24,1.12-2.47,2.06-2.88.93-.41,4.86-1.24,4.86-1.24l2.43-3.5-2.62,2.26s-5.42,1.65-6.91,2.27c-1.12.46-1.92,3.45-2.26,4.93-2.03-1.05-3.81-1.96-4.47-2.25-1.87-.83-6.73-4.53-8.59-7.41-1.87-2.88-8.6-9.05-4.11-9.46,4.49-.41,20.56,2.06,28.03,5.76,7.48,3.7,19.44,27.16,24.3,30.45,3.46,2.35,11.46,7.18,17.68,9.93l1.39,9.42,7.22,4.94,2,4.11-.25-4.66-5.98-4.94-1.15-7.59c1.16.39,2.2.66,3.02.73,4.39.34,20.05,5.6,25.02,7.3l3.52,2.58,4.74,2.74,3.73,6.31,5.48.27-4.49-1.65s-2.49-7.41-4.49-7.95c-1.44-.4-4.3-1.79-5.79-2.54,2.71-1.67,9.66-5.72,16.6-7.85l-.84.51,4.74,6.58,11.21,1.92-9.47-3.84-3.97-5.65c2.76-.72,5.45-1.07,7.83-.79,0,0-6.99-1.31-16.7,1.99l2.12-10.91-3.99,11.52h.19c-1.9.73-3.87,1.62-5.92,2.75,0,0-4.11,3.29-11.59-.82-7.48-4.12-17.57-6.18-21.68-7.82-4.11-1.65-9.34-5.76-9.34-5.76,0,0,11.21-6.18,14.95-9.47,3.74-3.29,14.58-12.76,23.92-9.46,9.35,3.29,28.03,7.82,32.89,8.23.44.04.91-.02,1.38-.11,1.84,1.13,5.05,3.06,6.59,3.81,2.24,1.1,5.48,4.12,5.73,5.49.25,1.37.75,4.39,2.49,7.41s2.74,6.86,2.74,6.86l.5-4.94s-3.49-5.76-3.49-8.23c0-.73-.3-1.6-.74-2.5l6.48-1.34,4.49,2.47-2.99-4.66-9.36,1.29.07-.02Z"/>
</svg>