<?xml version="1.0" encoding="UTF-8"?>
<svg id="Layer_2" data-name="Layer 2" xmlns="http://www.w3.org/2000/svg" viewBox="0 0 148.59 73.13">
  <defs>
    <style>
      .cls-1 {
        fill: #f7f9fb;
      }
    </style>
  </defs>
  <g id="Layer_6" data-name="Layer 6">
    <path class="cls-1" d="m148.59,43.37c0,10.65-9.92,19.28-22.16,19.28-3.9,0-7.56-.88-10.74-2.42-4.82,7.58-16.07,12.9-29.19,12.9s-24.29-5.29-29.15-12.83c-6.06,5.13-14.57,8.31-24,8.31C14.93,68.61,0,56.45,0,41.45S14.93,14.29,33.35,14.29c3.3,0,6.48.39,9.49,1.12C45.32,6.64,56.91,0,70.83,0c8.5,0,16.13,2.47,21.35,6.41,4.45-3.95,10.79-6.41,17.84-6.41,13.48,0,24.4,9.02,24.4,20.14,0,1.73-.26,3.41-.76,5.01,8.69,2.6,14.93,9.78,14.93,18.22Z"/>
  </g>
</svg>