<?xml version="1.0" encoding="UTF-8"?>
<svg id="Layer_2" data-name="Layer 2" xmlns="http://www.w3.org/2000/svg" viewBox="0 0 161.38 71.49">
  <defs>
    <style>
      .cls-1 {
        fill: #f7f9fb;
      }
    </style>
  </defs>
  <g id="Layer_6" data-name="Layer 6">
    <path class="cls-1" d="m161.38,43.54c0,12.2-14.4,22.09-32.15,22.09-10,0-18.93-3.14-24.83-8.06-5.09,8.17-17.23,13.92-31.38,13.92-15.83,0-29.12-7.18-32.88-16.9-3.56,1.06-7.51,1.65-11.67,1.65C12.75,56.24,0,47.85,0,37.49s12.75-18.74,28.47-18.74c3.77,0,7.38.48,10.67,1.37-.05-.45-.07-.91-.07-1.37C39.07,8.43,50.53.07,64.68.07c8.08,0,15.3,2.73,19.99,7.02,5.21-4.32,13.26-7.09,22.29-7.09,15.72,0,28.47,8.39,28.47,18.75,0,1.05-.13,2.08-.39,3.08,14.98,1.87,26.34,10.88,26.34,21.71Z"/>
  </g>
</svg>