<?xml version="1.0" encoding="UTF-8"?>
<svg id="Capa_1" data-name="Capa 1" xmlns="http://www.w3.org/2000/svg" viewBox="0 0 2037.97 870.87">
  <defs>
    <style>
      .cls-1 {
        fill: #001a20;
      }

      .cls-2 {
        fill: #e9f6fc;
      }

      .cls-3 {
        fill: #ede0c6;
      }

      .cls-4 {
        fill: #7cd1eb;
      }

      .cls-5 {
        fill: #aadfec;
      }

      .cls-6 {
        fill: #427b90;
      }

      .cls-7 {
        fill: #5998b4;
      }
    </style>
  </defs>
  <path class="cls-1" d="m198.99,753.16c1.2,21.28-1.48,59.84-29.54,95.29h-46.33v22.42h370.32v-22.42h-37.72s27.69-30.6,18.24-95.29H198.99Zm238.27,99.8H179.5c-2.49,0-4.5-2.02-4.5-4.51s2.01-4.51,4.5-4.51h257.75c2.48,0,4.5,2.02,4.5,4.51s-2.02,4.51-4.5,4.51Z"/>
  <path class="cls-7" d="m15.55,725.71h566.83c11.39,0,23.6-9.31,27.14-20.7l4.89-15.74h-28.23l-2.57,8.23h-167.42l22.44-70.67,19.18-60.39,5.34-16.82,7.15-22.52h40.2l-2.31,6.97-3.43,10.34-8.77,26.46-5.54,16.7-9.08,27.39c-1.51,4.54-1.96,8.87-1.54,12.8,1.23,11.24,9.86,19.15,22.88,19.15h874.56c17.57,0,36.41-14.37,41.87-31.95L1600.38,31.94c4.34-13.95-.91-25.86-11.92-30.18-2.86-1.12-6.07-1.76-9.64-1.76h-862.06c-17.32,0-36.25,14.38-42.07,31.94l-91.02,274.49H154.28c-11.23,0-23.5,9.31-27.27,20.7L1.71,705.01c-.98,2.94-1.26,5.72-.98,8.26.79,7.3,6.37,12.44,14.82,12.44Zm403.43-106.25l-8.75,27.51-5.35,16.81-10.73,33.73h-179.12l22.46-69.25,19.52-60.16,5.44-16.76,7.86-24.22h178.08l-29.39,92.35Zm391.5-16.07l34.66-106.86,30.12-92.84,8.39-25.85,12.12-37.37h274.76l-45.36,142.5-13.5,42.43-8.25,25.93-16.56,52.04h-276.37Zm609.96-132.36l-13.29,42.59h0l-8.12,26.02h0l-19.88,63.75h-258.3l34.62-109.04,29.58-93.18,8.24-25.95,11.03-34.75h256.8l-40.71,130.54h0Zm88.43-283.63l-13.27,42.59h0l-23.84,76.45h-256.61l30.12-94.85,29.59-93.18,8.23-25.95,13.48-42.45,2.05-6.49h255.11l-44.87,143.87h0Zm-293.74,12.93l-13.5,42.44-8.26,25.93-12.01,37.73h-274.55l29.73-91.63,30.11-92.83,8.38-25.85,13.72-42.3,3.34-10.3h272.95l-49.91,156.8Zm-565.83,38.55l18.64-56.36,20.47-61.93,2.16-6.52,23.32-70.54h244.61l-53.9,165.79-13.75,42.29-8.4,25.84-9.43,29h-246.04l22.33-67.55Zm-53.73,162.5l6.04-18.24,7.9-23.93h0l6.2-18.74h246.24l-48.92,150.44-13.75,42.29-8.41,25.84-14.41,44.34h-247.67l66.79-202.01Zm-23.96-58.58l-3.43,10.34-2.82,8.53-9.05,27.31-5.53,16.69-19.87,59.93-13.08,39.43h-40.51l19.52-61.48,19.17-60.38,5.34-16.82,8.74-27.51,1.34-4.2h42.9l-2.7,8.16Zm-94.32,93.46l-8.75,27.5-5.35,16.81-7.79,24.45h-177.95l19.27-59.39,19.52-60.16,5.44-16.75,8.89-27.42,2.16-6.67h176.91l-32.35,101.63Zm-366.73,24.98l19.82-59.96,5.52-16.7h0l1.24-3.76,7.79-23.56,7.48-22.62h158.54l-34.94,107.45-8.91,27.41-5.45,16.75-6.11,18.79H96.08l14.48-43.79Zm-60.17,182l18.57-56.18,6.78-20.49h0s9.04-27.34,9.04-27.34l4.02-12.14h159.59l-31.7,97.51-8.91,27.4-5.45,16.75-9.34,28.73H32.45l17.94-54.25h0Z"/>
  <path class="cls-4" d="m330.56,341.31l146.73,94.96,32.35-101.63h-176.91l-2.16,6.67Zm21.12,5.62c0-2.29,1.85-4.13,4.14-4.13h129.82c2.29,0,4.14,1.85,4.14,4.13v2.07c0,2.28-1.86,4.13-4.14,4.13h-129.82c-2.29,0-4.14-1.85-4.14-4.13v-2.07Z"/>
  <polygon class="cls-4" points="277.45 505.04 388.49 505.04 296.72 445.65 277.45 505.04"/>
  <polygon class="cls-4" points="316.23 385.48 463.19 480.58 468.54 463.77 321.67 368.73 316.23 385.48"/>
  <path class="cls-4" d="m292.03,537.29c.61-.36,1.29-.63,2.07-.63h129.82c2.29,0,4.14,1.85,4.14,4.14v2.06c0,2.29-1.85,4.14-4.14,4.14h-116.88l111.96,72.45,29.39-92.35h-172.11l15.75,10.19Z"/>
  <polygon class="cls-4" points="257 568.09 404.88 663.77 410.23 646.96 262.44 551.32 257 568.09"/>
  <polygon class="cls-4" points="267.11 469.49 135.9 384.59 130.38 401.29 261.66 486.24 267.11 469.49"/>
  <polygon class="cls-4" points="110.56 461.25 96.08 505.04 178.22 505.04 110.56 461.25"/>
  <path class="cls-4" d="m416.19,697.5h131.64l-12.73-8.23h-11.11c-20.08,0-34.42-16.8-41.07-33.78l-44.29-28.66-22.44,70.67Z"/>
  <path class="cls-4" d="m530.08,338.84l7.55,4.89c.7-.55,1.54-.93,2.5-.93h31.48l2.7-8.16h-42.9l-1.34,4.2Z"/>
  <polygon class="cls-4" points="215.02 697.5 344.5 697.5 237.48 628.25 215.02 697.5"/>
  <polygon class="cls-4" points="202.31 668.77 207.76 652.02 75.74 566.58 68.96 587.07 70.21 583.27 202.31 668.77"/>
  <path class="cls-4" d="m248.37,527.11H88.79l-4.02,12.14,131.91,85.37,31.7-97.51Zm-153.16,13.18v-2.08c0-2.28,1.85-4.14,4.14-4.14h129.82c2.29,0,4.14,1.86,4.14,4.14v2.08c0,2.28-1.85,4.13-4.14,4.13H99.35c-2.29,0-4.14-1.85-4.14-4.13Z"/>
  <path class="cls-4" d="m310.96,334.64h-158.54l-7.48,22.62,131.08,84.82,34.94-107.45Zm-154.74,14.37v-2.07c0-2.29,1.85-4.13,4.14-4.13h129.82c2.29,0,4.14,1.85,4.14,4.13v2.07c0,2.28-1.85,4.13-4.14,4.13h-129.82c-2.29,0-4.14-1.85-4.14-4.13Z"/>
  <polygon class="cls-4" points="477.3 505.04 517.81 505.04 530.89 465.6 496.83 443.55 477.3 505.04"/>
  <polygon class="cls-4" points="495.99 570.88 463.15 549.63 457.81 566.45 490.45 587.57 495.99 570.88"/>
  <polygon class="cls-4" points="565.35 361.67 568.18 353.14 552.18 353.14 565.35 361.67"/>
  <polygon class="cls-4" points="134.23 697.5 50.39 643.25 32.45 697.5 134.23 697.5"/>
  <polygon class="cls-4" points="508.19 534.07 510.5 527.11 479.6 527.11 490.38 534.07 508.19 534.07"/>
  <polygon class="cls-4" points="516 383.18 550.77 405.67 556.3 388.98 521.34 366.35 516 383.18"/>
  <polygon class="cls-5" points="496.83 443.55 530.89 465.6 550.77 405.67 516 383.18 496.83 443.55"/>
  <path class="cls-5" d="m540.13,353.14c-2.29,0-4.14-1.85-4.14-4.13v-2.07c0-1.32.66-2.45,1.63-3.21l-7.55-4.89-8.74,27.51,34.96,22.62,9.05-27.31-13.18-8.53h-12.05Z"/>
  <polygon class="cls-5" points="296.72 445.65 388.49 505.04 455.4 505.04 463.19 480.58 316.23 385.48 296.72 445.65"/>
  <polygon class="cls-5" points="321.67 368.73 468.54 463.77 477.29 436.27 330.56 341.31 321.67 368.73"/>
  <polygon class="cls-5" points="255.55 505.04 261.66 486.24 130.38 401.29 110.56 461.25 178.22 505.04 255.55 505.04"/>
  <polygon class="cls-5" points="276.02 442.09 144.94 357.26 137.15 380.82 135.9 384.59 135.9 384.59 267.11 469.49 276.02 442.09"/>
  <polygon class="cls-5" points="583.61 697.5 586.17 689.27 535.1 689.27 547.83 697.5 583.61 697.5"/>
  <path class="cls-5" d="m481.37,614.96l9.08-27.39-32.64-21.13-19.18,60.39,44.29,28.66c-4.11-10.48-5.32-21.03-3.09-27.73h0c-.43-3.93.03-8.25,1.54-12.8Z"/>
  <path class="cls-5" d="m504.76,544.42h-20.33c-2.29,0-4.14-1.85-4.14-4.13v-2.08c0-2.28,1.85-4.14,4.14-4.14h5.95l-10.77-6.97h-9.31l-7.15,22.52,32.84,21.25,8.77-26.46Z"/>
  <polygon class="cls-5" points="237.48 628.25 344.5 697.5 394.14 697.5 404.88 663.77 257 568.09 237.48 628.25"/>
  <path class="cls-5" d="m294.09,547c-2.29,0-4.14-1.85-4.14-4.14v-2.06c0-1.52.86-2.79,2.07-3.51l-15.75-10.19h-5.98l-7.86,24.22,147.79,95.64,8.75-27.51-111.96-72.45h-12.93Z"/>
  <polygon class="cls-5" points="192.97 697.5 202.31 668.77 70.21 583.27 68.96 587.07 50.38 643.25 50.39 643.25 134.23 697.5 192.97 697.5"/>
  <polygon class="cls-5" points="216.67 624.61 84.77 539.25 75.73 566.57 75.74 566.58 207.76 652.02 216.67 624.61"/>
  <path class="cls-2" d="m160.35,342.8h129.82c2.28,0,4.13,1.85,4.13,4.13v2.07c0,2.28-1.85,4.14-4.14,4.14h-129.82c-2.28,0-4.13-1.85-4.13-4.13v-2.07c0-2.28,1.85-4.14,4.14-4.14Z"/>
  <path class="cls-2" d="m233.31,540.29v-2.08c0-2.28-1.85-4.14-4.14-4.14H99.35c-2.29,0-4.14,1.86-4.14,4.14v2.08c0,2.28,1.85,4.13,4.14,4.13h129.82c2.29,0,4.14-1.85,4.14-4.13Z"/>
  <path class="cls-2" d="m289.95,540.8v2.06c0,2.29,1.86,4.14,4.14,4.14h129.82c2.29,0,4.14-1.85,4.14-4.14v-2.06c0-2.29-1.85-4.14-4.14-4.14h-129.82c-.77,0-1.45.27-2.07.63-1.22.72-2.07,1.99-2.07,3.51Z"/>
  <path class="cls-2" d="m484.42,534.07c-2.29,0-4.14,1.86-4.14,4.14v2.08c0,2.28,1.85,4.13,4.14,4.13h20.33l3.43-10.34h-23.77Z"/>
  <path class="cls-2" d="m355.83,353.14h129.82c2.29,0,4.14-1.85,4.14-4.13v-2.07c0-2.29-1.86-4.13-4.14-4.13h-129.82c-2.29,0-4.14,1.85-4.14,4.13v2.07c0,2.28,1.85,4.13,4.14,4.13Z"/>
  <path class="cls-2" d="m537.62,343.73c-.97.75-1.63,1.88-1.63,3.21v2.07c0,2.28,1.85,4.13,4.14,4.13h28.05l3.43-10.34h-31.48c-.96,0-1.8.38-2.5.93Z"/>
  <path class="cls-1" d="m1494.93,753.16c1.2,21.28-1.48,59.84-29.54,95.29h-46.33v22.42h370.32v-22.42h-37.71s27.69-30.6,18.24-95.29h-274.97Zm251.6,95.29c0,2.49-2.02,4.51-4.5,4.51h-258.03c-2.48,0-4.5-2.02-4.5-4.51s2.02-4.51,4.5-4.51h258.03c2.48,0,4.5,2.02,4.5,4.51Z"/>
  <path class="cls-6" d="m2022.92,327.13l-117.46,377.88c-3.54,11.39-15.75,20.7-27.14,20.7h-566.83c-8.45,0-14.03-5.14-14.82-12.44v.02c-3.79,11.39,7.57,39.87,28.61,39.87h566.84c11.39,0,23.6-9.32,27.13-20.7l117.46-377.88c3.55-11.38.57-43.33-21.51-47.01h-.2c7.23,2.76,10.75,10.45,7.92,19.56Z"/>
  <path class="cls-7" d="m1606.9,334.64l-34.94,107.45-8.91,27.41-5.44,16.75-6.11,18.79h-63.73l-6.86,22.07h63.41l-31.71,97.51-8.91,27.4-5.45,16.75-9.34,28.73h-160.52l2.72-8.23h-28.24l-5.22,15.74c-.97,2.94-1.26,5.72-.98,8.26.79,7.3,6.38,12.44,14.82,12.44h566.83c11.39,0,23.6-9.31,27.14-20.7l117.46-377.88c2.83-9.11-.69-16.8-7.92-19.55-1.81-.69-3.8-1.15-6.04-1.15h-459.45l-8.77,28.21h66.17Zm-95.94,362.86l22.46-69.25,19.52-60.16,5.43-16.76,7.86-24.22h178.09l-29.4,92.35-8.75,27.52-5.35,16.8-10.73,33.72h-179.13Zm395.34-85.78l-1.01,3.23-12.86,41.24h0l-12.88,41.31h-167.42l22.45-70.67,19.18-60.39,5.34-16.82,7.15-22.52h166.44l-26.38,84.61h0Zm57.32-183.83l-8.61,27.6-8.85,28.4-6.6,21.15h-166.31l19.52-61.47,19.17-60.39,5.35-16.82,8.73-27.52,1.34-4.2h165.34l-29.07,93.25h0Zm-190.38,8.38l-8.76,27.5-5.34,16.81-7.79,24.45h-177.95l19.27-59.39,19.52-60.16,5.44-16.75,8.89-27.42,2.17-6.67h176.91l-32.34,101.63Z"/>
  <path class="cls-4" d="m1775.54,527.11l10.77,6.97h123.87c2.29,0,4.14,1.86,4.14,4.14v2.08c0,2.28-1.85,4.13-4.14,4.13h-107.88l103.99,67.3,26.38-84.61h-157.13Z"/>
  <polygon class="cls-4" points="1759.09 549.63 1753.75 566.45 1892.43 656.19 1905.29 614.95 1897.69 639.31 1759.09 549.63"/>
  <polygon class="cls-4" points="1510.96 697.5 1640.44 697.5 1533.42 628.25 1510.96 697.5"/>
  <polygon class="cls-4" points="1773.25 505.04 1887.76 505.04 1792.77 443.56 1773.25 505.04"/>
  <polygon class="cls-4" points="1503.71 652.02 1452.4 618.82 1447.15 635.69 1498.26 668.77 1503.71 652.02"/>
  <path class="cls-4" d="m1430.17,697.5l-17.33-11.22c-4.66,1.89-9.52,2.99-14.29,2.99h-67.44l-2.72,8.23h101.78Z"/>
  <polygon class="cls-4" points="1712.13 697.5 1843.78 697.5 1734.57 626.83 1712.13 697.5"/>
  <polygon class="cls-4" points="1706.17 646.97 1558.38 551.32 1552.94 568.09 1700.82 663.78 1706.17 646.97"/>
  <path class="cls-4" d="m1590.04,536.66h129.81c2.29,0,4.14,1.85,4.14,4.14v2.06c0,2.29-1.85,4.14-4.14,4.14h-116.89l111.96,72.45,29.4-92.35h-172.12l15.76,10.2c.62-.37,1.29-.64,2.07-.64Z"/>
  <polygon class="cls-4" points="1563.05 469.49 1509.57 434.89 1504.33 451.76 1557.6 486.24 1563.05 469.49"/>
  <polygon class="cls-4" points="1573.39 505.04 1684.43 505.04 1592.66 445.65 1573.39 505.04"/>
  <path class="cls-4" d="m1626.5,341.31l146.73,94.96,32.34-101.63h-176.91l-2.17,6.67Zm21.13,5.62c0-2.29,1.85-4.13,4.13-4.13h129.82c2.29,0,4.14,1.85,4.14,4.13v2.07c0,2.28-1.85,4.13-4.14,4.13h-129.82c-2.28,0-4.13-1.85-4.13-4.13v-2.07Z"/>
  <path class="cls-4" d="m1544.32,527.11h-63.41l-2.17,6.97h46.37c2.29,0,4.14,1.86,4.14,4.14v2.08c0,2.28-1.85,4.13-4.14,4.13h-49.59l-14.54,46.78,51.63,33.42,31.71-97.51Z"/>
  <polygon class="cls-4" points="1811.94 383.18 1949.75 472.35 1946.16 483.88 1955.01 455.48 1817.29 366.36 1811.94 383.18"/>
  <polygon class="cls-4" points="1612.18 385.48 1759.13 480.58 1764.47 463.77 1617.62 368.73 1612.18 385.48"/>
  <path class="cls-4" d="m1827.35,334.64l-1.34,4.2,7.55,4.89c.7-.55,1.54-.93,2.5-.93h129.82c2.28,0,4.13,1.85,4.13,4.13v2.07c0,2.28-1.85,4.13-4.13,4.13h-117.77l115.5,74.75,29.07-93.25h-165.34Z"/>
  <path class="cls-4" d="m1606.9,334.64h-66.17l-2.54,8.16h47.91c2.28,0,4.14,1.85,4.14,4.13v2.07c0,2.28-1.86,4.13-4.14,4.13h-51.13l-16.82,54.12,53.8,34.82,34.94-107.45Z"/>
  <polygon class="cls-5" points="1811.94 383.18 1792.77 443.56 1887.76 505.04 1939.56 505.04 1946.16 483.88 1949.75 472.35 1811.94 383.18"/>
  <path class="cls-5" d="m1836.07,353.14c-2.29,0-4.14-1.85-4.14-4.13v-2.07c0-1.32.66-2.45,1.63-3.21l-7.55-4.89-8.73,27.52,137.72,89.13,8.61-27.6h0l-115.5-74.75h-12.05Z"/>
  <polygon class="cls-5" points="1592.66 445.65 1684.43 505.04 1751.35 505.04 1759.13 480.58 1612.18 385.48 1592.66 445.65"/>
  <polygon class="cls-5" points="1617.62 368.73 1764.47 463.77 1773.23 436.27 1626.5 341.31 1617.62 368.73"/>
  <polygon class="cls-5" points="1557.6 486.24 1504.33 451.76 1487.77 505.04 1551.49 505.04 1557.6 486.24"/>
  <polygon class="cls-5" points="1571.96 442.09 1518.16 407.27 1509.57 434.89 1563.05 469.49 1571.96 442.09"/>
  <polygon class="cls-5" points="1734.57 626.83 1843.78 697.5 1879.55 697.5 1892.43 656.19 1892.43 656.19 1753.75 566.45 1734.57 626.83"/>
  <path class="cls-5" d="m1780.36,544.42c-2.28,0-4.14-1.85-4.14-4.13v-2.08c0-2.28,1.86-4.14,4.14-4.14h5.95l-10.77-6.97h-9.3l-7.15,22.52,138.6,89.69,7.6-24.36,1.01-3.23h0l-103.99-67.3h-21.95Z"/>
  <polygon class="cls-5" points="1700.82 663.78 1552.94 568.09 1533.42 628.25 1640.44 697.5 1690.09 697.5 1700.82 663.78"/>
  <path class="cls-5" d="m1714.92,619.46l-111.96-72.45h-12.93c-2.29,0-4.14-1.85-4.14-4.14v-2.06c0-1.52.86-2.79,2.07-3.5l-15.76-10.2h-5.97l-7.86,24.22,147.79,95.65,8.75-27.52Z"/>
  <path class="cls-5" d="m1488.91,697.5l9.34-28.73-51.11-33.07-6.72,21.63c-3.98,12.8-15.07,23.87-27.59,28.96l17.33,11.22h58.74Z"/>
  <polygon class="cls-5" points="1512.61 624.61 1460.98 591.2 1452.4 618.82 1503.71 652.02 1512.61 624.61"/>
  <path class="cls-2" d="m1590.25,349.01v-2.07c0-2.29-1.86-4.13-4.14-4.13h-47.91l-3.21,10.34h51.13c2.28,0,4.14-1.85,4.14-4.13Z"/>
  <path class="cls-2" d="m1529.25,540.29v-2.08c0-2.28-1.85-4.14-4.14-4.14h-46.37l-3.22,10.34h49.59c2.29,0,4.14-1.85,4.14-4.13Z"/>
  <path class="cls-2" d="m1723.99,542.86v-2.06c0-2.29-1.85-4.14-4.14-4.14h-129.81c-.78,0-1.45.27-2.07.64-1.22.71-2.07,1.98-2.07,3.5v2.06c0,2.29,1.86,4.14,4.14,4.14h129.81c2.29,0,4.14-1.85,4.14-4.14Z"/>
  <path class="cls-2" d="m1776.22,538.21v2.08c0,2.28,1.86,4.13,4.14,4.13h129.82c2.29,0,4.14-1.85,4.14-4.13v-2.08c0-2.28-1.85-4.14-4.14-4.14h-129.82c-2.28,0-4.14,1.86-4.14,4.14Z"/>
  <path class="cls-2" d="m1651.76,353.14h129.82c2.29,0,4.14-1.85,4.14-4.13v-2.07c0-2.29-1.85-4.13-4.14-4.13h-129.82c-2.28,0-4.13,1.85-4.13,4.13v2.07c0,2.28,1.85,4.13,4.13,4.13Z"/>
  <path class="cls-2" d="m1831.93,349.01c0,2.28,1.85,4.13,4.14,4.13h129.82c2.28,0,4.13-1.85,4.13-4.13v-2.07c0-2.29-1.85-4.13-4.13-4.13h-129.82c-.96,0-1.8.38-2.5.93-.97.75-1.63,1.88-1.63,3.21v2.07Z"/>
  <path class="cls-1" d="m785.74,689.27c1.86,32.82-2.28,92.33-45.58,147.02h-71.48v34.58h571.36v-34.58h-58.19s42.73-47.22,28.14-147.02h-424.26Zm385.76,147.02c0,2.49-2.02,4.5-4.51,4.5h-417.32c-2.49,0-4.51-2.01-4.51-4.5s2.02-4.51,4.51-4.51h417.32c2.48,0,4.51,2.02,4.51,4.51Z"/>
  <path class="cls-6" d="m785.74,689.27h612.82c4.77,0,9.62-1.09,14.29-2.99,12.51-5.09,23.61-16.15,27.59-28.96l6.72-21.63,5.25-16.87,8.58-27.62,14.54-46.78,3.22-10.34,2.17-6.97,6.86-22.07,16.56-53.27,5.25-16.87,8.59-27.62,16.82-54.12,3.21-10.34,2.54-8.16,8.77-28.21,72.16-232.13c5.46-17.57.88-66.86-33.2-72.54h0c11.01,4.32,16.26,16.23,11.92,30.18l-181.24,583.02c-5.46,17.57-24.3,31.95-41.87,31.95H502.71c-13.02,0-21.65-7.91-22.88-19.15h0c-2.22,6.71-1.02,17.25,3.09,27.73,6.66,16.98,21,33.78,41.07,33.78h90.41l-4.89,15.74c-3.54,11.39-15.75,20.7-27.14,20.7H15.55c-8.45,0-14.03-5.14-14.82-12.44v.02c-3.79,11.39,7.57,39.87,28.61,39.87h566.83c11.38,0,23.6-9.32,27.14-20.7l13.43-43.2h149Z"/>
  <path class="cls-4" d="m932.48,355.22h200.29c3.53,0,6.38,2.86,6.38,6.39v3.19c0,3.53-2.86,6.38-6.38,6.38h-180.34l172.73,111.79,45.36-142.5h-265.54l24.23,15.68c.96-.58,2.07-.93,3.27-.93Z"/>
  <polygon class="cls-4" points="753.68 306.43 649.3 238.88 626.97 306.43 713.01 306.43 753.68 306.43"/>
  <polygon class="cls-4" points="1111.66 525.41 883.64 377.84 875.25 403.7 1103.41 551.34 1111.66 525.41"/>
  <path class="cls-4" d="m904.59,209.3l53.9-165.79h-244.61l-23.32,70.54,11.78-35.64,202.25,130.88Zm-184.84-146.8c0-3.53,2.86-6.38,6.38-6.38h200.3c3.53,0,6.38,2.86,6.38,6.38v3.19c0,3.52-2.86,6.38-6.38,6.38h-200.3c-3.52,0-6.38-2.86-6.38-6.38v-3.19Z"/>
  <polygon class="cls-4" points="882.44 277.43 890.84 251.59 688.41 120.59 667.94 182.52 679.89 146.35 882.44 277.43"/>
  <path class="cls-4" d="m1298.63,43.52l-2.05,6.49,11.57,7.49c1.09-.86,2.43-1.38,3.93-1.38h200.29c3.53,0,6.39,2.86,6.39,6.38v3.19c0,3.52-2.86,6.38-6.39,6.38h-181.7l178.2,115.32,44.87-143.87h-255.11Z"/>
  <polygon class="cls-4" points="1274.86 118.41 1487.48 256 1471.76 306.43 1495.6 229.98 1283.1 92.46 1274.86 118.41"/>
  <polygon class="cls-4" points="810.48 603.39 1010.25 603.39 845.13 496.53 810.48 603.39"/>
  <path class="cls-4" d="m988.75,53.82l226.38,146.5,49.91-156.8h-272.95l-3.34,10.3Zm32.59,8.68c0-3.53,2.86-6.38,6.38-6.38h200.3c3.52,0,6.38,2.86,6.38,6.38v3.19c0,3.52-2.86,6.38-6.38,6.38h-200.3c-3.53,0-6.38-2.86-6.38-6.38v-3.19Z"/>
  <polygon class="cls-4" points="906.8 306.43 1078.11 306.43 936.53 214.8 906.8 306.43"/>
  <polygon class="cls-4" points="966.64 121.97 1193.37 268.7 1201.63 242.76 975.03 96.12 966.64 121.97"/>
  <polygon class="cls-4" points="1120.86 603.39 1323.98 603.39 1155.49 494.35 1120.86 603.39"/>
  <polygon class="cls-4" points="1215.15 306.43 1391.84 306.43 1245.27 211.58 1215.15 306.43"/>
  <polygon class="cls-4" points="685.83 603.39 556.46 519.67 587.06 427.14 790.87 559.05 799.28 533.2 595.57 401.38 528.79 603.39 685.83 603.39"/>
  <path class="cls-4" d="m861.94,340.48h-246.24l-6.2,18.74,203.52,131.7,48.92-150.44Zm-236.31,20.34v-3.2c0-3.52,2.86-6.38,6.39-6.38h200.3c3.52,0,6.38,2.86,6.38,6.38v3.2c0,3.52-2.86,6.38-6.38,6.38h-200.3c-3.52,0-6.39-2.86-6.39-6.38Z"/>
  <path class="cls-4" d="m1218.71,340.48l16.62,10.76h191.1c3.53,0,6.39,2.86,6.39,6.38v3.2c0,3.52-2.86,6.38-6.39,6.38h-166.44l160.44,103.82,40.71-130.54h-242.44Z"/>
  <polygon class="cls-4" points="1185.07 401.17 1399.04 539.64 1407.15 513.62 1193.31 375.23 1185.07 401.17"/>
  <polygon class="cls-5" points="1274.86 118.41 1245.27 211.58 1391.84 306.43 1450.22 306.43 1471.76 306.43 1487.48 256 1274.86 118.41"/>
  <path class="cls-5" d="m1312.08,72.07c-3.53,0-6.38-2.86-6.38-6.38v-3.19c0-2.04.97-3.83,2.46-5l-11.57-7.49-13.48,42.45,212.5,137.52h0l13.27-42.59h0l-178.2-115.32h-18.6Z"/>
  <polygon class="cls-5" points="936.53 214.8 1078.11 306.43 1181.36 306.43 1193.37 268.7 966.64 121.97 936.53 214.8"/>
  <polygon class="cls-5" points="975.03 96.12 1201.63 242.76 1215.13 200.32 988.75 53.82 975.03 96.12"/>
  <polygon class="cls-5" points="873.01 306.43 882.44 277.43 679.89 146.35 667.94 182.52 649.3 238.88 753.68 306.43 873.01 306.43"/>
  <polygon class="cls-5" points="904.59 209.3 702.35 78.43 690.56 114.06 688.41 120.59 890.84 251.59 904.59 209.3"/>
  <polygon class="cls-5" points="1155.49 494.35 1323.98 603.39 1379.16 603.39 1399.04 539.64 1399.04 539.64 1185.07 401.17 1155.49 494.35"/>
  <path class="cls-5" d="m1226.13,367.2c-3.52,0-6.38-2.86-6.38-6.38v-3.2c0-3.52,2.86-6.38,6.38-6.38h9.2l-16.62-10.76h-14.36l-11.03,34.75,213.84,138.39h0l13.29-42.59h0s-160.44-103.83-160.44-103.83h-33.86Z"/>
  <polygon class="cls-5" points="1103.41 551.34 875.25 403.7 845.13 496.53 1010.25 603.39 1086.85 603.39 1103.41 551.34"/>
  <path class="cls-5" d="m1125.17,482.98l-172.73-111.79h-19.95c-3.53,0-6.39-2.86-6.39-6.38v-3.19c0-2.32,1.25-4.34,3.11-5.46l-24.23-15.68h-9.22l-12.12,37.37,228.02,147.57,13.5-42.43Z"/>
  <polygon class="cls-5" points="556.46 519.67 685.83 603.39 776.46 603.39 790.87 559.05 587.06 427.14 556.46 519.67"/>
  <polygon class="cls-5" points="813.03 490.91 609.51 359.21 609.51 359.21 601.61 383.14 595.57 401.38 799.28 533.2 813.03 490.91"/>
  <path class="cls-2" d="m726.13,56.12h200.29c3.52,0,6.38,2.86,6.38,6.38v3.19c0,3.52-2.86,6.38-6.38,6.38h-200.3c-3.52,0-6.38-2.86-6.38-6.38v-3.2c0-3.52,2.86-6.38,6.38-6.38Z"/>
  <rect class="cls-2" x="625.63" y="351.23" width="213.07" height="15.96" rx="6.38" ry="6.38"/>
  <path class="cls-2" d="m1139.15,364.8v-3.19c0-3.53-2.86-6.39-6.38-6.39h-200.29c-1.2,0-2.32.35-3.27.93-1.86,1.12-3.11,3.13-3.11,5.46v3.19c0,3.53,2.86,6.38,6.39,6.38h200.29c3.53,0,6.38-2.86,6.38-6.38Z"/>
  <path class="cls-2" d="m1219.75,357.62v3.2c0,3.52,2.86,6.38,6.38,6.38h200.3c3.53,0,6.39-2.86,6.39-6.38v-3.2c0-3.52-2.86-6.38-6.39-6.38h-200.3c-3.52,0-6.38,2.86-6.38,6.38Z"/>
  <rect class="cls-2" x="1021.34" y="56.12" width="213.06" height="15.96" rx="6.38" ry="6.38"/>
  <path class="cls-2" d="m1305.7,62.5v3.19c0,3.52,2.86,6.38,6.38,6.38h200.29c3.53,0,6.39-2.86,6.39-6.38v-3.19c0-3.53-2.86-6.38-6.39-6.38h-200.29c-1.49,0-2.84.53-3.93,1.38-1.48,1.17-2.46,2.96-2.46,5Z"/>
  <path class="cls-3" d="m749.67,831.78c-2.49,0-4.51,2.02-4.51,4.51s2.02,4.5,4.51,4.5h417.32c2.48,0,4.51-2.01,4.51-4.5s-2.02-4.51-4.51-4.51h-417.32Z"/>
  <path class="cls-3" d="m437.25,843.95H179.5c-2.49,0-4.5,2.02-4.5,4.51s2.01,4.51,4.5,4.51h257.75c2.48,0,4.5-2.02,4.5-4.51s-2.02-4.51-4.5-4.51Z"/>
  <path class="cls-3" d="m1484,843.95c-2.48,0-4.5,2.02-4.5,4.51s2.02,4.51,4.5,4.51h258.03c2.48,0,4.5-2.02,4.5-4.51s-2.02-4.51-4.5-4.51h-258.03Z"/>
</svg>