<?xml version="1.0" encoding="UTF-8"?>
<svg id="Layer_2" data-name="Layer 2" xmlns="http://www.w3.org/2000/svg" viewBox="0 0 640.52 403.5">
  <defs>
    <style>
      .cls-1 {
        fill: #66b9e8;
      }

      .cls-2 {
        fill: #cccdce;
      }

      .cls-3 {
        fill: #dcedf6;
      }

      .cls-4 {
        fill: #231f20;
      }

      .cls-5 {
        fill: #5c5e5f;
      }

      .cls-6 {
        stroke-width: 2px;
      }

      .cls-6, .cls-7 {
        fill: none;
        stroke: #231f20;
        stroke-miterlimit: 10;
      }
    </style>
  </defs>
  <g>
    <path class="cls-1" d="m519.5,203.7h.01c-.03,2.82-.45,6.02-1.35,9.66h-177.16v-11.21l178.5,1.55Z"/>
    <path class="cls-1" d="m494,183.5s25.75-2.94,25.51,20.2h-.01l-178.5-1.55v-18.65h153Z"/>
    <path class="cls-1" d="m479.05,213.36h39.11c-.32,1.32-.7,2.7-1.16,4.14-7.33,23.22-11.68,40.47-13.95,50.37-8,.05-16,.1-24,.16v-54.67Z"/>
    <path class="cls-5" d="m424.88,300.11c7.19-18.14,24.89-30.97,45.59-30.97,11.4,0,21.9,3.89,30.22,10.42,11.46,8.98,18.82,22.94,18.82,38.62,0,27.08-21.96,49.03-49.04,49.03s-49.03-21.95-49.03-49.03c0-3.31.33-6.55.96-9.67.57-2.9,1.41-5.71,2.48-8.4Zm70.32,17.18c0-6.57-2.73-11.47-3.65-12.95-4.38-7.01-12.49-11.78-21.08-11.78-13.66,0-24.73,11.07-24.73,24.73s11.07,24.73,24.73,24.73,24.73-11.07,24.73-24.73Z"/>
    <path class="cls-2" d="m491.55,304.34c.92,1.48,3.65,6.38,3.65,12.95,0,13.66-11.07,24.73-24.73,24.73s-24.73-11.07-24.73-24.73,11.07-24.73,24.73-24.73c8.59,0,16.7,4.77,21.08,11.78Zm.61,12.95c0-5.76-2.4-10.06-3.2-11.36-3.84-6.15-10.96-10.33-18.49-10.33-11.98,0-21.69,9.71-21.69,21.69s9.71,21.69,21.69,21.69,21.69-9.71,21.69-21.69Z"/>
    <path class="cls-2" d="m488.96,305.93c.8,1.3,3.2,5.6,3.2,11.36,0,11.98-9.71,21.69-21.69,21.69s-21.69-9.71-21.69-21.69,9.71-21.69,21.69-21.69c7.53,0,14.65,4.18,18.49,10.33Zm-7.18,11.36c0-3-1.25-5.25-1.67-5.92-2.01-3.21-5.71-5.39-9.64-5.39-6.24,0-11.3,5.06-11.3,11.31s5.06,11.3,11.3,11.3,11.31-5.06,11.31-11.3Z"/>
    <path class="cls-5" d="m480.11,311.37c.42.67,1.67,2.92,1.67,5.92,0,6.24-5.07,11.3-11.31,11.3s-11.3-5.06-11.3-11.3,5.06-11.31,11.3-11.31c3.93,0,7.63,2.18,9.64,5.39Z"/>
    <path class="cls-2" d="m470.46,268.08c2.87-.02,5.73-.04,8.59-.05,8-.06,16-.11,24-.16-1.44,6.3-2.05,9.63-2.05,9.63-.1.69-.21,1.37-.31,2.06-8.32-6.53-18.82-10.42-30.22-10.42v-1.06Z"/>
    <path class="cls-2" d="m341,268.93c35.93-.23,71.86-.47,107.78-.71,5.01-.03,10.02-.06,15.02-.09,2.22-.02,4.44-.03,6.66-.05v1.06c-20.69,0-38.39,12.83-45.58,30.97h-118.26l-.45-.13c1.88-7.18,2.88-14.71,2.88-22.48,0-2.88-.15-5.67-.42-8.36l32.37-.21Z"/>
    <path class="cls-1" d="m479.05,268.03c-2.86.01-5.72.03-8.59.05-2.22.02-4.44.03-6.66.05v-54.77h15.25v54.67Z"/>
    <path class="cls-1" d="m463.8,267.87v.26c-5,.03-10.01.06-15.02.09v-54.86h15.02v54.51Z"/>
    <polygon class="cls-5" points="450.88 129.39 452.19 183.5 428.03 183.5 428.03 182.18 428.03 129.39 435.91 129.39 443 129.39 450.88 129.39"/>
    <path class="cls-1" d="m448.78,267.87v.35c-35.92.24-71.85.48-107.78.71v-55.57h107.78v54.51Z"/>
    <polygon class="cls-5" points="443 94.47 443 129.39 435.91 129.39 436.17 94.47 443 94.47"/>
    <path class="cls-2" d="m306.62,300.11h118.26c-1.07,2.69-1.91,5.5-2.48,8.4h-.01l-118.47-1.29c.85-2.37,1.6-4.78,2.24-7.24h.01l.45.13Z"/>
    <path class="cls-1" d="m332.81,183.74c.67,4.05,1.1,16.05.9,32.23h-26.32s-6.88.9-11.41-5.55c-4.53-6.44-16.53-29.19-16.53-29.19,0,0-1.11-1.87-.32-3.38.91-1.75,3.84-1.87,5.51-1.92,8.42-.21,18.79.04,21.49.11h16.12c1.05.01,2.64.14,4.44.74,1.12.38,2.68.91,3.94,2.15,1.21,1.2,1.85,2.79,2.18,4.81Zm-28.89-.24h-11.22s1.26,3.58,5.01,3.69c3.76.11,6.21-3.69,6.21-3.69Z"/>
    <path class="cls-1" d="m271.99,167.2h53.27s5.13,1.2,3.18-6.09c-1.94-7.29-14.51-56.82-14.51-56.82-.28-1.15-.85-2.87-2.08-4.32-2.51-2.98-6.13-2.95-8.54-2.94-10.44.05-20.89-.53-31.33-.07-.4.02-1.2.06-1.58.07v5.33l1.59,64.84Zm69.01,46.16v55.57l-32.37.21c-1.88-19.24-9.76-33.3-12.65-37.92-9.18-16.81-18.37-33.63-27.55-50.44,1.64.04,3.12-.7,3.76-1.96.54-1.06.31-2.14.21-2.56-.06-.28-.47-2.03-2.06-2.82-.57-.28-1.12-.35-1.51-.36l-80.24,1.26c3.95-30.58,7.9-61.16,11.86-91.74,38.98-.37,77.97-.74,116.96-1.11,7.86,34,15.73,68.01,23.59,102.01v29.86Zm-7.29,2.61c.2-16.18-.23-28.18-.9-32.23-.33-2.02-.97-3.61-2.18-4.81-1.26-1.24-2.82-1.77-3.94-2.15-1.8-.6-3.39-.73-4.44-.74h-16.12c-2.7-.07-13.07-.32-21.49-.11-1.67.05-4.6.17-5.51,1.92-.79,1.51.32,3.38.32,3.38,0,0,12,22.75,16.53,29.19,4.53,6.45,11.41,5.55,11.41,5.55h26.32Zm-69.69-48.76v-70.32c-27.71-.18-47.94-.1-52.46,0-.98.02-3.27.11-4.88,2.02-1.63,1.91-1.75,4.71-1.8,5.68-.31,5.52-2.32,23.82-5.17,49.33,0,0-2.87,13.29,8.9,13.29h55.41Z"/>
    <path class="cls-3" d="m328.44,161.11c1.95,7.29-3.18,6.09-3.18,6.09h-53.27l-1.59-64.84v-5.33c.38,0,1.18-.05,1.58-.07,10.44-.46,20.89.12,31.33.07,2.41,0,6.03-.04,8.54,2.94,1.23,1.45,1.8,3.17,2.08,4.32,0,0,12.57,49.53,14.51,56.82Z"/>
    <path class="cls-4" d="m292.7,183.5h11.22s-2.45,3.8-6.21,3.69c-3.75-.11-5.01-3.69-5.01-3.69Z"/>
    <path class="cls-5" d="m295.98,231.22c2.89,4.62,10.77,18.68,12.65,37.92.27,2.69.42,5.48.42,8.36,0,7.77-1,15.3-2.88,22.48h-.01c-.64,2.46-1.39,4.87-2.24,7.24-12.2,34.21-44.89,58.69-83.29,58.69-48.82,0-88.41-39.58-88.41-88.41,0-29.79,14.73-56.13,37.31-72.15,14.43-10.24,32.06-16.26,51.1-16.26,30.71,0,59.7,17.06,75.35,42.13Zm-13.82,46.28c0-16.34-6.8-28.54-9.09-32.21-10.89-17.45-31.07-29.32-52.44-29.32-33.98,0-61.52,27.55-61.52,61.53s27.54,61.53,61.52,61.53,61.53-27.55,61.53-61.53Z"/>
    <path class="cls-2" d="m268.43,180.78c9.18,16.81,18.37,33.63,27.55,50.44-15.65-25.07-44.64-42.13-75.35-42.13-19.04,0-36.67,6.02-51.1,16.26-4.41-4.14-8.81-8.27-13.22-12.4l14.85-12.17h97.27Z"/>
    <path class="cls-2" d="m273.07,245.29c2.29,3.67,9.09,15.87,9.09,32.21,0,33.98-27.55,61.53-61.53,61.53s-61.52-27.55-61.52-61.53,27.54-61.53,61.52-61.53c21.37,0,41.55,11.87,52.44,29.32Zm1.53,32.21c0-14.33-5.96-25.03-7.97-28.25-9.55-15.31-27.25-25.72-46-25.72-29.8,0-53.97,24.16-53.97,53.97s24.17,53.97,53.97,53.97,53.97-24.16,53.97-53.97Z"/>
    <path class="cls-1" d="m272.4,176.26c.1.42.33,1.5-.21,2.56-.64,1.26-2.12,2-3.76,1.96h-97.27l-14.85,12.17-5.41,4.44-8.11-2.83,23.1-19.86,22.7-.36,80.24-1.26c.39.01.94.08,1.51.36,1.59.79,2,2.54,2.06,2.82Z"/>
    <path class="cls-2" d="m266.63,249.25c2.01,3.22,7.97,13.92,7.97,28.25,0,29.81-24.16,53.97-53.97,53.97s-53.97-24.16-53.97-53.97,24.17-53.97,53.97-53.97c18.75,0,36.45,10.41,46,25.72Zm-17.87,28.25c0-7.47-3.11-13.05-4.16-14.72-4.97-7.98-14.2-13.41-23.97-13.41-15.53,0-28.12,12.6-28.12,28.13s12.59,28.13,28.12,28.13,28.13-12.6,28.13-28.13Z"/>
    <path class="cls-3" d="m264.02,96.89v70.32h-55.41c-11.77,0-8.9-13.29-8.9-13.29,2.85-25.51,4.86-43.81,5.17-49.33.05-.97.17-3.77,1.8-5.68,1.61-1.91,3.9-2,4.88-2.02,4.52-.1,24.75-.18,52.46,0Z"/>
    <path class="cls-5" d="m244.6,262.78c1.05,1.67,4.16,7.25,4.16,14.72,0,15.53-12.59,28.13-28.13,28.13s-28.12-12.6-28.12-28.13,12.59-28.13,28.12-28.13c9.77,0,19,5.43,23.97,13.41Z"/>
  </g>
  <g>
    <path class="cls-6" d="m188.59,174.34c3.95-30.58,7.9-61.16,11.86-91.74,38.98-.37,77.97-.74,116.96-1.11,7.86,34,15.73,68.01,23.59,102.01h153s25.75-2.94,25.51,20.2c-.03,2.82-.45,6.02-1.35,9.66-.32,1.32-.7,2.7-1.16,4.14-7.33,23.22-11.68,40.47-13.95,50.37-1.44,6.3-2.05,9.63-2.05,9.63-.1.69-.21,1.37-.31,2.06"/>
    <path class="cls-6" d="m500.69,279.56c11.46,8.98,18.82,22.94,18.82,38.62,0,27.08-21.96,49.03-49.04,49.03s-49.03-21.95-49.03-49.03c0-3.31.33-6.55.96-9.67.57-2.9,1.41-5.71,2.48-8.4,7.19-18.14,24.89-30.97,45.59-30.97,11.4,0,21.9,3.89,30.22,10.42Z"/>
    <path class="cls-6" d="m308.63,269.14c.27,2.69.42,5.48.42,8.36,0,7.77-1,15.3-2.88,22.48h-.01c-.64,2.46-1.39,4.87-2.24,7.24-12.2,34.21-44.89,58.69-83.29,58.69-48.82,0-88.41-39.58-88.41-88.41,0-29.79,14.73-56.13,37.31-72.15,14.43-10.24,32.06-16.26,51.1-16.26,30.71,0,59.7,17.06,75.35,42.13,2.89,4.62,10.77,18.68,12.65,37.92Z"/>
    <path class="cls-6" d="m295.98,231.22c-9.18-16.81-18.37-33.63-27.55-50.44h-97.27l-14.85,12.17-5.41,4.44-8.11-2.83,23.1-19.86,22.7-.36,80.24-1.26c.39.01.94.08,1.51.36,1.59.79,2,2.54,2.06,2.82.1.42.33,1.5-.21,2.56-.64,1.26-2.12,2-3.76,1.96"/>
    <path class="cls-6" d="m169.53,205.35c-4.41-4.14-8.81-8.27-13.22-12.4"/>
    <path class="cls-6" d="m422.39,308.51l-118.47-1.29"/>
    <path class="cls-6" d="m204.88,104.59c-.31,5.52-2.32,23.82-5.17,49.33,0,0-2.87,13.29,8.9,13.29h55.41v-70.32c-27.71-.18-47.94-.1-52.46,0-.98.02-3.27.11-4.88,2.02-1.63,1.91-1.75,4.71-1.8,5.68Z"/>
    <path class="cls-6" d="m270.4,102.36l1.59,64.84h53.27s5.13,1.2,3.18-6.09c-1.94-7.29-14.51-56.82-14.51-56.82-.28-1.15-.85-2.87-2.08-4.32-2.51-2.98-6.13-2.95-8.54-2.94-10.44.05-20.89-.53-31.33-.07-.4.02-1.2.06-1.58.07v5.33Z"/>
    <path class="cls-6" d="m306.13,176.04h16.12c1.05.01,2.64.14,4.44.74,1.12.38,2.68.91,3.94,2.15,1.21,1.2,1.85,2.79,2.18,4.81.67,4.05,1.1,16.05.9,32.23h-26.32s-6.88.9-11.41-5.55c-4.53-6.44-16.53-29.19-16.53-29.19,0,0-1.11-1.87-.32-3.38.91-1.75,3.84-1.87,5.51-1.92,8.42-.21,18.79.04,21.49.11Z"/>
    <polyline class="cls-6" points="424.89 300.11 424.88 300.11 306.62 300.11"/>
    <polyline class="cls-6" points="428.03 182.18 428.03 129.39 435.91 129.39 443 129.39 450.88 129.39 452.19 183.5"/>
    <polyline class="cls-6" points="435.91 129.39 436.17 94.47 443 94.47 443 129.39"/>
    <polyline class="cls-6" points="341 183.5 341 202.15 341 213.36 341 268.93 341 269.14"/>
    <path class="cls-6" d="m308.63,269.14l32.37-.21c35.93-.23,71.86-.47,107.78-.71,5.01-.03,10.02-.06,15.02-.09,2.22-.02,4.44-.03,6.66-.05,2.87-.02,5.73-.04,8.59-.05,8-.06,16-.11,24-.16"/>
    <line class="cls-6" x1="341" y1="202.15" x2="519.5" y2="203.7"/>
    <polyline class="cls-6" points="341 213.36 448.78 213.36 463.8 213.36 479.05 213.36 518.16 213.36"/>
    <path class="cls-6" d="m248.76,277.5c0,15.53-12.59,28.13-28.13,28.13s-28.12-12.6-28.12-28.13,12.59-28.13,28.12-28.13c9.77,0,19,5.43,23.97,13.41,1.05,1.67,4.16,7.25,4.16,14.72Z"/>
    <path class="cls-6" d="m282.16,277.5c0,33.98-27.55,61.53-61.53,61.53s-61.52-27.55-61.52-61.53,27.54-61.53,61.52-61.53c21.37,0,41.55,11.87,52.44,29.32,2.29,3.67,9.09,15.87,9.09,32.21Z"/>
    <path class="cls-6" d="m274.6,277.5c0,29.81-24.16,53.97-53.97,53.97s-53.97-24.16-53.97-53.97,24.17-53.97,53.97-53.97c18.75,0,36.45,10.41,46,25.72,2.01,3.22,7.97,13.92,7.97,28.25Z"/>
    <path class="cls-6" d="m481.78,317.29c0,6.24-5.07,11.3-11.31,11.3s-11.3-5.06-11.3-11.3,5.06-11.31,11.3-11.31c3.93,0,7.63,2.18,9.64,5.39.42.67,1.67,2.92,1.67,5.92Z"/>
    <path class="cls-6" d="m495.2,317.29c0,13.66-11.07,24.73-24.73,24.73s-24.73-11.07-24.73-24.73,11.07-24.73,24.73-24.73c8.59,0,16.7,4.77,21.08,11.78.92,1.48,3.65,6.38,3.65,12.95Z"/>
    <path class="cls-6" d="m492.16,317.29c0,11.98-9.71,21.69-21.69,21.69s-21.69-9.71-21.69-21.69,9.71-21.69,21.69-21.69c7.53,0,14.65,4.18,18.49,10.33.8,1.3,3.2,5.6,3.2,11.36Z"/>
    <line class="cls-6" x1="448.78" y1="213.36" x2="448.78" y2="267.87"/>
    <line class="cls-6" x1="463.8" y1="213.36" x2="463.8" y2="267.87"/>
    <line class="cls-6" x1="479.05" y1="213.36" x2="479.05" y2="267.87"/>
    <path class="cls-7" d="m303.92,183.5h-11.22s1.26,3.58,5.01,3.69c3.76.11,6.21-3.69,6.21-3.69Z"/>
  </g>
</svg>